<svg width="86" height="102" xmlns="http://www.w3.org/2000/svg"><g fill="none" fill-rule="evenodd"><path d="M42.965 101.889c6.875 0 22.974-14.892 29.85-24.368 6.875-9.477 13.08-22.338 13.08-39.598 0-.677-.755-22.76-5.031-27.076C76.588 6.532 62.039.017 42.964.017 23.89.017 9.343 6.532 5.066 10.847.79 15.162.035 37.246.035 37.923c0 17.26 6.204 30.121 13.08 39.598 6.875 9.476 22.974 24.368 29.85 24.368" fill="#1A1918"/><path d="M42.965 100.873c6.714 0 22.436-14.594 29.15-23.882 6.714-9.288 12.774-21.892 12.774-38.808 0-.664-.737-22.307-4.913-26.536-4.177-4.23-18.384-10.615-37.011-10.615-18.628 0-32.835 6.385-37.011 10.615C1.778 15.876 1.04 37.519 1.04 38.183c0 16.916 6.059 29.52 12.773 38.808 6.715 9.288 22.436 23.882 29.15 23.882" fill="#D9222A"/><path d="M42.965 99.858c6.553 0 21.897-14.298 28.45-23.396 6.553-9.1 12.467-21.447 12.467-38.02 0-.65-.72-21.853-4.795-25.996C75.012 8.303 61.145 2.048 42.965 2.048S10.918 8.303 6.842 12.446C2.766 16.59 2.047 37.792 2.047 38.442c0 16.573 5.914 28.92 12.467 38.02 6.553 9.098 21.897 23.396 28.45 23.396" fill="#1A1918"/><path d="M27.87 89.656c-3.662-3.28-7.248-7-10.06-10.384V7.481c2.9-1.114 6.284-2.13 10.062-2.906l-.002 85.08ZM47.996 3.227a77.027 77.027 0 0 0-5.031-.164v95.78c1.348 0 3.08-.624 5.03-1.692V3.227Zm-10.062 0a77.027 77.027 0 0 1 5.03-.164v95.78c-1.349 0-3.08-.624-5.033-1.693l.003-93.923Zm20.124 86.43c3.663-3.28 7.25-7 10.061-10.385V7.481c-2.9-1.114-6.284-2.13-10.061-2.906v85.082" fill="#D9222A"/><path d="M66.867 48.128c.864 12.965-9.599 24.21-22.955 25.115-13.354.906-23.875-8.87-24.739-21.835-.863-12.965 8.258-23.87 21.613-24.776 13.356-.906 25.218 8.532 26.081 21.496" fill="#1A1918"/><path d="M52.943 30.004c-1.473-.055-2.91.077-4.267.445l-.044-.008c-2.387-.469-4.64-.91-7.34-.707-.012.003-.024.01-.036.014-1.727-.794-3.397-1.402-4.889-1.798 5.695-1.427 11.805-.673 16.576 2.054M21.966 60.533c1.24 1.045 2.476 1.59 3.735 2.082 1.735 2.39 4.233 4.405 7.632 6.16.298.886.757 1.894 1.236 2.736-4.994-1.607-10.335-7.19-12.603-10.978" fill="#FFF"/><path d="m40.682 65.968.532-.234c.81-2.774 1.264-5.037 1.038-7.657-2.71-1.724-5.518-3.63-7.647-6.2-.145.039-4.442 1.159-4.442 1.159l-2.717.717-.078.245-.034.104c-.792 2.507-1.538 5.412-1.413 8.352 1.71 2.355 4.179 4.345 7.543 6.08 2.37-.418 4.348-1.297 6.26-2.147l.958-.42Zm6.575 6.125c1.121-.81 1.933-1.592 2.646-2.577 2.883-.828 5.173-2.377 7.414-5.015l.486-.032c.974-.06 2.054-.14 3.025-.497-3.38 4.011-7.941 6.739-13.57 8.12m18.758-17.98c-.635-1.907-1.216-3.397-2.203-4.539-.299-3.696-1.117-6.347-2.815-9.126.157-.849.204-1.773.144-2.666a9.455 9.455 0 0 0-.38-2.078c2.743 2.507 5.116 7.41 5.497 13.129a23.877 23.877 0 0 1-.243 5.28m-27.43-10.856v.018c.006.073.063.13.135.134l9.234.484 1.486 8.445c.014.078.086.13.165.117a.146.146 0 0 0 .115-.166l-1.505-8.559a.143.143 0 0 0-.133-.119l-9.347-.49a.145.145 0 0 0-.15.136m-2.887-15.088a.197.197 0 0 0-.011.066.145.145 0 0 0 .087.123l2.888 1.223-3.16 3.655c-.022.024-.042.055-.04.084 0 .007.002.014.005.02l.049.099c.01.023.019.037.042.045.024.008.038.001.06-.01l.099-.05 3.289-3.804a.202.202 0 0 0 .032-.128.144.144 0 0 0-.084-.1l-3.07-1.3a.144.144 0 0 0-.186.077" fill="#FFF"/><path d="M56.973 64.485c.053-.061.105-.12.158-.183.765-2.564 1.124-5.54 1.017-8.402-2.26-.684-4.548-1.63-7.182-2.97-2.774 2.165-5.689 3.936-8.443 5.134l.024.304c.167 2.52-.287 4.733-1.067 7.412.092.074.183.143.275.213 2.625 2.035 5.195 3.08 8.051 3.268 2.78-.794 5.001-2.273 7.167-4.776m1.17-8.978c.151.048.3.096.45.142 2.544-1.63 3.845-3.88 4.951-6.05-.296-3.658-1.104-6.279-2.785-9.024-2.473-1.663-4.519-2.105-7.617-2.355-1.249 1.812-2.545 3.417-3.857 4.776.052.16.102.33.153.495.767 2.476 1.076 5.483 1.624 9.183 2.468 1.257 4.964 2.163 7.081 2.833m-9.193-12.72c.045.01.091.017.137.027 1.304-1.35 2.593-2.948 3.836-4.75-1.318-2.821-2.568-5.48-4.317-7.352a.604.604 0 0 1-.025-.005c-2.368-.464-4.604-.903-7.232-.71-2.423.893-4.444 2.787-6.175 5.784l.041.096c.978 2.362 2.9 5.058 3.737 6.177 3.256-.19 6.618.057 9.998.733M34.135 51.72l.32-.09s2.576-6.632 4.264-9.435c-.861-1.153-2.811-3.895-3.785-6.284-2.645.078-5.233.63-8.13 1.735a40.557 40.557 0 0 0-3.716 9.162l-.08.492c.99 2.578 2.477 4.707 4.365 6.192l2.721-.719 4.041-1.053Z" fill="#FFF"/><path d="M26.145 33.663c-4.44 4.855-6.495 10.52-6.429 17.734.758-1.294 1.583-2.487 2.393-3.63l.712-1.01.011-.038a40.802 40.802 0 0 1 3.723-9.18 15.786 15.786 0 0 1-.21-1.746 20.956 20.956 0 0 1-.01-2.344c-.064.07-.125.143-.19.214" fill="#FFF"/><g fill="#555D5B"><path d="M41.945 64.129s-10.13 6.437-18.95 5.615c-6.47-.605-9.343-8.4-8.962-12.563.454-4.952 3.459-8.002 3.459-8.002s-2.935 11.67 4.213 12.337c5.903.55 6.083-6.49 14.404-5.713 5.333.498 6.296 3.301 6.296 3.301l-.46 5.025Z"/><path d="M41.925 64.129s8.789 8.203 17.608 9.025c6.472.605 10.712-6.527 11.093-10.69.454-4.952-1.946-8.506-1.946-8.506s.764 12.015-6.383 11.347c-5.904-.55-4.8-7.505-13.121-8.281-5.335-.498-6.79 2.08-6.79 2.08l-.461 5.025Z"/></g><path d="M14.047 13.618h1.968v3.033l3.703-3.033h2.36l-3.763 3.085 3.807 3.227h-2.526l-3.58-3.139v3.139h-1.97v-6.312Zm8.72 1.679h3.728c.198.006.394.016.588.03.195.015.382.037.562.067a2.278 2.278 0 0 1 1.002.378 1.343 1.343 0 0 1 .523.58 1.674 1.674 0 0 1 .157.685v2.893h-4.888a4.08 4.08 0 0 1-.936-.097 2.006 2.006 0 0 1-.684-.29 1.272 1.272 0 0 1-.41-.47 1.135 1.135 0 0 1-.095-.62 1.29 1.29 0 0 1 .261-.686c.145-.182.349-.313.61-.395a5.09 5.09 0 0 1 .858-.185 7.77 7.77 0 0 1 1.015-.062l2.387-.008a.762.762 0 0 0-.096-.462.593.593 0 0 0-.348-.25 3.16 3.16 0 0 0-.536-.106 5.767 5.767 0 0 0-.667-.035l-3.031-.009v-.958Zm2.422 3.7h2.273v-.957H25.32a.07.07 0 0 1-.03.008h-.074a4.175 4.175 0 0 0-.357.031c-.11.015-.218.037-.323.066a.437.437 0 0 0-.244.136.37.37 0 0 0-.087.25.406.406 0 0 0 .052.273.32.32 0 0 0 .227.132c.105.024.216.041.335.053.12.012.243.018.37.018v-.01Zm5.732-3.7h6.978c.447.006.843.04 1.189.101.345.062.646.15.901.268.25.117.439.287.567.51.127.223.194.498.2.826v2.928h-1.83v-2.778c0-.217-.034-.387-.104-.51a.48.48 0 0 0-.314-.237 2.846 2.846 0 0 0-.51-.075 7.89 7.89 0 0 0-.788-.009.495.495 0 0 1-.06.004h-.42v3.605h-1.855v-3.613H32.75v3.613h-1.83v-4.633Zm11.464 0h3.502c.511.006.969.059 1.372.158.404.1.748.246 1.032.44.29.199.514.432.671.699.157.266.247.57.27.91.012.158.006.311-.017.46-.023.15-.061.301-.113.454a1.99 1.99 0 0 1-.601.808 2.468 2.468 0 0 1-1.229.58 7.825 7.825 0 0 1-.727.093c-.253.02-.51.03-.771.03h-1.568v1.67h-1.82v-6.302Zm1.82 1.002v2.637a.2.2 0 0 1 .04.005c.015.003.03.004.048.004h.261c.418.006.797-.006 1.137-.035.34-.03.64-.073.902-.132a.887.887 0 0 0 .58-.413c.124-.211.18-.501.169-.87-.012-.311-.083-.554-.213-.73a.88.88 0 0 0-.571-.334 7.117 7.117 0 0 0-.823-.101c-.3-.02-.623-.03-.972-.03-.035 0-.068 0-.1.003a1.003 1.003 0 0 1-.091.005h-.366v-.009Zm9.087 0h-1.106v2.637a1.672 1.672 0 0 0 .26.018h.271c.302.006.594.001.875-.013a7.99 7.99 0 0 0 .815-.084c.261-.035.465-.129.61-.281.145-.153.238-.36.279-.624v-.053c0-.018.002-.035.008-.053v-.105c0-.018.002-.035.005-.053a.382.382 0 0 0 .004-.062c0-.017.001-.035.004-.052a.323.323 0 0 0 .005-.053 5.408 5.408 0 0 1-.035-.193 5.409 5.409 0 0 1-.018-.093.938.938 0 0 0-.113-.273 1.248 1.248 0 0 0-.122-.162 1.221 1.221 0 0 0-.335-.281 1.215 1.215 0 0 0-.414-.14 5.261 5.261 0 0 0-.466-.054 7.476 7.476 0 0 0-.527-.017v-.009Zm-1.106-2.681v1.679h1.568c.26.006.518.019.77.04.253.02.496.054.728.1a2.468 2.468 0 0 1 1.228.58c.145.124.267.253.366.388.099.134.177.278.235.43.053.147.09.296.114.449.023.152.029.304.017.457-.023.34-.113.644-.27.914-.157.27-.38.501-.67.694a3.109 3.109 0 0 1-1.033.436 5.909 5.909 0 0 1-1.372.145h-3.502v-6.312h1.82Zm6.29 1.679h3.728c.197.006.393.016.588.03.194.015.382.037.562.067a2.278 2.278 0 0 1 1.001.378 1.343 1.343 0 0 1 .523.58 1.553 1.553 0 0 1 .157.686v2.892h-4.887c-.354 0-.667-.033-.937-.097a2.006 2.006 0 0 1-.684-.29 1.272 1.272 0 0 1-.409-.47 1.135 1.135 0 0 1-.096-.62 1.29 1.29 0 0 1 .262-.686c.145-.182.348-.313.61-.395a5.09 5.09 0 0 1 .857-.185c.311-.041.65-.062 1.015-.062l2.387-.008a.762.762 0 0 0-.096-.462.593.593 0 0 0-.348-.25 3.16 3.16 0 0 0-.536-.106 5.767 5.767 0 0 0-.666-.035l-3.032-.009v-.958Zm2.421 3.7h2.274v-.957h-2.143a.07.07 0 0 1-.03.008h-.075a4.175 4.175 0 0 0-.357.031c-.11.015-.218.037-.322.066a.437.437 0 0 0-.244.136.37.37 0 0 0-.087.25.406.406 0 0 0 .052.273c.046.07.122.115.226.132.105.024.217.041.336.053.119.012.242.018.37.018v-.01Zm5.732-3.7h3.058c.488.006.875.045 1.163.119.287.073.469.186.544.338.082.147.14.32.175.523.034.202.052.43.052.681v.29l-1.742-.008v-.194c0-.21-.014-.38-.04-.505-.026-.126-.065-.207-.117-.242-.053-.035-.167-.061-.344-.08a7.904 7.904 0 0 0-.736-.025h-.202v3.736h-1.81v-4.633Zm5.462 0h1.28v-1.68h1.813v1.68h1.925v.923h-1.925v1.872c-.006.235.03.42.109.554.078.135.199.22.361.255.157.041.347.07.57.088.224.018.479.026.763.026h.123v.915h-1.664c-.342 0-.644-.033-.906-.097a1.73 1.73 0 0 1-.644-.29 1.201 1.201 0 0 1-.397-.457 1.367 1.367 0 0 1-.126-.598V16.22h-1.28v-.923ZM25.72 80.908c0-.17.017-.33.049-.479.032-.15.08-.288.144-.417a.978.978 0 0 1 .33-.37 2.74 2.74 0 0 1 .602-.307c.156-.059.32-.106.492-.14a4.95 4.95 0 0 1 .527-.08 11.977 11.977 0 0 1 1.106-.053h.619c.046 0 .093.002.14.005.046.003.092.004.139.004h.553c.09 0 .181-.003.274-.009a1.96 1.96 0 0 0 .488-.07c.14-.041.255-.1.348-.176a.652.652 0 0 0 .192-.272.67.67 0 0 0 .017-.343.609.609 0 0 0-.17-.352.643.643 0 0 0-.36-.167 5.06 5.06 0 0 0-.484-.066 5.78 5.78 0 0 0-.51-.022l-4.495-.009v-1.09h4.913a.191.191 0 0 0 .061.01h.488c.07 0 .138 0 .205.004.066.003.135.004.204.004.07.006.138.01.205.013.067.003.135.008.205.013a2.813 2.813 0 0 1 .784.176c.197.076.367.166.51.268a1.708 1.708 0 0 1 .57.76c.052.141.084.282.096.423v.052a1.7 1.7 0 0 1-.135.849c-.113.243-.289.45-.527.62a2.63 2.63 0 0 1-.902.382 5.487 5.487 0 0 1-1.259.127l-1.777-.008c-.389.005-.697.04-.923.1-.227.062-.372.152-.436.269a1.304 1.304 0 0 0-.135.417 2.937 2.937 0 0 0-.03.55v.211l6.09-.009v1.081H25.72v-1.899Zm15.481.466c.116-.082.218-.183.305-.303s.163-.26.227-.418c.063-.158.11-.319.139-.483a2.87 2.87 0 0 0 0-.998 2.427 2.427 0 0 0-.14-.479 2.066 2.066 0 0 0-.226-.422 1.43 1.43 0 0 0-.305-.316 1.848 1.848 0 0 0-.383-.216 3.06 3.06 0 0 0-.47-.154 3.743 3.743 0 0 0-.523-.087 5.644 5.644 0 0 0-.55-.027 4.654 4.654 0 0 0-1.053.123 3.146 3.146 0 0 0-.466.15 1.555 1.555 0 0 0-.68.527 1.91 1.91 0 0 0-.23.422c-.059.158-.1.318-.127.48a3.098 3.098 0 0 0 0 .997c.026.164.068.325.126.483.064.159.141.298.231.418.09.12.193.224.31.312.11.082.236.154.378.215.143.062.298.113.467.154.168.041.342.07.522.088.18.018.36.027.54.027a4.288 4.288 0 0 0 1.054-.123 3.06 3.06 0 0 0 .47-.154 2.15 2.15 0 0 0 .384-.207v-.009Zm-3.58 1.398a6.44 6.44 0 0 1-.98-.233 3.425 3.425 0 0 1-.771-.356 2.544 2.544 0 0 1-.584-.488 2.551 2.551 0 0 1-.527-.971 9.723 9.723 0 0 1-.091-.343 3.624 3.624 0 0 1-.07-.72 3.698 3.698 0 0 1 .07-.713c.029-.117.06-.231.091-.343a2.41 2.41 0 0 1 .527-.958c.168-.188.363-.352.584-.492.22-.14.477-.263.77-.365a5.79 5.79 0 0 1 .98-.242 7.95 7.95 0 0 1 .419-.061c.145-.018.293-.03.444-.036a10.749 10.749 0 0 1 1.438-.017c.046.006.091.009.135.009.043 0 .088.003.135.008.064.006.129.014.196.022.066.01.135.017.204.022.07.012.138.02.205.027a5.577 5.577 0 0 1 1.159.268c.287.102.544.224.77.365.221.14.416.304.584.492.169.188.305.399.41.633a3.112 3.112 0 0 1 .209.668 3.624 3.624 0 0 1 .07.712 3.789 3.789 0 0 1-.07.721 3.286 3.286 0 0 1-.21.668 2.482 2.482 0 0 1-.409.637 2.74 2.74 0 0 1-.583.497 3.84 3.84 0 0 1-.771.36 5.87 5.87 0 0 1-.963.238c-.087.012-.176.02-.266.026a4.56 4.56 0 0 0-.274.027c-.046 0-.091.003-.135.008a1.012 1.012 0 0 1-.135.01c-.14.01-.276.02-.41.026l-.4.017a11.907 11.907 0 0 1-.906-.035 6.943 6.943 0 0 1-.431-.03 14.75 14.75 0 0 1-.414-.05v-.008Zm13.677-1.398c.116-.082.218-.183.305-.303s.162-.26.226-.418c.064-.158.11-.319.14-.483a2.87 2.87 0 0 0 0-.998 2.427 2.427 0 0 0-.14-.479 2.066 2.066 0 0 0-.226-.422 1.43 1.43 0 0 0-.305-.316 1.848 1.848 0 0 0-.384-.216 3.06 3.06 0 0 0-.47-.154 3.743 3.743 0 0 0-.523-.087 5.644 5.644 0 0 0-.548-.027 4.654 4.654 0 0 0-1.055.123 3.224 3.224 0 0 0-.466.15 1.555 1.555 0 0 0-.68.527c-.09.123-.166.264-.23.422-.058.158-.1.318-.126.48a3.098 3.098 0 0 0 0 .997c.026.164.068.325.126.483.064.159.14.298.23.418a1.58 1.58 0 0 0 .69.527c.141.062.297.113.465.154.169.041.343.07.523.088.18.018.36.027.54.027a4.288 4.288 0 0 0 1.054-.123 3.06 3.06 0 0 0 .47-.154 2.15 2.15 0 0 0 .384-.207v-.009Zm-3.58 1.398a6.44 6.44 0 0 1-.98-.233 3.425 3.425 0 0 1-.772-.356 2.544 2.544 0 0 1-.583-.488 2.551 2.551 0 0 1-.527-.971 9.723 9.723 0 0 1-.092-.343 3.624 3.624 0 0 1-.07-.72 3.698 3.698 0 0 1 .07-.713c.03-.117.06-.231.092-.343a2.41 2.41 0 0 1 .527-.958c.168-.188.363-.352.583-.492.221-.14.478-.263.771-.365a5.79 5.79 0 0 1 .98-.242 7.95 7.95 0 0 1 .419-.061c.145-.018.293-.03.444-.036a10.75 10.75 0 0 1 1.437-.017c.047.006.092.009.135.009.044 0 .089.003.135.008.064.006.13.014.196.022.067.01.135.017.205.022.07.012.138.02.205.027a5.577 5.577 0 0 1 1.159.268c.287.102.544.224.77.365.221.14.416.304.584.492.168.188.305.399.41.633a3.112 3.112 0 0 1 .208.668 3.624 3.624 0 0 1 .07.712 3.789 3.789 0 0 1-.07.721 3.286 3.286 0 0 1-.209.668 2.482 2.482 0 0 1-.409.637 2.74 2.74 0 0 1-.584.497 3.84 3.84 0 0 1-.77.36 5.87 5.87 0 0 1-.963.238c-.087.012-.176.02-.266.026a4.56 4.56 0 0 0-.274.027c-.047 0-.092.003-.135.008a1.012 1.012 0 0 1-.135.01c-.14.01-.276.02-.41.026l-.4.017a11.907 11.907 0 0 1-.907-.035 6.943 6.943 0 0 1-.43-.03 14.75 14.75 0 0 1-.415-.05v-.008Zm6.89-1.046h3.868a3.246 3.246 0 0 0 1.062-.132.657.657 0 0 0 .354-.228.66.66 0 0 0 .117-.405.612.612 0 0 0-.117-.382.716.716 0 0 0-.353-.233 2.915 2.915 0 0 0-.501-.119 3.816 3.816 0 0 0-.562-.04l-3.119-.008v-1.081h3.067a3.53 3.53 0 0 0 .562-.027c.177-.023.344-.058.5-.105a.668.668 0 0 0 .353-.225.626.626 0 0 0 .118-.39c0-.159-.04-.29-.118-.396a.657.657 0 0 0-.352-.229 3.223 3.223 0 0 0-.501-.105 4.285 4.285 0 0 0-.562-.036l-3.816-.008v-1.082h4.513c.33.006.65.027.958.062.308.035.598.085.871.15.273.064.507.174.701.33.195.154.345.352.45.592.098.229.144.439.138.629a.913.913 0 0 1-.183.523c-.116.158-.265.31-.448.453a4.363 4.363 0 0 1-.658.417c.134.059.263.119.388.18.125.062.24.128.344.198a1.18 1.18 0 0 1 .492.69c.015.05.028.099.04.145a.6.6 0 0 1 .017.146v.145a.764.764 0 0 1-.018.167.205.205 0 0 1-.004.04.205.205 0 0 0-.004.039 2.069 2.069 0 0 1-.053.184l-.017.053a1.357 1.357 0 0 1-.392.558c-.18.156-.407.274-.68.356a5.045 5.045 0 0 1-.849.194 6.502 6.502 0 0 1-.902.061h-4.704v-1.081ZM35.26 8.898c0-.61.07-1.131.213-1.565.142-.434.356-.782.64-1.046.29-.264.75-.461 1.377-.593.627-.132 1.423-.198 2.387-.198l3.005-.009v1.099h-3.18a6.21 6.21 0 0 0-1.08.097 2.34 2.34 0 0 0-.749.263 1.124 1.124 0 0 0-.453.466c-.105.2-.166.44-.183.721l5.645-.009v1.09h-5.645V11.8H35.26V8.898Zm8.062-3.411h1.969V8.52l3.702-3.033h2.361l-3.763 3.086 3.807 3.226H48.87l-3.58-3.138v3.138h-1.969z" fill="#FFF"/></g></svg>