<svg width="86" height="101" xmlns="http://www.w3.org/2000/svg"><g fill="none" fill-rule="evenodd"><path d="M42.965 100.97c6.875 0 22.974-14.758 29.85-24.149 6.875-9.39 13.08-22.135 13.08-39.24 0-.671-.755-22.555-5.031-26.832C76.588 6.473 62.039.017 42.964.017 23.89.017 9.343 6.473 5.066 10.749.79 15.026.035 36.91.035 37.581c0 17.105 6.204 29.85 13.08 39.24 6.875 9.391 22.974 24.149 29.85 24.149" fill="#1A1918" fill-rule="nonzero"/><path d="M42.965 99.963c6.714 0 22.436-14.463 29.15-23.666 6.714-9.204 12.774-21.695 12.774-38.459 0-.657-.737-22.105-4.913-26.296C75.799 7.35 61.592 1.023 42.965 1.023c-18.628 0-32.835 6.327-37.011 10.519C1.778 15.732 1.04 37.18 1.04 37.838c0 16.764 6.059 29.255 12.773 38.459C20.53 85.5 36.25 99.963 42.964 99.963" fill="#D9222A" fill-rule="nonzero"/><path d="M42.965 98.957c6.553 0 21.897-14.169 28.45-23.185 6.553-9.017 12.467-21.253 12.467-37.677 0-.644-.72-21.655-4.795-25.76C75.012 8.227 61.145 2.028 42.965 2.028s-32.047 6.2-36.123 10.306C2.766 16.44 2.047 37.451 2.047 38.095c0 16.424 5.914 28.66 12.467 37.677 6.553 9.016 21.897 23.185 28.45 23.185" fill="#1A1918" fill-rule="nonzero"/><path d="M27.87 88.847c-3.662-3.25-7.248-6.936-10.06-10.29V7.413c2.9-1.104 6.284-2.11 10.062-2.879l-.002 84.313Zm15.095 9.104c-1.35 0-3.081-.618-5.034-1.677l.003-93.076a77.725 77.725 0 0 1 10.062 0v93.077c-1.952 1.058-3.683 1.676-5.031 1.676Zm15.093-9.103c3.663-3.25 7.25-6.936 10.061-10.291V7.413c-2.9-1.104-6.284-2.11-10.061-2.879v84.314" fill="#D9222A" fill-rule="nonzero"/><path d="M66.718 47.694c.863 12.848-9.599 23.991-22.955 24.888-13.355.898-23.875-8.79-24.739-21.638-.863-12.848 8.258-23.655 21.613-24.552 13.356-.898 25.217 8.455 26.081 21.302" fill="#1A1918" fill-rule="nonzero"/><path d="M52.794 29.733c-1.473-.054-2.91.076-4.267.442l-.044-.009c-2.387-.464-4.64-.901-7.34-.7-.012.003-.024.009-.036.014-1.727-.788-3.397-1.39-4.89-1.782 5.695-1.414 11.806-.667 16.577 2.035M21.817 59.987c1.24 1.036 2.476 1.575 3.735 2.063 1.735 2.368 4.232 4.365 7.632 6.105.298.878.757 1.877 1.236 2.711-4.994-1.593-10.335-7.125-12.603-10.88" fill="#FFF" fill-rule="nonzero"/><path d="m40.533 65.372.532-.231c.81-2.75 1.264-4.992 1.038-7.588-2.71-1.708-5.518-3.597-7.647-6.143l-4.443 1.147-2.716.711-.079.243-.033.103c-.792 2.484-1.539 5.364-1.414 8.276 1.71 2.334 4.18 4.307 7.544 6.026 2.37-.414 4.348-1.285 6.26-2.128l.958-.416Zm6.575 6.07c1.12-.801 1.933-1.577 2.646-2.553 2.883-.82 5.173-2.356 7.414-4.97l.486-.032c.974-.06 2.054-.138 3.025-.492-3.381 3.975-7.941 6.678-13.571 8.047m18.758-17.818c-.634-1.89-1.215-3.367-2.203-4.498-.298-3.663-1.117-6.29-2.814-9.044.157-.84.204-1.756.144-2.642a9.294 9.294 0 0 0-.38-2.06c2.742 2.485 5.116 7.344 5.497 13.011a23.49 23.49 0 0 1-.244 5.233M38.437 42.866v.017c.006.073.063.13.134.133l9.235.48 1.485 8.37a.144.144 0 0 0 .165.115.145.145 0 0 0 .116-.165l-1.505-8.481a.143.143 0 0 0-.133-.118l-9.347-.485a.144.144 0 0 0-.15.134M35.55 27.914a.194.194 0 0 0-.012.065c.004.054.038.1.088.122l2.887 1.212c-.163.19-3.16 3.622-3.16 3.622-.02.024-.042.055-.04.084 0 .007.002.013.006.02l.049.097c.01.023.018.037.042.045.023.008.038.001.06-.01l.099-.05 3.288-3.769a.198.198 0 0 0 .032-.127.143.143 0 0 0-.083-.098l-3.07-1.29a.145.145 0 0 0-.187.077" fill="#FFF" fill-rule="nonzero"/><path d="m56.823 63.903.159-.18c.765-2.542 1.123-5.492 1.016-8.328-2.26-.677-4.547-1.614-7.18-2.942-2.775 2.145-5.69 3.9-8.444 5.087.008.101.017.202.023.301.168 2.498-.286 4.691-1.066 7.346.091.072.183.141.274.211 2.625 2.017 5.195 3.051 8.052 3.238 2.78-.787 5-2.253 7.166-4.733m1.171-8.897.45.141c2.544-1.616 3.844-3.845 4.95-5.995-.295-3.626-1.104-6.223-2.784-8.943-2.473-1.648-4.519-2.086-7.617-2.334-1.25 1.795-2.545 3.387-3.857 4.733.052.158.102.327.152.49.768 2.454 1.077 5.434 1.624 9.101 2.468 1.246 4.964 2.143 7.082 2.807m-9.193-12.605c.045.01.091.017.136.026 1.304-1.337 2.593-2.92 3.836-4.707-1.317-2.795-2.567-5.43-4.317-7.285l-.024-.005c-2.369-.46-4.605-.894-7.232-.704-2.423.885-4.444 2.762-6.175 5.732l.04.096c.978 2.34 2.901 5.012 3.737 6.12 3.256-.188 6.618.057 10 .727m-14.816 8.852.319-.089s2.577-6.572 4.265-9.35c-.861-1.142-2.812-3.86-3.785-6.227-2.645.078-5.233.625-8.13 1.719a39.985 39.985 0 0 0-3.717 9.08l-.078.488c.989 2.554 2.475 4.664 4.363 6.135l2.722-.712 4.04-1.044Z" fill="#FFF" fill-rule="nonzero"/><path d="M25.995 33.36c-4.439 4.81-6.494 10.425-6.428 17.573.758-1.282 1.582-2.464 2.393-3.597l.712-1 .01-.039c.852-3.14 2.104-6.2 3.724-9.097a15.508 15.508 0 0 1-.21-1.73 20.58 20.58 0 0 1-.01-2.323c-.065.07-.126.142-.19.213" fill="#FFF" fill-rule="nonzero"/><path d="M41.784 63.558c-.389.242-10.293 6.356-18.938 5.556-6.471-.598-9.344-8.324-8.962-12.449.453-4.907 3.458-7.93 3.458-7.93S14.408 60.3 21.556 60.962c5.903.546 6.082-6.431 14.404-5.662 5.065.469 6.188 2.999 6.288 3.252.152-.24 1.724-2.509 6.778-2.042 8.322.77 7.218 7.661 13.121 8.207 7.148.661 6.384-11.245 6.384-11.245s2.4 3.522 1.946 8.43c-.381 4.124-4.621 11.192-11.093 10.593-8.665-.8-17.301-8.662-17.6-8.936Z" fill="#555D5B" fill-rule="nonzero"/><path d="M25.544 80.322c0-.156.014-.302.044-.44a1.61 1.61 0 0 1 .133-.381.898.898 0 0 1 .306-.339 2.54 2.54 0 0 1 .555-.281c.145-.054.297-.097.455-.13.158-.031.32-.055.487-.072a11.166 11.166 0 0 1 1.022-.048h.572c.043 0 .086.002.128.004.043.003.086.004.13.004h.51c.084 0 .168-.002.254-.008.172-.005.322-.027.45-.064a.907.907 0 0 0 .323-.161.597.597 0 0 0 .177-.25.608.608 0 0 0 .016-.314.555.555 0 0 0-.157-.322.596.596 0 0 0-.334-.153 4.715 4.715 0 0 0-.447-.06 5.388 5.388 0 0 0-.47-.02l-4.154-.008v-.998h4.54a.178.178 0 0 0 .056.008h.45c.065 0 .128.001.19.004s.125.004.189.004c.064.005.127.01.19.012l.188.012a2.514 2.514 0 0 1 .724.161c.183.07.34.152.472.246a1.56 1.56 0 0 1 .527.696c.048.129.078.257.088.386v.048c.022.296-.02.555-.124.777a1.444 1.444 0 0 1-.487.568 2.438 2.438 0 0 1-.833.35c-.33.078-.718.117-1.164.117l-1.642-.008c-.36.005-.644.036-.853.092-.21.056-.343.138-.402.246-.06.107-.1.234-.125.382a2.665 2.665 0 0 0-.028.503v.193l5.626-.008v.99h-7.582v-1.738Zm14.304.426c.107-.075.2-.168.281-.278.08-.11.15-.237.21-.382.059-.145.101-.292.128-.443a2.605 2.605 0 0 0 0-.913 2.207 2.207 0 0 0-.128-.439 1.886 1.886 0 0 0-.21-.386 1.314 1.314 0 0 0-.281-.29 1.712 1.712 0 0 0-.355-.197 2.845 2.845 0 0 0-.434-.141 3.488 3.488 0 0 0-.483-.08 5.262 5.262 0 0 0-.507-.025 4.339 4.339 0 0 0-.974.113 2.87 2.87 0 0 0-.431.137 1.44 1.44 0 0 0-.628.483 1.775 1.775 0 0 0-.213.386 2.357 2.357 0 0 0-.117.439 2.812 2.812 0 0 0 0 .913c.024.15.063.298.117.443.059.145.13.272.213.382.083.11.179.206.286.286.102.075.219.141.35.197.131.057.275.104.43.141.156.038.317.065.484.08.166.017.332.025.499.025a3.995 3.995 0 0 0 .974-.113c.155-.037.3-.084.434-.14.134-.057.253-.12.355-.19v-.008Zm-3.309 1.28a5.997 5.997 0 0 1-.905-.213 3.178 3.178 0 0 1-.713-.326 2.346 2.346 0 0 1-.539-.447 2.322 2.322 0 0 1-.487-.89 8.838 8.838 0 0 1-.085-.313 3.29 3.29 0 0 1-.048-.986c.01-.11.027-.22.048-.326.027-.108.055-.212.085-.314a2.204 2.204 0 0 1 .487-.877c.156-.172.335-.323.54-.452a3.44 3.44 0 0 1 .712-.334 5.39 5.39 0 0 1 .905-.22c.124-.022.252-.041.387-.057.134-.016.27-.027.41-.032a10.022 10.022 0 0 1 1.328-.017.903.903 0 0 0 .125.008 4.67 4.67 0 0 1 .306.028c.062.009.125.015.189.02.064.011.127.02.19.025a5.191 5.191 0 0 1 1.07.246c.265.093.503.205.712.333.204.13.384.28.54.451.155.172.281.365.378.58a2.834 2.834 0 0 1 .193.612 3.29 3.29 0 0 1 .048.986 3.29 3.29 0 0 1-.129.64c-.032.101-.07.2-.112.297a2.27 2.27 0 0 1-.379.584 2.526 2.526 0 0 1-.539.455 3.57 3.57 0 0 1-.712.33 5.465 5.465 0 0 1-.89.217c-.08.01-.162.019-.245.024a4.25 4.25 0 0 0-.254.024.943.943 0 0 0-.125.008.943.943 0 0 1-.124.008 8.6 8.6 0 0 1-.379.025l-.37.016a11.102 11.102 0 0 1-.837-.032 6.473 6.473 0 0 1-.398-.029 13.749 13.749 0 0 1-.383-.044v-.008Zm12.638-1.28c.107-.075.201-.168.281-.278a1.8 1.8 0 0 0 .21-.382c.059-.145.102-.292.129-.443a2.605 2.605 0 0 0 0-.913 2.207 2.207 0 0 0-.13-.439 1.886 1.886 0 0 0-.209-.386 1.314 1.314 0 0 0-.281-.29 1.712 1.712 0 0 0-.354-.197 2.845 2.845 0 0 0-.435-.141 3.488 3.488 0 0 0-.483-.08 5.262 5.262 0 0 0-.507-.025 4.339 4.339 0 0 0-.974.113 2.82 2.82 0 0 0-.43.137 1.44 1.44 0 0 0-.629.483 1.775 1.775 0 0 0-.213.386 2.357 2.357 0 0 0-.117.439 2.812 2.812 0 0 0 0 .913c.024.15.063.298.117.443.06.145.13.272.213.382a1.462 1.462 0 0 0 .636.483c.132.057.275.104.43.141.157.038.318.065.484.08.166.017.333.025.499.025a3.995 3.995 0 0 0 .974-.113c.156-.037.3-.084.435-.14.134-.057.252-.12.354-.19v-.008Zm-3.309 1.28a5.997 5.997 0 0 1-.905-.213 3.178 3.178 0 0 1-.712-.326 2.346 2.346 0 0 1-.54-.447 2.322 2.322 0 0 1-.487-.89 8.839 8.839 0 0 1-.084-.313 3.29 3.29 0 0 1-.049-.986c.011-.11.027-.22.049-.326.027-.108.055-.212.084-.314a2.204 2.204 0 0 1 .487-.877c.156-.172.336-.323.54-.452a3.44 3.44 0 0 1 .712-.334 5.39 5.39 0 0 1 .905-.22c.124-.022.253-.041.387-.057s.27-.027.41-.032a10.022 10.022 0 0 1 1.328-.017.903.903 0 0 0 .125.008 4.67 4.67 0 0 1 .306.028c.062.009.125.015.19.02.064.011.127.02.188.025a5.191 5.191 0 0 1 1.07.246c.267.093.504.205.713.333.204.13.384.28.54.451.155.172.281.365.378.58a2.834 2.834 0 0 1 .193.612 3.29 3.29 0 0 1 .048.986 3.29 3.29 0 0 1-.128.64c-.032.101-.07.2-.113.297a2.27 2.27 0 0 1-.378.584 2.526 2.526 0 0 1-.54.455 3.52 3.52 0 0 1-.712.33 5.465 5.465 0 0 1-.89.217c-.08.01-.162.019-.245.024a4.25 4.25 0 0 0-.254.024.943.943 0 0 0-.124.008.943.943 0 0 1-.125.008c-.129.011-.255.02-.378.025l-.37.016a11.102 11.102 0 0 1-.838-.032 6.473 6.473 0 0 1-.398-.029 13.748 13.748 0 0 1-.383-.044v-.008Zm6.368-.958h3.573c.183.006.356-.003.52-.024.163-.021.318-.054.462-.097a.607.607 0 0 0 .326-.209.6.6 0 0 0 .11-.37.556.556 0 0 0-.11-.35.662.662 0 0 0-.326-.214 2.714 2.714 0 0 0-.462-.108 3.558 3.558 0 0 0-.52-.036l-2.881-.009v-.99h2.833a3.135 3.135 0 0 0 .982-.12.618.618 0 0 0 .326-.206.57.57 0 0 0 .109-.358.587.587 0 0 0-.109-.362.607.607 0 0 0-.326-.21 3.002 3.002 0 0 0-.463-.096 3.995 3.995 0 0 0-.519-.032l-3.525-.008v-.99h4.17c.305.005.6.024.885.056.284.032.552.078.804.137.253.059.469.16.648.302.18.142.318.323.415.543.091.21.134.401.129.576a.831.831 0 0 1-.17.479 2.162 2.162 0 0 1-.414.414 4.036 4.036 0 0 1-.608.382c.124.054.243.11.359.166.115.056.221.116.318.18a1.086 1.086 0 0 1 .454.632c.014.046.026.09.037.133a.59.59 0 0 1 .016.133v.133a.693.693 0 0 1-.016.153c0 .01-.002.023-.004.036a.187.187 0 0 0-.004.036 1.88 1.88 0 0 1-.049.17l-.016.048a1.242 1.242 0 0 1-.362.51 1.686 1.686 0 0 1-.628.327c-.252.08-.514.14-.785.177a6.062 6.062 0 0 1-.833.056h-4.346v-.99Zm-38.412-67.1h1.819v2.777l3.421-2.777h2.181l-3.477 2.826 3.518 2.954H18.95l-3.308-2.874v2.874h-1.82v-5.78Zm8.057 1.538h3.445c.183.005.364.015.544.028.18.013.353.034.519.06a2.121 2.121 0 0 1 .926.347 1.229 1.229 0 0 1 .483.531c.048.102.084.205.108.31.024.104.036.21.036.318v2.648h-4.515c-.328 0-.616-.03-.866-.089a1.862 1.862 0 0 1-.631-.265 1.168 1.168 0 0 1-.379-.43 1.03 1.03 0 0 1-.088-.568c.027-.253.107-.462.241-.628.134-.167.322-.287.564-.363a4.74 4.74 0 0 1 .792-.169c.288-.037.6-.056.938-.056l2.206-.008a.693.693 0 0 0-.089-.423.548.548 0 0 0-.322-.229 2.944 2.944 0 0 0-.495-.097 5.377 5.377 0 0 0-.616-.032l-2.8-.008v-.877Zm2.238 3.389h2.1v-.878h-1.98a.065.065 0 0 1-.027.008h-.069a3.892 3.892 0 0 0-.33.028 2.168 2.168 0 0 0-.298.06.404.404 0 0 0-.225.126.337.337 0 0 0-.08.229.37.37 0 0 0 .048.25c.043.064.112.104.209.12.097.022.2.038.31.049.11.01.224.016.342.016v-.008Zm5.296-3.39h6.448c.413.006.78.037 1.099.093.32.057.597.139.833.246.23.107.405.263.523.467.118.204.18.456.185.756v2.68h-1.69v-2.543c0-.198-.032-.354-.097-.467a.444.444 0 0 0-.29-.217 2.652 2.652 0 0 0-.47-.068 7.357 7.357 0 0 0-.729-.008.462.462 0 0 1-.056.004h-.387v3.3H33.07v-3.308h-1.964v3.308h-1.69v-4.242Zm10.593 0h3.236c.473.006.895.055 1.268.146s.691.225.954.402c.268.183.475.396.62.64.145.244.228.522.25.833.01.145.005.286-.017.423a2.407 2.407 0 0 1-.104.414 1.818 1.818 0 0 1-.556.74 2.282 2.282 0 0 1-1.135.532 7.293 7.293 0 0 1-.672.085 8.88 8.88 0 0 1-.712.028h-1.45v1.53h-1.682v-5.772Zm1.683.918v2.415c.01 0 .023.002.036.004a.226.226 0 0 0 .044.004h.242c.386.006.736-.005 1.05-.032.314-.027.592-.067.833-.12a.819.819 0 0 0 .536-.379c.115-.193.167-.459.157-.797-.011-.284-.077-.507-.198-.668a.815.815 0 0 0-.527-.306 6.633 6.633 0 0 0-.76-.092 13.288 13.288 0 0 0-.898-.029c-.032 0-.063.002-.093.004a.935.935 0 0 1-.084.005h-.338v-.009Zm8.395 0h-1.022v2.415a1.559 1.559 0 0 0 .241.016h.25c.28.006.549.002.809-.012.26-.013.511-.039.753-.076.241-.032.429-.118.563-.258.134-.14.22-.33.258-.571v-.049c0-.016.002-.032.008-.048v-.096c0-.017.001-.033.004-.049a.347.347 0 0 0 .004-.056.26.26 0 0 1 .004-.048.293.293 0 0 0 .004-.049 4.912 4.912 0 0 1-.032-.177 4.912 4.912 0 0 1-.017-.084.855.855 0 0 0-.105-.25c-.031-.05-.069-.1-.112-.149a1.126 1.126 0 0 0-.31-.257 1.13 1.13 0 0 0-.382-.13 4.904 4.904 0 0 0-.43-.047 6.97 6.97 0 0 0-.488-.016v-.009Zm-1.022-2.455v1.538h1.449c.241.005.479.017.712.036.234.019.458.05.672.093a2.282 2.282 0 0 1 1.135.531c.135.113.247.23.338.354.092.123.164.255.218.394.048.135.083.271.104.411.022.14.027.279.017.419-.022.31-.105.59-.25.837a1.941 1.941 0 0 1-.62.636c-.263.177-.58.31-.954.398a5.507 5.507 0 0 1-1.267.133h-3.236v-5.78h1.682Zm5.812 1.538h3.445c.182.005.363.015.543.028.18.013.353.034.52.06a2.121 2.121 0 0 1 .925.347 1.229 1.229 0 0 1 .483.531 1.41 1.41 0 0 1 .145.628v2.648H56.42c-.327 0-.616-.03-.865-.089a1.862 1.862 0 0 1-.632-.265 1.168 1.168 0 0 1-.378-.43 1.03 1.03 0 0 1-.089-.568c.027-.253.107-.462.242-.628.134-.167.322-.287.563-.363a4.74 4.74 0 0 1 .793-.169c.287-.037.6-.056.938-.056l2.205-.008a.693.693 0 0 0-.088-.423.548.548 0 0 0-.322-.229 2.944 2.944 0 0 0-.495-.097 5.377 5.377 0 0 0-.616-.032l-2.801-.008v-.877Zm2.237 3.389h2.101v-.878h-1.98a.065.065 0 0 1-.028.008h-.068a3.892 3.892 0 0 0-.33.028 2.168 2.168 0 0 0-.298.06.404.404 0 0 0-.226.126.337.337 0 0 0-.08.229.37.37 0 0 0 .048.25c.043.064.113.104.21.12.096.022.2.038.31.049.11.01.223.016.341.016v-.008Zm5.297-3.39h2.825c.451.006.81.042 1.075.11.265.067.433.17.503.31.075.134.129.293.16.478.033.185.05.393.05.624v.266l-1.61-.008v-.177a2.35 2.35 0 0 0-.037-.463c-.024-.116-.06-.19-.109-.222-.048-.032-.154-.056-.318-.072a7.37 7.37 0 0 0-.68-.024h-.185v3.42H62.41v-4.241Zm5.047 0h1.183V13.97h1.674v1.538h1.78v.845h-1.78v1.715c-.005.214.029.383.101.507a.486.486 0 0 0 .334.233c.145.038.32.064.527.08.207.017.442.025.705.025h.112v.837h-1.537a3.54 3.54 0 0 1-.837-.089 1.606 1.606 0 0 1-.596-.265 1.103 1.103 0 0 1-.366-.419 1.242 1.242 0 0 1-.117-.547v-2.077h-1.183v-.845ZM35.042 9.036c0-.558.066-1.036.197-1.433.132-.397.329-.716.592-.958.268-.241.692-.422 1.272-.543.58-.12 1.314-.18 2.205-.18l2.777-.009v1.006h-2.938a5.815 5.815 0 0 0-.998.089c-.279.053-.51.134-.692.241a1.034 1.034 0 0 0-.419.427 1.614 1.614 0 0 0-.169.66l5.216-.008v.998H36.87v2.366h-1.827V9.036Zm8.057-3.123h1.82V8.69l3.42-2.777h2.182l-3.477 2.825 3.517 2.954h-2.334L44.919 8.82v2.873h-1.82v-5.78Z" fill="#FFF"/><path d="M62.98 34.688c-.754-.294-.922-1.384-.922-1.384l1.468-.042c0 1.049-.545 1.426-.545 1.426m.796-9.265c-3.889-2.08-4.024-7.42-9.81-7.798-5.16-.337-6.205 1.174-11.655 1.3-5.333.123-7.127 3.27-7.714 4.988-.587 1.72-.775 3.626-6.225 5.387l5.261 3.962 16.853 3.019 11.325.763 4.218.354 7.39-7.594c.078-2.872-5.408-2.117-9.643-4.381" fill="#D9222A" fill-rule="nonzero"/><path d="M62.98 34.688c-.754-.294-.922-1.384-.922-1.384l1.468-.042c0 1.049-.545 1.426-.545 1.426Zm-9.013-17.063c-5.16-.337-6.205 1.174-11.655 1.3-5.333.123-7.127 3.27-7.714 4.988-.587 1.72-.775 3.626-6.225 5.387l5.261 3.962 16.853 3.019 11.325.763 4.218.354 7.39-7.594c.078-2.872-5.408-2.117-9.643-4.381-3.889-2.08-4.024-7.42-9.81-7.798Z" stroke="#1A1918"/><path d="m56.273 34.227 1.97-1.593c-2.305.503-10.648-.126-10.648-.126m-5.576-6.038s1.593 3.02 7.001 3.02" stroke="#1A1918"/><path d="M46.924 25.842s-1.342 2.306 2.096 3.647c0 0 10.397 5.031 16.56 3.396m-7.085-8.888 2.138 1.468m-2.348-4.528s.797 3.06 4.318 4.78" stroke="#1A1918"/><path d="m67.467 36.258-.168-.019s-4.821-.587-5.115-.629c-.293-.042-.587-.335-1.174-.126 0 0-.545-.796-2.012.252 0 0-.755-1.425-2.515-.335 0 0-1.007-1.72-4.444.293 0 0-1.09-.88-2.432-.126 0 0-1.09-1.174-2.767-.335 0 0 .755-2.85-4.821-.964 0 0-.671-1.048-2.558-.252 0 0-.88-1.97-3.773-.922 0 0 .587-1.006-2.473-.671 0 0 1.635-1.258-1.132-1.132 0 0 1.593-1.342-1.384-.67 0 0 1.677-2.558-3.73-.965 0 0-2.223-1.258-3.187-.252-.964 1.007 1.048 1.51 1.048 1.51-.88.167-2.432.419-.964 1.216-.88.125-1.593.125-2.096.628-.378.378.712.755.712.755-1.048.168-1.76.503-1.719 1.048.042.545 1.342.88 1.342.88-.964.378-2.6 1.007-1.216 1.3-.964.461-3.102 1.258-2.935 2.222.168.964 3.145.252 4.235.126-.168.126-.587 1.048 1.132.251.293.294 1.005.517 2.128.107.744-.27.995-.002 1.341.176.346.179 1.059-.073 1.059-.073.125.377-.042 1.425 2.599 1.006 0 0 1.467.42 1.928.042.084.713.378 1.51 2.18 1.216 0 0 .294 2.264 3.228.922 0 0 1.174 1.468 1.845-.126 0 0 1.51 1.216 2.012-.083 0 0 .88.587 1.677.042 0 0-.503 1.718 1.803 1.718 1.933 0 1.929-.796 1.929-.796 0 1.006 2.012 2.431 4.276-.126 0 0 1.341.922 2.222.042 0 0-.168 1.677 1.803.755 0 0 1.635 1.509 3.186-.084 0 0 .67.713 1.174 0 0 0 1.425 1.09 2.809 0 0 0 5.324 1.09 4.57-.964 0 0 2.012-.084-.504-1.552 0 0 3.983-1.215.21-2.683 0 0 1.844-.46.629-1.467 0 0 2.95-.808.042-1.155" fill="#FFF" fill-rule="nonzero"/><path d="M67.467 36.258a11.71 11.71 0 0 0-.168-.019s-4.821-.587-5.115-.629c-.293-.042-.587-.335-1.174-.126 0 0-.545-.796-2.012.252 0 0-.755-1.425-2.515-.335 0 0-1.007-1.72-4.444.293 0 0-1.09-.88-2.432-.126 0 0-1.09-1.174-2.767-.335 0 0 .755-2.85-4.821-.964 0 0-.671-1.048-2.558-.252 0 0-.88-1.97-3.773-.922 0 0 .587-1.006-2.473-.671 0 0 1.635-1.258-1.132-1.132 0 0 1.593-1.342-1.384-.67 0 0 1.677-2.558-3.73-.965 0 0-2.223-1.258-3.187-.252-.964 1.007 1.048 1.51 1.048 1.51-.88.167-2.432.419-.964 1.216-.88.125-1.593.125-2.096.628-.378.378.712.755.712.755-1.048.168-1.76.503-1.719 1.048.042.545 1.342.88 1.342.88-.964.378-2.6 1.007-1.216 1.3-.964.461-3.102 1.258-2.935 2.222.168.964 3.145.252 4.235.126-.168.126-.587 1.048 1.132.251.293.294 1.005.517 2.128.107.744-.27.995-.002 1.341.176.346.179 1.059-.073 1.059-.073.125.377-.042 1.425 2.599 1.006 0 0 1.467.42 1.928.042.084.713.378 1.51 2.18 1.216 0 0 .294 2.264 3.228.922 0 0 1.174 1.468 1.845-.126 0 0 1.51 1.216 2.012-.083 0 0 .88.587 1.677.042 0 0-.503 1.718 1.803 1.718 1.933 0 1.929-.796 1.929-.796 0 1.006 2.012 2.431 4.276-.126 0 0 1.341.922 2.222.042 0 0-.168 1.677 1.803.755 0 0 1.635 1.509 3.186-.084 0 0 .67.713 1.174 0 0 0 1.425 1.09 2.809 0 0 0 5.324 1.09 4.57-.964 0 0 2.012-.084-.504-1.552 0 0 3.983-1.215.21-2.683 0 0 1.844-.46.629-1.467 0 0 2.95-.808.042-1.155" stroke="#1A1918"/><path d="m68.654 34.701-2.026 2.082s-5.484 4.84-.598 9.099h-1.288s-5.786-4.314-2.93-9.14l1.33-2.215" fill="#D9222A" fill-rule="nonzero"/><path d="m68.654 34.7-2.026 2.083s-5.484 4.84-.598 9.099h-1.288s-5.786-4.314-2.93-9.14l1.33-2.215" stroke="#1A1918"/><path d="M63.987 45.42s-3.083-.37-3.144-.083c-.126.586 1.3.754 1.278.922-.02.168-3.752.629-3.752 1.278 0 .525 4.423.21 4.046.545-.377.336-3.019 1.992-2.39 2.055.63.063 2.704-.21 2.6-.042-.105.167-1.915 2.21-1.101 2.505 1.184.43 3.096-1.17 3.17-1.017.138.285.278 2.914 1.766 2.704 1.489-.21 1.3-1.467 1.468-1.425.167.042 1.76 1.446 2.327 1.006.565-.44.167-1.32.251-1.404.084-.084 1.593.691 2.18.062 0 0-.734-.733-.524-.733.21 0 3.029.892 3.029.241 0-.797-1.645-1.352-1.31-1.331.335.02 3.107.708 2.746-.231-.524-1.362-3.48-1.614-3.144-1.76.335-.147 3.15-.115 2.871-.818-.293-.738-3.563-.88-3.29-1.048.272-.168 3.702-.993 2.767-1.929-1.017-1.016-4.717.336-4.864.126-.147-.21 1.518-1.33.545-1.488-1.153-.189-2.515 1.173-2.452.922.063-.252.88-1.698.042-1.698-.378 0-.493-.073-1.772.933-1.278 1.006-.936 1.558-1.586 1.579-.65.021-1.296.066-1.757.13" fill="#FFF" fill-rule="nonzero"/><path d="M63.987 45.42s-3.083-.37-3.144-.083c-.126.586 1.3.754 1.278.922-.02.168-3.752.629-3.752 1.278 0 .525 4.423.21 4.046.545-.377.336-3.019 1.992-2.39 2.055.63.063 2.704-.21 2.6-.042-.105.167-1.915 2.21-1.101 2.505 1.184.43 3.096-1.17 3.17-1.017.138.285.278 2.914 1.766 2.704 1.489-.21 1.3-1.467 1.468-1.425.167.042 1.76 1.446 2.327 1.006.565-.44.167-1.32.251-1.404.084-.084 1.593.691 2.18.062 0 0-.734-.733-.524-.733.21 0 3.029.892 3.029.241 0-.797-1.645-1.352-1.31-1.331.335.02 3.107.708 2.746-.231-.524-1.362-3.48-1.614-3.144-1.76.335-.147 3.15-.115 2.871-.818-.293-.738-3.563-.88-3.29-1.048.272-.168 3.702-.993 2.767-1.929-1.017-1.016-4.717.336-4.864.126-.147-.21 1.518-1.33.545-1.488-1.153-.189-2.515 1.173-2.452.922.063-.252.88-1.698.042-1.698-.378 0-.493-.073-1.772.933-1.278 1.006-.936 1.558-1.586 1.579-.65.021-1.296.066-1.757.13Z" stroke="#1A1918"/></g></svg>