<svg xmlns="http://www.w3.org/2000/svg" width="86" height="101" viewBox="0 0 86 101"><g fill="none" fill-rule="evenodd"><path fill="#1A1918" fill-rule="nonzero" d="M42.965 100.97c6.875 0 22.974-14.758 29.85-24.149 6.875-9.39 13.08-22.135 13.08-39.24 0-.671-.755-22.555-5.031-26.832C76.588 6.473 62.039.017 42.964.017S9.343 6.473 5.066 10.749C.79 15.026.035 36.91.035 37.581c0 17.105 6.204 29.85 13.08 39.24 6.875 9.391 22.974 24.149 29.85 24.149"/><path fill="#D9222A" fill-rule="nonzero" d="M42.965 99.963c6.714 0 22.436-14.463 29.15-23.666s12.774-21.695 12.774-38.459c0-.657-.737-22.105-4.913-26.296C75.799 7.35 61.592 1.023 42.965 1.023S10.13 7.35 5.954 11.542C1.778 15.732 1.04 37.18 1.04 37.838c0 16.764 6.059 29.255 12.773 38.459C20.53 85.5 36.25 99.963 42.964 99.963"/><path fill="#1A1918" fill-rule="nonzero" d="M42.965 98.957c6.553 0 21.897-14.169 28.45-23.185 6.553-9.017 12.467-21.253 12.467-37.677 0-.644-.72-21.655-4.795-25.76C75.012 8.227 61.145 2.028 42.965 2.028s-32.047 6.2-36.123 10.306-4.795 25.117-4.795 25.761c0 16.424 5.914 28.66 12.467 37.677s21.897 23.185 28.45 23.185"/><path fill="#D9222A" fill-rule="nonzero" d="M27.87 88.847c-3.662-3.25-7.248-6.936-10.06-10.29V7.413c2.9-1.104 6.284-2.11 10.062-2.879zm15.095 9.104c-1.35 0-3.081-.618-5.034-1.677l.003-93.076a78 78 0 0 1 10.062 0v93.077c-1.952 1.058-3.683 1.676-5.031 1.676m15.093-9.103c3.663-3.25 7.25-6.936 10.061-10.291V7.413c-2.9-1.104-6.284-2.11-10.061-2.879z"/><path fill="#1A1918" fill-rule="nonzero" d="M66.718 47.694c.863 12.848-9.599 23.991-22.955 24.888s-23.875-8.79-24.739-21.638c-.863-12.848 8.258-23.655 21.613-24.552 13.356-.898 25.217 8.455 26.081 21.302"/><path fill="#FFF" fill-rule="nonzero" d="M52.794 29.733c-1.473-.054-2.91.076-4.267.442l-.044-.009c-2.387-.464-4.64-.901-7.34-.7q-.018.005-.036.014c-1.727-.788-3.397-1.39-4.89-1.782 5.695-1.414 11.806-.667 16.577 2.035M21.817 59.987c1.24 1.036 2.476 1.575 3.735 2.063 1.735 2.368 4.232 4.365 7.632 6.105.298.878.757 1.877 1.236 2.711-4.994-1.593-10.335-7.125-12.603-10.88"/><path fill="#FFF" fill-rule="nonzero" d="m40.533 65.372.532-.231c.81-2.75 1.264-4.992 1.038-7.588-2.71-1.708-5.518-3.597-7.647-6.143l-4.443 1.147-2.716.711-.079.243-.033.103c-.792 2.484-1.539 5.364-1.414 8.276 1.71 2.334 4.18 4.307 7.544 6.026 2.37-.414 4.348-1.285 6.26-2.128zm6.575 6.07c1.12-.801 1.933-1.577 2.646-2.553 2.883-.82 5.173-2.356 7.414-4.97l.486-.032c.974-.06 2.054-.138 3.025-.492-3.381 3.975-7.941 6.678-13.571 8.047m18.758-17.818c-.634-1.89-1.215-3.367-2.203-4.498-.298-3.663-1.117-6.29-2.814-9.044.157-.84.204-1.756.144-2.642a9.3 9.3 0 0 0-.38-2.06c2.742 2.485 5.116 7.344 5.497 13.011a23.5 23.5 0 0 1-.244 5.233M38.437 42.866v.017c.006.073.063.13.134.133l9.235.48 1.485 8.37a.144.144 0 0 0 .165.115.145.145 0 0 0 .116-.165l-1.505-8.481a.14.14 0 0 0-.133-.118l-9.347-.485a.144.144 0 0 0-.15.134M35.55 27.914a.2.2 0 0 0-.012.065c.004.054.038.1.088.122l2.887 1.212c-.163.19-3.16 3.622-3.16 3.622-.02.024-.042.055-.04.084q0 .01.006.02l.049.097c.01.023.018.037.042.045.023.008.038.001.06-.01l.099-.05 3.288-3.769a.2.2 0 0 0 .032-.127.14.14 0 0 0-.083-.098l-3.07-1.29a.145.145 0 0 0-.187.077"/><path fill="#FFF" fill-rule="nonzero" d="m56.823 63.903.159-.18c.765-2.542 1.123-5.492 1.016-8.328-2.26-.677-4.547-1.614-7.18-2.942-2.775 2.145-5.69 3.9-8.444 5.087q.013.152.023.301c.168 2.498-.286 4.691-1.066 7.346q.137.107.274.211c2.625 2.017 5.195 3.051 8.052 3.238 2.78-.787 5-2.253 7.166-4.733m1.171-8.897.45.141c2.544-1.616 3.844-3.845 4.95-5.995-.295-3.626-1.104-6.223-2.784-8.943-2.473-1.648-4.519-2.086-7.617-2.334-1.25 1.795-2.545 3.387-3.857 4.733.052.158.102.327.152.49.768 2.454 1.077 5.434 1.624 9.101 2.468 1.246 4.964 2.143 7.082 2.807m-9.193-12.605.136.026c1.304-1.337 2.593-2.92 3.836-4.707-1.317-2.795-2.567-5.43-4.317-7.285l-.024-.005c-2.369-.46-4.605-.894-7.232-.704-2.423.885-4.444 2.762-6.175 5.732l.04.096c.978 2.34 2.901 5.012 3.737 6.12 3.256-.188 6.618.057 10 .727m-14.816 8.852.319-.089s2.577-6.572 4.265-9.35c-.861-1.142-2.812-3.86-3.785-6.227-2.645.078-5.233.625-8.13 1.719a40 40 0 0 0-3.717 9.08l-.078.488c.989 2.554 2.475 4.664 4.363 6.135l2.722-.712z"/><path fill="#FFF" fill-rule="nonzero" d="M25.995 33.36c-4.439 4.81-6.494 10.425-6.428 17.573.758-1.282 1.582-2.464 2.393-3.597l.712-1 .01-.039c.852-3.14 2.104-6.2 3.724-9.097a16 16 0 0 1-.21-1.73 21 21 0 0 1-.01-2.323q-.096.106-.19.213"/><path fill="#555D5B" fill-rule="nonzero" d="M41.784 63.558c-.389.242-10.293 6.356-18.938 5.556-6.471-.598-9.344-8.324-8.962-12.449.453-4.907 3.458-7.93 3.458-7.93S14.408 60.3 21.556 60.962c5.903.546 6.082-6.431 14.404-5.662 5.065.469 6.188 2.999 6.288 3.252.152-.24 1.724-2.509 6.778-2.042 8.322.77 7.218 7.661 13.121 8.207 7.148.661 6.384-11.245 6.384-11.245s2.4 3.522 1.946 8.43c-.381 4.124-4.621 11.192-11.093 10.593-8.665-.8-17.301-8.662-17.6-8.936"/><path fill="#FFF" d="M25.544 80.322q0-.234.044-.44a1.6 1.6 0 0 1 .133-.381.9.9 0 0 1 .306-.339 2.5 2.5 0 0 1 .555-.281q.218-.08.455-.13.237-.047.487-.072a11 11 0 0 1 1.022-.048h.572q.065 0 .128.004.064.004.13.004h.51q.125 0 .254-.008.258-.008.45-.064a.9.9 0 0 0 .323-.161.6.6 0 0 0 .177-.25.6.6 0 0 0 .016-.314.56.56 0 0 0-.157-.322.6.6 0 0 0-.334-.153 5 5 0 0 0-.447-.06 5 5 0 0 0-.47-.02l-4.154-.008v-.998h4.54a.2.2 0 0 0 .056.008h.45q.097 0 .19.004t.189.004q.096.008.19.012l.188.012q.194.016.375.056.18.04.35.105.274.105.47.246.197.14.327.326.13.177.2.37.074.193.09.386v.048q.031.444-.125.777a1.44 1.44 0 0 1-.487.568 2.4 2.4 0 0 1-.833.35q-.495.117-1.164.117l-1.642-.008q-.54.008-.853.092-.314.084-.402.246-.089.16-.125.382a2.7 2.7 0 0 0-.028.503v.193l5.626-.008v.99h-7.582zm14.304.426q.16-.113.281-.278.12-.165.21-.382.088-.217.128-.443a2.6 2.6 0 0 0 0-.913 2.2 2.2 0 0 0-.128-.439 2 2 0 0 0-.21-.386 1.3 1.3 0 0 0-.281-.29 1.7 1.7 0 0 0-.355-.197 3 3 0 0 0-.434-.141 3.5 3.5 0 0 0-.483-.08 5 5 0 0 0-.507-.025 4.3 4.3 0 0 0-.974.113q-.234.056-.431.137a1.44 1.44 0 0 0-.628.483 1.8 1.8 0 0 0-.213.386 2.4 2.4 0 0 0-.117.439 2.8 2.8 0 0 0 0 .913q.036.225.117.443.088.217.213.382t.286.286q.153.113.35.197.197.085.43.141.234.057.484.08.249.025.499.025.257 0 .499-.028.24-.028.475-.085.233-.056.434-.14t.355-.19zm-3.309 1.28a6 6 0 0 1-.905-.213 3.2 3.2 0 0 1-.713-.326 2.4 2.4 0 0 1-.539-.447 2.3 2.3 0 0 1-.487-.89 9 9 0 0 1-.085-.313 3.3 3.3 0 0 1-.048-.986q.016-.166.048-.326.04-.162.085-.314.045-.153.109-.298.144-.322.378-.58.233-.257.54-.45a3.4 3.4 0 0 1 .712-.335 5.4 5.4 0 0 1 .905-.22q.185-.033.387-.057.2-.024.41-.032a10 10 0 0 1 1.328-.017q.065.008.125.008t.125.009q.09.008.18.02.094.011.19.02.096.016.19.024.09.007.18.024.492.081.89.221.398.142.712.334.306.195.54.451.233.258.378.58a2.8 2.8 0 0 1 .193.612 3.3 3.3 0 0 1 .048.986 3.3 3.3 0 0 1-.129.64q-.048.151-.112.297a2.3 2.3 0 0 1-.379.584 2.5 2.5 0 0 1-.539.455q-.315.194-.712.33a5.5 5.5 0 0 1-.89.217q-.12.016-.245.024a4 4 0 0 0-.254.024 1 1 0 0 0-.125.008 1 1 0 0 1-.124.008q-.194.017-.379.025l-.37.016a11 11 0 0 1-.837-.032 7 7 0 0 1-.398-.029 14 14 0 0 1-.383-.044zm12.638-1.28q.16-.113.281-.278.12-.165.21-.382.089-.217.129-.443a2.6 2.6 0 0 0 0-.913 2.2 2.2 0 0 0-.13-.439 2 2 0 0 0-.209-.386 1.3 1.3 0 0 0-.281-.29 1.7 1.7 0 0 0-.354-.197 3 3 0 0 0-.435-.141 3.5 3.5 0 0 0-.483-.08 5 5 0 0 0-.507-.025 4.3 4.3 0 0 0-.974.113q-.234.056-.43.137a1.44 1.44 0 0 0-.629.483 1.8 1.8 0 0 0-.213.386 2.4 2.4 0 0 0-.117.439 2.8 2.8 0 0 0 0 .913q.036.225.117.443.09.217.213.382.126.165.286.286.153.113.35.197.198.085.43.141.235.057.484.08.25.025.499.025.258 0 .499-.028.242-.028.475-.085.233-.056.435-.14t.354-.19zm-3.309 1.28a6 6 0 0 1-.905-.213 3.2 3.2 0 0 1-.712-.326 2.4 2.4 0 0 1-.54-.447 2.3 2.3 0 0 1-.487-.89 9 9 0 0 1-.084-.313 3.3 3.3 0 0 1-.049-.986q.016-.166.049-.326.04-.162.084-.314.045-.153.109-.298.145-.322.378-.58.234-.257.54-.45a3.4 3.4 0 0 1 .712-.335 5.4 5.4 0 0 1 .905-.22q.186-.033.387-.057.2-.024.41-.032a10 10 0 0 1 1.328-.017q.065.008.125.008t.125.009q.089.008.181.02.093.011.19.02.096.016.188.024.093.007.182.024.49.081.889.221.399.142.712.334.306.195.54.451.233.258.378.58a2.8 2.8 0 0 1 .193.612 3.3 3.3 0 0 1 .048.986 3.3 3.3 0 0 1-.128.64q-.048.151-.113.297a2.3 2.3 0 0 1-.378.584 2.5 2.5 0 0 1-.54.455q-.313.194-.712.33a5.5 5.5 0 0 1-.89.217q-.12.016-.245.024a4 4 0 0 0-.254.024 1 1 0 0 0-.124.008 1 1 0 0 1-.125.008q-.194.017-.378.025l-.37.016a11 11 0 0 1-.838-.032 7 7 0 0 1-.398-.029 14 14 0 0 1-.383-.044zm6.368-.958h3.573q.274.008.52-.024.245-.032.462-.097a.6.6 0 0 0 .326-.209.6.6 0 0 0 .11-.37.56.56 0 0 0-.11-.35.66.66 0 0 0-.326-.214 3 3 0 0 0-.462-.108 4 4 0 0 0-.52-.036l-2.881-.009v-.99h2.833q.274.009.52-.024.245-.031.462-.096a.6.6 0 0 0 .326-.206.57.57 0 0 0 .109-.358.6.6 0 0 0-.109-.362.6.6 0 0 0-.326-.21 3 3 0 0 0-.463-.096 4 4 0 0 0-.519-.032l-3.525-.008v-.99h4.17q.457.008.885.056.426.048.804.137.38.089.648.302.27.213.415.543.136.314.129.576a.83.83 0 0 1-.17.479 2.2 2.2 0 0 1-.414.414 4 4 0 0 1-.608.382q.186.082.359.166.172.084.318.18a1.1 1.1 0 0 1 .454.632l.037.133q.015.065.016.133v.133a.7.7 0 0 1-.016.153q0 .016-.004.036l-.004.036a2 2 0 0 1-.049.17l-.016.048a1.24 1.24 0 0 1-.362.51q-.25.214-.628.327-.378.12-.785.177a6 6 0 0 1-.833.056h-4.346zm-38.412-67.1h1.819v2.777l3.421-2.777h2.181l-3.477 2.826 3.518 2.954H18.95l-3.308-2.874v2.874h-1.82zm8.057 1.538h3.445q.274.008.544.028t.519.06a2.1 2.1 0 0 1 .926.347q.177.112.293.245.117.133.19.286.072.153.108.31.036.156.036.318v2.648h-4.515q-.491 0-.866-.089a1.9 1.9 0 0 1-.631-.265 1.2 1.2 0 0 1-.379-.43 1.03 1.03 0 0 1-.088-.568q.04-.38.241-.628.201-.25.564-.363a5 5 0 0 1 .792-.169q.431-.056.938-.056l2.206-.008a.7.7 0 0 0-.089-.423.55.55 0 0 0-.322-.229 3 3 0 0 0-.495-.097 5 5 0 0 0-.616-.032l-2.8-.008zm2.238 3.389h2.1v-.878h-1.98l-.027.008h-.069a4 4 0 0 0-.33.028 2 2 0 0 0-.298.06.4.4 0 0 0-.225.126.34.34 0 0 0-.08.229.37.37 0 0 0 .048.25q.064.096.209.12.145.033.31.049.165.015.342.016zm5.296-3.39h6.448q.62.009 1.099.093.48.085.833.246.346.16.523.467.177.306.185.756v2.68h-1.69v-2.543q0-.297-.097-.467a.44.44 0 0 0-.29-.217 2.7 2.7 0 0 0-.47-.068 7 7 0 0 0-.729-.008l-.056.004h-.387v3.3H33.07v-3.308h-1.964v3.308h-1.69zm10.593 0h3.236q.709.01 1.268.146.56.136.954.402.402.274.62.64t.25.833q.016.218-.017.423a2.4 2.4 0 0 1-.104.414 1.8 1.8 0 0 1-.556.74 2.3 2.3 0 0 1-1.135.532 7 7 0 0 1-.672.085 9 9 0 0 1-.712.028h-1.45v1.53h-1.682zm1.683.918v2.415q.016 0 .036.004a.2.2 0 0 0 .044.004h.242q.579.009 1.05-.032.471-.04.833-.12a.82.82 0 0 0 .536-.379q.172-.29.157-.797-.017-.426-.198-.668a.82.82 0 0 0-.527-.306 7 7 0 0 0-.76-.092 13 13 0 0 0-.898-.029q-.048 0-.093.004l-.084.005h-.338zm8.395 0h-1.022v2.415a2 2 0 0 0 .241.016h.25q.42.009.809-.012t.753-.076q.362-.048.563-.258t.258-.571v-.049q0-.024.008-.048v-.096q0-.025.004-.049l.004-.056q0-.024.004-.048a.3.3 0 0 0 .004-.049l-.032-.177-.017-.084a.9.9 0 0 0-.105-.25q-.047-.075-.112-.149a1.1 1.1 0 0 0-.31-.257 1.1 1.1 0 0 0-.382-.13 5 5 0 0 0-.43-.047 7 7 0 0 0-.488-.016zm-1.022-2.455v1.538h1.449q.362.008.712.036.351.029.672.093.33.056.612.189.282.132.523.342.202.169.338.354.138.185.218.394.072.202.104.411.032.21.017.419-.033.466-.25.837a1.94 1.94 0 0 1-.62.636q-.394.266-.954.398a5.5 5.5 0 0 1-1.267.133h-3.236v-5.78zm5.812 1.538h3.445q.273.008.543.028t.52.06a2.1 2.1 0 0 1 .925.347q.177.112.294.245t.189.286.109.31q.036.156.036.318v2.648H56.42q-.491 0-.865-.089a1.9 1.9 0 0 1-.632-.265 1.2 1.2 0 0 1-.378-.43 1.03 1.03 0 0 1-.089-.568q.04-.38.242-.628.201-.25.563-.363a5 5 0 0 1 .793-.169q.43-.056.938-.056l2.205-.008a.7.7 0 0 0-.088-.423.55.55 0 0 0-.322-.229 3 3 0 0 0-.495-.097 5 5 0 0 0-.616-.032l-2.801-.008zm2.237 3.389h2.101v-.878h-1.98a.1.1 0 0 1-.028.008h-.068a4 4 0 0 0-.33.028 2 2 0 0 0-.298.06.4.4 0 0 0-.226.126.34.34 0 0 0-.08.229.37.37 0 0 0 .048.25q.064.096.21.12.145.033.31.049.164.015.341.016zm5.297-3.39h2.825q.677.009 1.075.11.398.1.503.31.113.2.16.478.05.277.05.624v.266l-1.61-.008v-.177q0-.29-.037-.463-.036-.174-.109-.222-.072-.048-.318-.072a7 7 0 0 0-.68-.024h-.185v3.42H62.41zm5.047 0h1.183V13.97h1.674v1.538h1.78v.845h-1.78v1.715q-.007.321.101.507a.5.5 0 0 0 .334.233q.217.056.527.08.31.025.705.025h.112v.837h-1.537q-.475 0-.837-.089a1.6 1.6 0 0 1-.596-.265 1.1 1.1 0 0 1-.366-.419 1.24 1.24 0 0 1-.117-.547v-2.077h-1.183zM35.042 9.036q0-.837.197-1.433.198-.595.592-.958.402-.362 1.272-.543.87-.18 2.205-.18l2.777-.009v1.006h-2.938q-.58.009-.998.089t-.692.241a1.03 1.03 0 0 0-.419.427 1.6 1.6 0 0 0-.169.66l5.216-.008v.998H36.87v2.366h-1.827zm8.057-3.123h1.82V8.69l3.42-2.777h2.182l-3.477 2.825 3.517 2.954h-2.334L44.919 8.82v2.873h-1.82z"/><path fill="#D9222A" fill-rule="nonzero" d="M62.98 34.688c-.754-.294-.922-1.384-.922-1.384l1.468-.042c0 1.049-.545 1.426-.545 1.426m.796-9.265c-3.889-2.08-4.024-7.42-9.81-7.798-5.16-.337-6.205 1.174-11.655 1.3-5.333.123-7.127 3.27-7.714 4.988-.587 1.72-.775 3.626-6.225 5.387l5.261 3.962 16.853 3.019 11.325.763 4.218.354 7.39-7.594c.078-2.872-5.408-2.117-9.643-4.381"/><path stroke="#1A1918" d="M62.98 34.688c-.754-.294-.922-1.384-.922-1.384l1.468-.042c0 1.049-.545 1.426-.545 1.426Zm-9.013-17.063c-5.16-.337-6.205 1.174-11.655 1.3-5.333.123-7.127 3.27-7.714 4.988-.587 1.72-.775 3.626-6.225 5.387l5.261 3.962 16.853 3.019 11.325.763 4.218.354 7.39-7.594c.078-2.872-5.408-2.117-9.643-4.381-3.889-2.08-4.024-7.42-9.81-7.798Z"/><path stroke="#1A1918" d="m56.273 34.227 1.97-1.593c-2.305.503-10.648-.126-10.648-.126m-5.576-6.038s1.593 3.02 7.001 3.02"/><path stroke="#1A1918" d="M46.924 25.842s-1.342 2.306 2.096 3.647c0 0 10.397 5.031 16.56 3.396m-7.085-8.888 2.138 1.468m-2.348-4.528s.797 3.06 4.318 4.78"/><path fill="#FFF" fill-rule="nonzero" d="m67.467 36.258-.168-.019s-4.821-.587-5.115-.629c-.293-.042-.587-.335-1.174-.126 0 0-.545-.796-2.012.252 0 0-.755-1.425-2.515-.335 0 0-1.007-1.72-4.444.293 0 0-1.09-.88-2.432-.126 0 0-1.09-1.174-2.767-.335 0 0 .755-2.85-4.821-.964 0 0-.671-1.048-2.558-.252 0 0-.88-1.97-3.773-.922 0 0 .587-1.006-2.473-.671 0 0 1.635-1.258-1.132-1.132 0 0 1.593-1.342-1.384-.67 0 0 1.677-2.558-3.73-.965 0 0-2.223-1.258-3.187-.252s1.048 1.51 1.048 1.51c-.88.167-2.432.419-.964 1.216-.88.125-1.593.125-2.096.628-.378.378.712.755.712.755-1.048.168-1.76.503-1.719 1.048.042.545 1.342.88 1.342.88-.964.378-2.6 1.007-1.216 1.3-.964.461-3.102 1.258-2.935 2.222.168.964 3.145.252 4.235.126-.168.126-.587 1.048 1.132.251.293.294 1.005.517 2.128.107.744-.27.995-.002 1.341.176.346.179 1.059-.073 1.059-.073.125.377-.042 1.425 2.599 1.006 0 0 1.467.42 1.928.042.084.713.378 1.51 2.18 1.216 0 0 .294 2.264 3.228.922 0 0 1.174 1.468 1.845-.126 0 0 1.51 1.216 2.012-.083 0 0 .88.587 1.677.042 0 0-.503 1.718 1.803 1.718 1.933 0 1.929-.796 1.929-.796 0 1.006 2.012 2.431 4.276-.126 0 0 1.341.922 2.222.042 0 0-.168 1.677 1.803.755 0 0 1.635 1.509 3.186-.084 0 0 .67.713 1.174 0 0 0 1.425 1.09 2.809 0 0 0 5.324 1.09 4.57-.964 0 0 2.012-.084-.504-1.552 0 0 3.983-1.215.21-2.683 0 0 1.844-.46.629-1.467 0 0 2.95-.808.042-1.155"/><path stroke="#1A1918" d="m67.467 36.258-.168-.019s-4.821-.587-5.115-.629c-.293-.042-.587-.335-1.174-.126 0 0-.545-.796-2.012.252 0 0-.755-1.425-2.515-.335 0 0-1.007-1.72-4.444.293 0 0-1.09-.88-2.432-.126 0 0-1.09-1.174-2.767-.335 0 0 .755-2.85-4.821-.964 0 0-.671-1.048-2.558-.252 0 0-.88-1.97-3.773-.922 0 0 .587-1.006-2.473-.671 0 0 1.635-1.258-1.132-1.132 0 0 1.593-1.342-1.384-.67 0 0 1.677-2.558-3.73-.965 0 0-2.223-1.258-3.187-.252s1.048 1.51 1.048 1.51c-.88.167-2.432.419-.964 1.216-.88.125-1.593.125-2.096.628-.378.378.712.755.712.755-1.048.168-1.76.503-1.719 1.048.042.545 1.342.88 1.342.88-.964.378-2.6 1.007-1.216 1.3-.964.461-3.102 1.258-2.935 2.222.168.964 3.145.252 4.235.126-.168.126-.587 1.048 1.132.251.293.294 1.005.517 2.128.107.744-.27.995-.002 1.341.176.346.179 1.059-.073 1.059-.073.125.377-.042 1.425 2.599 1.006 0 0 1.467.42 1.928.042.084.713.378 1.51 2.18 1.216 0 0 .294 2.264 3.228.922 0 0 1.174 1.468 1.845-.126 0 0 1.51 1.216 2.012-.083 0 0 .88.587 1.677.042 0 0-.503 1.718 1.803 1.718 1.933 0 1.929-.796 1.929-.796 0 1.006 2.012 2.431 4.276-.126 0 0 1.341.922 2.222.042 0 0-.168 1.677 1.803.755 0 0 1.635 1.509 3.186-.084 0 0 .67.713 1.174 0 0 0 1.425 1.09 2.809 0 0 0 5.324 1.09 4.57-.964 0 0 2.012-.084-.504-1.552 0 0 3.983-1.215.21-2.683 0 0 1.844-.46.629-1.467 0 0 2.95-.808.042-1.155"/><path fill="#D9222A" fill-rule="nonzero" d="m68.654 34.701-2.026 2.082s-5.484 4.84-.598 9.099h-1.288s-5.786-4.314-2.93-9.14l1.33-2.215"/><path stroke="#1A1918" d="m68.654 34.7-2.026 2.083s-5.484 4.84-.598 9.099h-1.288s-5.786-4.314-2.93-9.14l1.33-2.215"/><path fill="#FFF" fill-rule="nonzero" d="M63.987 45.42s-3.083-.37-3.144-.083c-.126.586 1.3.754 1.278.922-.02.168-3.752.629-3.752 1.278 0 .525 4.423.21 4.046.545s-3.019 1.992-2.39 2.055c.63.063 2.704-.21 2.6-.042s-1.915 2.21-1.101 2.505c1.184.43 3.096-1.17 3.17-1.017.138.285.278 2.914 1.766 2.704 1.489-.21 1.3-1.467 1.468-1.425s1.76 1.446 2.327 1.006c.565-.44.167-1.32.251-1.404s1.593.691 2.18.062c0 0-.734-.733-.524-.733s3.029.892 3.029.241c0-.797-1.645-1.352-1.31-1.331.335.02 3.107.708 2.746-.231-.524-1.362-3.48-1.614-3.144-1.76.335-.147 3.15-.115 2.871-.818-.293-.738-3.563-.88-3.29-1.048.272-.168 3.702-.993 2.767-1.929-1.017-1.016-4.717.336-4.864.126s1.518-1.33.545-1.488c-1.153-.189-2.515 1.173-2.452.922.063-.252.88-1.698.042-1.698-.378 0-.493-.073-1.772.933s-.936 1.558-1.586 1.579-1.296.066-1.757.13"/><path stroke="#1A1918" d="M63.987 45.42s-3.083-.37-3.144-.083c-.126.586 1.3.754 1.278.922-.02.168-3.752.629-3.752 1.278 0 .525 4.423.21 4.046.545s-3.019 1.992-2.39 2.055c.63.063 2.704-.21 2.6-.042s-1.915 2.21-1.101 2.505c1.184.43 3.096-1.17 3.17-1.017.138.285.278 2.914 1.766 2.704 1.489-.21 1.3-1.467 1.468-1.425s1.76 1.446 2.327 1.006c.565-.44.167-1.32.251-1.404s1.593.691 2.18.062c0 0-.734-.733-.524-.733s3.029.892 3.029.241c0-.797-1.645-1.352-1.31-1.331.335.02 3.107.708 2.746-.231-.524-1.362-3.48-1.614-3.144-1.76.335-.147 3.15-.115 2.871-.818-.293-.738-3.563-.88-3.29-1.048.272-.168 3.702-.993 2.767-1.929-1.017-1.016-4.717.336-4.864.126s1.518-1.33.545-1.488c-1.153-.189-2.515 1.173-2.452.922.063-.252.88-1.698.042-1.698-.378 0-.493-.073-1.772.933s-.936 1.558-1.586 1.579-1.296.066-1.757.13Z"/></g></svg>