<svg xmlns="http://www.w3.org/2000/svg" width="86" height="102" viewBox="0 0 86 102"><g fill="none" fill-rule="evenodd"><path fill="#1A1918" d="M42.965 101.889c6.875 0 22.974-14.892 29.85-24.368 6.875-9.477 13.08-22.338 13.08-39.598 0-.677-.755-22.76-5.031-27.076S62.039.017 42.964.017 9.343 6.532 5.066 10.847C.79 15.162.035 37.246.035 37.923c0 17.26 6.204 30.121 13.08 39.598 6.875 9.476 22.974 24.368 29.85 24.368"/><path fill="#D9222A" d="M42.965 100.873c6.714 0 22.436-14.594 29.15-23.882S84.889 55.1 84.889 38.183c0-.664-.737-22.307-4.913-26.536S61.592 1.032 42.965 1.032 10.13 7.417 5.954 11.647C1.778 15.876 1.04 37.519 1.04 38.183c0 16.916 6.059 29.52 12.773 38.808 6.715 9.288 22.436 23.882 29.15 23.882"/><path fill="#1A1918" d="M42.965 99.858c6.553 0 21.897-14.298 28.45-23.396 6.553-9.1 12.467-21.447 12.467-38.02 0-.65-.72-21.853-4.795-25.996S61.145 2.048 42.965 2.048 10.918 8.303 6.842 12.446 2.047 37.792 2.047 38.442c0 16.573 5.914 28.92 12.467 38.02 6.553 9.098 21.897 23.396 28.45 23.396"/><path fill="#D9222A" d="M27.87 89.656c-3.662-3.28-7.248-7-10.06-10.384V7.481c2.9-1.114 6.284-2.13 10.062-2.906zM47.996 3.227a77 77 0 0 0-5.031-.164v95.78c1.348 0 3.08-.624 5.03-1.692zm-10.062 0a77 77 0 0 1 5.03-.164v95.78c-1.349 0-3.08-.624-5.033-1.693zm20.124 86.43c3.663-3.28 7.25-7 10.061-10.385V7.481c-2.9-1.114-6.284-2.13-10.061-2.906z"/><path fill="#1A1918" d="M66.867 48.128c.864 12.965-9.599 24.21-22.955 25.115-13.354.906-23.875-8.87-24.739-21.835-.863-12.965 8.258-23.87 21.613-24.776s25.218 8.532 26.081 21.496"/><path fill="#FFF" d="M52.943 30.004c-1.473-.055-2.91.077-4.267.445l-.044-.008c-2.387-.469-4.64-.91-7.34-.707l-.036.014c-1.727-.794-3.397-1.402-4.889-1.798 5.695-1.427 11.805-.673 16.576 2.054M21.966 60.533c1.24 1.045 2.476 1.59 3.735 2.082 1.735 2.39 4.233 4.405 7.632 6.16.298.886.757 1.894 1.236 2.736-4.994-1.607-10.335-7.19-12.603-10.978"/><path fill="#FFF" d="m40.682 65.968.532-.234c.81-2.774 1.264-5.037 1.038-7.657-2.71-1.724-5.518-3.63-7.647-6.2-.145.039-4.442 1.159-4.442 1.159l-2.717.717-.078.245-.034.104c-.792 2.507-1.538 5.412-1.413 8.352 1.71 2.355 4.179 4.345 7.543 6.08 2.37-.418 4.348-1.297 6.26-2.147zm6.575 6.125c1.121-.81 1.933-1.592 2.646-2.577 2.883-.828 5.173-2.377 7.414-5.015l.486-.032c.974-.06 2.054-.14 3.025-.497-3.38 4.011-7.941 6.739-13.57 8.12m18.758-17.98c-.635-1.907-1.216-3.397-2.203-4.539-.299-3.696-1.117-6.347-2.815-9.126.157-.849.204-1.773.144-2.666a9.5 9.5 0 0 0-.38-2.078c2.743 2.507 5.116 7.41 5.497 13.129a24 24 0 0 1-.243 5.28m-27.43-10.856v.018c.006.073.063.13.135.134l9.234.484 1.486 8.445c.014.078.086.13.165.117a.146.146 0 0 0 .115-.166l-1.505-8.559a.14.14 0 0 0-.133-.119l-9.347-.49a.145.145 0 0 0-.15.136m-2.887-15.088a.2.2 0 0 0-.011.066.14.14 0 0 0 .087.123l2.888 1.223-3.16 3.655c-.022.024-.042.055-.04.084q0 .01.005.02l.049.099c.01.023.019.037.042.045s.038.001.06-.01l.099-.05 3.289-3.804a.2.2 0 0 0 .032-.128.14.14 0 0 0-.084-.1l-3.07-1.3a.144.144 0 0 0-.186.077"/><path fill="#FFF" d="m56.973 64.485.158-.183c.765-2.564 1.124-5.54 1.017-8.402-2.26-.684-4.548-1.63-7.182-2.97-2.774 2.165-5.689 3.936-8.443 5.134l.024.304c.167 2.52-.287 4.733-1.067 7.412q.138.11.275.213c2.625 2.035 5.195 3.08 8.051 3.268 2.78-.794 5.001-2.273 7.167-4.776m1.17-8.978.45.142c2.544-1.63 3.845-3.88 4.951-6.05-.296-3.658-1.104-6.279-2.785-9.024-2.473-1.663-4.519-2.105-7.617-2.355-1.249 1.812-2.545 3.417-3.857 4.776.052.16.102.33.153.495.767 2.476 1.076 5.483 1.624 9.183 2.468 1.257 4.964 2.163 7.081 2.833m-9.193-12.72.137.027c1.304-1.35 2.593-2.948 3.836-4.75-1.318-2.821-2.568-5.48-4.317-7.352l-.025-.005c-2.368-.464-4.604-.903-7.232-.71-2.423.893-4.444 2.787-6.175 5.784l.041.096c.978 2.362 2.9 5.058 3.737 6.177 3.256-.19 6.618.057 9.998.733M34.135 51.72l.32-.09s2.576-6.632 4.264-9.435c-.861-1.153-2.811-3.895-3.785-6.284-2.645.078-5.233.63-8.13 1.735a40.6 40.6 0 0 0-3.716 9.162l-.08.492c.99 2.578 2.477 4.707 4.365 6.192l2.721-.719z"/><path fill="#FFF" d="M26.145 33.663c-4.44 4.855-6.495 10.52-6.429 17.734.758-1.294 1.583-2.487 2.393-3.63l.712-1.01.011-.038a40.8 40.8 0 0 1 3.723-9.18 16 16 0 0 1-.21-1.746 21 21 0 0 1-.01-2.344z"/><g fill="#555D5B"><path d="M41.945 64.129s-10.13 6.437-18.95 5.615c-6.47-.605-9.343-8.4-8.962-12.563.454-4.952 3.459-8.002 3.459-8.002s-2.935 11.67 4.213 12.337c5.903.55 6.083-6.49 14.404-5.713 5.333.498 6.296 3.301 6.296 3.301z"/><path d="M41.925 64.129s8.789 8.203 17.608 9.025c6.472.605 10.712-6.527 11.093-10.69.454-4.952-1.946-8.506-1.946-8.506s.764 12.015-6.383 11.347c-5.904-.55-4.8-7.505-13.121-8.281-5.335-.498-6.79 2.08-6.79 2.08z"/></g><path fill="#FFF" d="M14.047 13.618h1.968v3.033l3.703-3.033h2.36l-3.763 3.085 3.807 3.227h-2.526l-3.58-3.139v3.139h-1.97zm8.72 1.679h3.728q.297.009.588.03.292.022.562.067a2.3 2.3 0 0 1 1.002.378q.192.123.318.268.126.144.205.312.078.167.117.338t.04.347v2.893h-4.888q-.531 0-.936-.097a2 2 0 0 1-.684-.29 1.3 1.3 0 0 1-.41-.47 1.14 1.14 0 0 1-.095-.62q.044-.413.261-.686.218-.272.61-.395a5 5 0 0 1 .858-.185q.465-.062 1.015-.062l2.387-.008a.76.76 0 0 0-.096-.462.6.6 0 0 0-.348-.25 3 3 0 0 0-.536-.106 6 6 0 0 0-.667-.035l-3.031-.009zm2.422 3.7h2.273v-.957H25.32a.1.1 0 0 1-.03.008h-.074a4 4 0 0 0-.357.031q-.165.023-.323.066a.44.44 0 0 0-.244.136.37.37 0 0 0-.087.25.4.4 0 0 0 .052.273q.07.106.227.132.157.035.335.053.18.018.37.018zm5.732-3.7h6.978q.67.01 1.189.101.518.092.901.268.375.175.567.51.19.334.2.826v2.928h-1.83v-2.778q0-.325-.104-.51a.48.48 0 0 0-.314-.237 3 3 0 0 0-.51-.075 8 8 0 0 0-.788-.009l-.06.004h-.419v3.605h-1.855v-3.613H32.75v3.613h-1.83zm11.464 0h3.502q.767.01 1.372.158.606.15 1.032.44.435.299.671.699.235.4.27.91.018.237-.017.46-.035.225-.113.454a2 2 0 0 1-.601.808 2.47 2.47 0 0 1-1.229.58 8 8 0 0 1-.727.093q-.38.03-.771.03h-1.568v1.67h-1.82zm1.82 1.002v2.637a.2.2 0 0 1 .04.005q.022.004.048.004h.261q.627.009 1.137-.035t.902-.132a.9.9 0 0 0 .58-.413q.186-.316.169-.87-.018-.466-.213-.73a.88.88 0 0 0-.571-.334 7 7 0 0 0-.823-.101q-.45-.03-.972-.03-.052 0-.1.003a1 1 0 0 1-.091.005h-.366zm9.087 0h-1.106v2.637a2 2 0 0 0 .26.018h.271q.453.009.875-.013.423-.023.815-.084.392-.053.61-.281t.279-.624v-.053q0-.027.008-.053v-.105q0-.026.005-.053a.4.4 0 0 0 .004-.062q0-.026.004-.052a.3.3 0 0 0 .005-.053l-.035-.193-.018-.093a1 1 0 0 0-.113-.273 1.3 1.3 0 0 0-.122-.162 1.2 1.2 0 0 0-.335-.281 1.2 1.2 0 0 0-.414-.14 5 5 0 0 0-.466-.054 8 8 0 0 0-.527-.017zm-1.106-2.681v1.679h1.568q.391.009.77.04.38.03.728.1.357.062.662.207t.566.374q.218.184.366.387.148.201.235.43.079.22.114.449.035.228.017.457-.034.51-.27.914-.235.405-.67.694a3.1 3.1 0 0 1-1.033.436 6 6 0 0 1-1.372.145h-3.502v-6.312zm6.29 1.679h3.728q.296.009.588.03.292.022.562.067a2.3 2.3 0 0 1 1.001.378q.192.123.318.268.127.144.205.312.079.167.118.338t.039.347v2.893h-4.887q-.532 0-.937-.097a2 2 0 0 1-.684-.29 1.3 1.3 0 0 1-.409-.47 1.14 1.14 0 0 1-.096-.62q.044-.413.262-.686.217-.272.61-.395a5 5 0 0 1 .857-.185q.467-.062 1.015-.062l2.387-.008a.76.76 0 0 0-.096-.462.6.6 0 0 0-.348-.25 3 3 0 0 0-.536-.106 6 6 0 0 0-.666-.035l-3.032-.009zm2.421 3.7h2.274v-.957h-2.143a.1.1 0 0 1-.03.008h-.075a4 4 0 0 0-.357.031q-.166.023-.322.066a.44.44 0 0 0-.244.136.37.37 0 0 0-.087.25.4.4 0 0 0 .052.273q.07.106.226.132.157.035.336.053.178.018.37.018zm5.732-3.7h3.058q.732.009 1.163.119t.544.338q.123.22.175.523t.052.681v.29l-1.742-.008v-.194q0-.316-.04-.505-.039-.19-.117-.242t-.344-.08a8 8 0 0 0-.736-.025h-.201v3.736H66.63zm5.462 0h1.28v-1.68h1.813v1.68h1.925v.923h-1.925v1.872q-.01.353.109.554.117.203.361.255.235.061.57.088.337.027.763.026h.122v.915h-1.664q-.513 0-.906-.097a1.7 1.7 0 0 1-.644-.29 1.2 1.2 0 0 1-.397-.457 1.4 1.4 0 0 1-.126-.598V16.22h-1.28zM25.72 80.908q0-.255.049-.479.048-.224.144-.417a1 1 0 0 1 .33-.37 2.7 2.7 0 0 1 .602-.307q.234-.089.492-.14.257-.053.527-.08a12 12 0 0 1 1.106-.053h.619q.07 0 .14.005.069.004.139.004h.553q.135 0 .274-.009.28-.009.488-.07.21-.062.348-.176a.65.65 0 0 0 .192-.272.7.7 0 0 0 .017-.343.6.6 0 0 0-.17-.352.64.64 0 0 0-.36-.167 5 5 0 0 0-.484-.066 6 6 0 0 0-.51-.022l-4.495-.009v-1.09h4.913a.2.2 0 0 0 .061.01h.488q.105-.001.205.004.1.004.204.004.105.009.205.013.1.005.205.013.21.018.405.062t.379.114q.296.114.51.268.213.155.352.356.14.194.218.405.078.21.096.422v.052q.035.484-.135.849t-.527.62q-.366.255-.902.382a5.5 5.5 0 0 1-1.259.127l-1.777-.008q-.584.009-.923.1-.34.093-.436.269a1.3 1.3 0 0 0-.135.417 3 3 0 0 0-.03.55v.211l6.09-.009v1.081H25.72zm15.481.466q.174-.123.305-.303.13-.18.227-.418.095-.237.139-.483a2.9 2.9 0 0 0 0-.998 2.4 2.4 0 0 0-.14-.479 2 2 0 0 0-.226-.422 1.4 1.4 0 0 0-.305-.316 2 2 0 0 0-.383-.216 3 3 0 0 0-.47-.154 4 4 0 0 0-.523-.087 6 6 0 0 0-.55-.027 4.7 4.7 0 0 0-1.053.123q-.253.061-.466.15a1.56 1.56 0 0 0-.68.527q-.135.185-.23.422-.087.237-.127.48a3.1 3.1 0 0 0 0 .997q.039.246.126.483.096.238.231.418t.31.312q.165.123.378.215.214.093.467.154.252.061.522.088t.54.027q.279 0 .54-.031.262-.03.514-.092a3 3 0 0 0 .47-.154 2 2 0 0 0 .384-.207zm-3.58 1.398a6.4 6.4 0 0 1-.98-.233 3.4 3.4 0 0 1-.771-.356 2.5 2.5 0 0 1-.584-.488 2.55 2.55 0 0 1-.527-.971 10 10 0 0 1-.091-.343 3.6 3.6 0 0 1-.07-.72 3.7 3.7 0 0 1 .07-.713q.044-.175.091-.343.048-.167.118-.325a2.4 2.4 0 0 1 .41-.633q.251-.282.583-.492.33-.211.77-.365a6 6 0 0 1 .98-.242 8 8 0 0 1 .419-.061q.218-.027.444-.036a11 11 0 0 1 1.438-.017q.069.009.135.009.065 0 .135.008l.196.022q.1.015.204.022.105.017.205.027.1.008.196.026.531.089.963.242.43.153.77.365.332.21.584.492.253.282.41.633a3 3 0 0 1 .209.668 3.6 3.6 0 0 1 .07.712 4 4 0 0 1-.07.721 3.3 3.3 0 0 1-.21.668 2.5 2.5 0 0 1-.409.637 2.7 2.7 0 0 1-.583.497 4 4 0 0 1-.771.36 6 6 0 0 1-.963.238q-.13.017-.266.026a5 5 0 0 0-.274.027q-.069 0-.135.008a1 1 0 0 1-.135.01q-.21.016-.41.026l-.4.017a12 12 0 0 1-.906-.035 7 7 0 0 1-.431-.03 15 15 0 0 1-.414-.05zm13.677-1.398q.174-.123.305-.303.13-.18.226-.418.096-.237.14-.483a2.9 2.9 0 0 0 0-.998 2.4 2.4 0 0 0-.14-.479 2 2 0 0 0-.226-.422 1.4 1.4 0 0 0-.305-.316 2 2 0 0 0-.384-.216 3 3 0 0 0-.47-.154 4 4 0 0 0-.523-.087 6 6 0 0 0-.548-.027 4.7 4.7 0 0 0-1.055.123q-.252.061-.466.15a1.56 1.56 0 0 0-.68.527q-.135.185-.23.422-.087.237-.126.48a3.1 3.1 0 0 0 0 .997q.039.246.126.483.096.238.23.418.136.18.31.312.165.123.38.215.212.093.465.154t.523.088.54.027q.279 0 .54-.031.261-.03.514-.092a3 3 0 0 0 .47-.154 2 2 0 0 0 .384-.207zm-3.58 1.398a6.4 6.4 0 0 1-.98-.233 3.4 3.4 0 0 1-.772-.356 2.5 2.5 0 0 1-.583-.488 2.55 2.55 0 0 1-.527-.971 10 10 0 0 1-.092-.343 3.6 3.6 0 0 1-.07-.72 3.7 3.7 0 0 1 .07-.713q.044-.175.092-.343.047-.167.117-.325a2.4 2.4 0 0 1 .41-.633q.252-.282.583-.492.332-.211.771-.365a6 6 0 0 1 .98-.242 8 8 0 0 1 .419-.061q.218-.027.444-.036a11 11 0 0 1 1.437-.017q.07.009.135.009.066 0 .135.008l.196.022q.1.015.205.022.105.017.205.027.1.008.196.026.531.089.962.242.432.153.771.365.332.21.584.492t.41.633a3 3 0 0 1 .208.668 3.6 3.6 0 0 1 .07.712 4 4 0 0 1-.07.721 3.3 3.3 0 0 1-.209.668 2.5 2.5 0 0 1-.409.637 2.7 2.7 0 0 1-.584.497 4 4 0 0 1-.77.36 6 6 0 0 1-.963.238q-.13.017-.266.026a5 5 0 0 0-.274.027q-.07 0-.135.008a1 1 0 0 1-.135.01q-.21.016-.41.026l-.4.017a12 12 0 0 1-.907-.035 7 7 0 0 1-.43-.03 15 15 0 0 1-.415-.05zm6.89-1.046h3.868q.297.009.562-.026.266-.036.5-.106a.66.66 0 0 0 .354-.228.66.66 0 0 0 .117-.405q0-.228-.117-.382a.7.7 0 0 0-.353-.233 3 3 0 0 0-.501-.119 4 4 0 0 0-.562-.04l-3.119-.008v-1.081h3.067q.296.008.562-.027.266-.034.5-.105a.67.67 0 0 0 .353-.225.63.63 0 0 0 .118-.39q0-.238-.118-.396a.66.66 0 0 0-.352-.229 3 3 0 0 0-.501-.105 4 4 0 0 0-.562-.036l-3.816-.008v-1.082h4.513q.495.01.958.062t.871.15q.41.096.701.33.293.231.45.592.147.344.138.629a.9.9 0 0 1-.183.523q-.174.238-.448.453a4.4 4.4 0 0 1-.658.417q.2.088.388.18.188.093.344.198a1.18 1.18 0 0 1 .492.69l.04.145a.6.6 0 0 1 .017.146v.145a1 1 0 0 1-.018.167l-.004.04-.004.039a2 2 0 0 1-.053.184l-.017.053a1.36 1.36 0 0 1-.392.558q-.27.234-.68.356a5 5 0 0 1-.849.194 6.5 6.5 0 0 1-.902.061h-4.704zM35.26 8.898q0-.915.213-1.565.214-.65.64-1.046.436-.396 1.377-.593.94-.198 2.387-.198l3.005-.009v1.099h-3.18a6 6 0 0 0-1.08.097 2.3 2.3 0 0 0-.749.263 1.1 1.1 0 0 0-.453.466q-.157.3-.183.721l5.645-.009v1.09h-5.645V11.8H35.26zm8.062-3.411h1.969V8.52l3.702-3.033h2.361l-3.763 3.086 3.807 3.226H48.87l-3.58-3.138v3.138h-1.969z"/></g></svg>