<?xml version="1.0" encoding="UTF-8"?>
<svg width="86px" height="101px" viewBox="0 0 86 101" version="1.1" xmlns="http://www.w3.org/2000/svg" xmlns:xlink="http://www.w3.org/1999/xlink">
    <!-- Generator: Sketch 48.2 (47327) - http://www.bohemiancoding.com/sketch -->
    <title>Artboard</title>
    <desc>Created with Sketch.</desc>
    <defs></defs>
    <g id="Page-1" stroke="none" stroke-width="1" fill="none" fill-rule="evenodd">
        <g id="Artboard">
            <g id="logo-jul">
                <path d="M42.9646444,100.969521 C49.8401503,100.969521 65.9389323,86.2123125 72.8144382,76.8213663 C79.689959,67.4304201 85.8946948,54.6855635 85.8946948,37.5806264 C85.8946948,36.9098413 85.1400597,15.0255736 80.8638292,10.7493431 C76.5875837,6.4731125 62.0393399,0.0168267361 42.9646444,0.0168267361 C23.889949,0.0168267361 9.34169476,6.4731125 5.06545823,10.7493431 C0.789223194,15.0255736 0.0345940972,36.9098413 0.0345940972,37.5806264 C0.0345940972,54.6855635 6.23932688,67.4304201 13.1148432,76.8213663 C19.9903566,86.2123125 36.0891236,100.969521 42.9646444,100.969521" id="Fill-1" fill="#1A1918" fill-rule="nonzero"></path>
                <path d="M42.9646444,99.9633482 C49.6791691,99.9633482 65.400626,85.5002892 72.1148222,76.2968111 C78.8293469,67.092676 84.8885247,54.6020569 84.8885247,37.8382083 C84.8885247,37.1805024 84.1516569,15.7325802 79.9757149,11.5415285 C75.7994146,7.35049167 61.5922594,1.02299687 42.9646444,1.02299687 C24.3370295,1.02299687 10.1298624,7.35049167 5.95357396,11.5415285 C1.77762149,15.7325802 1.04076722,37.1805024 1.04076722,37.8382083 C1.04076722,54.6020569 7.09994052,67.092676 13.8144667,76.2968111 C20.5286628,85.5002892 36.2501198,99.9633482 42.9646444,99.9633482" id="Fill-3" fill="#D9222A" fill-rule="nonzero"></path>
                <path d="M42.9646444,98.9571751 C49.5178444,98.9571751 64.8619913,84.788251 71.4151913,75.7719274 C77.9683913,66.7549469 83.8823396,54.5185354 83.8823396,38.0954469 C83.8823396,37.4511635 83.1629257,16.4395868 79.0872573,12.3340573 C75.0115889,8.22787083 61.1451788,2.02918194 42.9646444,2.02918194 C24.7840951,2.02918194 10.917697,8.22787083 6.84202563,12.3340573 C2.76635424,16.4395868 2.04694035,37.4511635 2.04694035,38.0954469 C2.04694035,54.5185354 7.9608901,66.7549469 14.5140976,75.7719274 C21.0672976,84.788251 36.4114444,98.9571751 42.9646444,98.9571751" id="Fill-4" fill="#1A1918" fill-rule="nonzero"></path>
                <path d="M27.8703753,88.8471524 C24.2075667,85.5975469 20.6222326,81.9112674 17.8103163,78.5570135 L17.8096444,7.41321493 C20.7101139,6.30910035 24.094199,5.30293021 27.8717191,4.53421562 L27.8703753,88.8471524 Z" id="Fill-6" fill="#D9222A" fill-rule="nonzero"></path>
                <path d="M42.9646444,97.950999 C41.6153701,97.950999 39.8837392,97.3325455 37.9314347,96.2740437 L37.9337788,3.19834896 C39.5674653,3.09237187 41.2460927,3.03535208 42.9646444,3.03535208 C44.6831812,3.03535208 46.3618236,3.09237187 47.9955101,3.19834896 L47.9955101,96.275059 C46.0442059,97.332874 44.3132469,97.950999 42.9646444,97.950999 Z" id="Combined-Shape" fill="#D9222A" fill-rule="nonzero"></path>
                <path d="M58.0575698,88.8484962 C61.7210503,85.5985472 65.3070563,81.9115958 68.119301,78.5570135 L68.1186292,7.41321493 C65.2188465,6.30910035 61.835075,5.30293021 58.0575698,4.53421562 L58.0575698,88.8484962" id="Fill-9" fill="#D9222A" fill-rule="nonzero"></path>
                <path d="M66.7179788,47.6943309 C67.5812785,60.5418201 57.1190948,71.6851955 43.7631455,72.5823576 C30.4082115,73.4798632 19.8876792,63.7917691 19.0240361,50.9442799 C18.1610799,38.0964472 27.2820368,27.2891437 40.6369708,26.3916382 C53.9925767,25.4941326 65.8543507,34.8465132 66.7179788,47.6943309" id="Fill-11" fill="#1A1918" fill-rule="nonzero"></path>
                <path d="M52.7935486,29.7334847 C51.3205149,29.6791524 49.8843747,29.8092722 48.5267094,30.1745184 L48.4827687,30.1664708 C46.0961344,29.7019514 43.8429792,29.2646056 41.1434153,29.4654962 C41.131008,29.469184 41.1186007,29.4748875 41.1068503,29.4795906 C39.3799226,28.6924219 37.7100146,28.0900635 36.2178549,27.6979872 C41.9124583,26.2836455 48.022624,27.0305615 52.7935486,29.7334847" id="Fill-13" fill="#FFFFFF" fill-rule="nonzero"></path>
                <path d="M21.8168413,59.9867469 C23.0564507,61.0227781 24.2930292,61.5620847 25.5520931,62.0504184 C27.2867399,64.4179417 29.784383,66.4151872 33.1835778,68.1545372 C33.481741,69.0329167 33.9408854,70.0317111 34.4198278,70.8661649 C29.4255271,69.2730597 24.0850913,63.7411247 21.8168413,59.9867469" id="Fill-14" fill="#FFFFFF" fill-rule="nonzero"></path>
                <path d="M40.5329944,65.372467 L41.0645969,65.1410434 C41.8742361,62.3918354 42.3286774,60.1490868 42.1026288,57.5528274 C39.3933451,55.8446674 36.5847733,53.9564299 34.4557208,51.4097997 C34.3108198,51.4473649 30.0134625,52.5571681 30.0134625,52.5571681 C30.0134625,52.5571681 27.4359858,53.2313125 27.2967882,53.2682059 C27.2703014,53.3483531 27.2444715,53.429859 27.2183132,53.5110215 L27.1851076,53.6139826 C26.3925788,56.0978896 25.6463347,58.9775608 25.7714378,61.8904375 C27.4819271,64.2244118 29.9504108,66.1965142 33.3147128,67.9164097 C35.6842517,67.5018628 37.6627295,66.6308441 39.5754531,65.7883427 L40.5329944,65.372467 Z" id="Fill-15" fill="#FFFFFF" fill-rule="nonzero"></path>
                <path d="M47.108008,71.4423649 C48.2288896,70.6407882 49.040858,69.8653549 49.7539115,68.8887024 C52.6365986,68.0683281 54.9266472,66.5329146 57.1680521,63.9192163 L57.6536983,63.8873545 C58.6280215,63.8276472 59.7079785,63.7485003 60.6789274,63.3949896 C57.2978583,67.3697125 52.7375441,70.0726358 47.108008,71.4423649" id="Fill-16" fill="#FFFFFF" fill-rule="nonzero"></path>
                <path d="M65.8664295,53.6240458 C65.2315226,51.7337927 64.6509628,50.2570562 63.6632469,49.125783 C63.3647403,45.4629743 62.5463965,42.8358684 60.8489715,40.0823007 C61.005608,39.2411431 61.0525646,38.3255267 60.9928573,37.4397566 C60.9435566,36.7042476 60.8033587,36.0123358 60.6128597,35.3804597 C63.355349,37.8650385 65.7289191,42.7238444 66.109917,48.3912743 C66.2232847,50.0799799 66.1484826,51.8390979 65.8664295,53.6240458" id="Fill-17" fill="#FFFFFF" fill-rule="nonzero"></path>
                <path d="M38.4371476,42.8657146 C38.4368042,42.8700743 38.4371476,42.8794656 38.437476,42.8834819 C38.4425076,42.9555965 38.4995274,43.0126163 38.5712986,43.0163042 C38.572299,43.0163042 47.0389094,43.4556656 47.8056233,43.495575 C47.8321101,43.6424767 49.2914076,51.8652563 49.2914076,51.8652563 C49.3058306,51.9417306 49.3779302,51.9940472 49.4564201,51.9809681 C49.5328795,51.9658733 49.5845392,51.8920865 49.5717885,51.816299 L48.0665497,43.3345937 C48.0544858,43.2685111 47.9991382,43.2202257 47.9340708,43.2168663 L38.5870653,42.7315635 C38.5092472,42.7282042 38.4421792,42.7878965 38.4371476,42.8657146" id="Fill-18" fill="#FFFFFF" fill-rule="nonzero"></path>
                <path d="M35.5494288,27.9136441 C35.5430535,27.9270667 35.53735,27.9636167 35.5383653,27.9790549 C35.5420531,28.0330438 35.5759156,28.0796719 35.6255597,28.1011271 C35.6255597,28.1011271 38.2892306,29.2193212 38.5132785,29.3132344 C38.3496097,29.5023896 35.3538983,32.9351184 35.3538983,32.9351184 C35.3320997,32.9589326 35.3113014,32.9897941 35.313317,33.0186399 C35.3136455,33.0256722 35.3153177,33.0320476 35.3190056,33.0387514 L35.3676493,33.1363524 C35.3783694,33.1594948 35.3864319,33.1729174 35.4095743,33.1812934 C35.4333736,33.1890125 35.4477965,33.1823087 35.4706104,33.1715736 L35.5685399,33.1219295 L38.857383,29.3521434 C38.8785097,29.3286576 38.8969639,29.2552142 38.8892448,29.2253681 C38.8785097,29.1807556 38.8473198,29.1441906 38.8057382,29.1267517 L35.7362399,27.8375132 C35.6641253,27.8079955 35.5802753,27.8418729 35.5494288,27.9136441" id="Fill-19" fill="#FFFFFF" fill-rule="nonzero"></path>
                <path d="M56.8232757,63.9034497 C56.8769361,63.8424135 56.9285958,63.7843785 56.9815844,63.722342 C57.7466111,61.1814153 58.1054819,58.2309882 57.9984896,55.3952576 C55.7382872,54.7180972 53.4505826,53.7806823 50.8171014,52.4528632 C48.0430788,54.5976972 45.127858,56.352799 42.3736333,57.5397333 C42.3820094,57.6410222 42.3907288,57.7419826 42.3974326,57.8412559 C42.5651326,60.3385854 42.1106764,62.5320333 41.3308983,65.1869847 C41.4224524,65.2594427 41.5140215,65.3281979 41.6052472,65.3979535 C44.2303524,67.4146535 46.8004535,68.449341 49.6569823,68.6358236 C52.4366934,67.8493267 54.6576583,66.3833253 56.8232757,63.9034497" id="Fill-20" fill="#FFFFFF" fill-rule="nonzero"></path>
                <path d="M57.9937865,55.0058688 C58.1447194,55.0538257 58.2943087,55.1011108 58.4445549,55.147067 C60.9878257,53.5311479 62.2884712,51.3021354 63.3949299,49.1522847 C63.0991108,45.5263694 62.2904868,42.9294382 60.6098437,40.209076 C58.1370003,38.5613101 56.091126,38.1232774 52.9927819,37.8747583 C51.7437812,39.6704413 50.447824,41.2618743 49.1361149,42.6081326 C49.1877597,42.7664413 49.2380757,42.9347983 49.2883767,43.0984819 C50.056091,45.5521993 50.3646458,48.5324726 50.9123434,52.1989691 C53.3804837,53.4446104 55.8764694,54.3424594 57.9937865,55.0058688" id="Fill-21" fill="#FFFFFF" fill-rule="nonzero"></path>
                <path d="M48.8010583,42.4011951 C48.8459993,42.4105865 48.8919556,42.4179622 48.937225,42.4273535 C50.2412299,41.0898146 51.5304684,39.5064441 52.7734372,37.719809 C51.4560097,34.9246597 50.2056802,32.2901632 48.4562819,30.4347878 C48.4458753,30.4331007 48.4317958,30.4300847 48.4317958,30.4300847 C46.0632573,29.9702684 43.8272125,29.5355951 41.1997632,29.7257656 C38.7765639,30.6108639 36.7561611,32.4880378 35.0245451,35.4579344 C35.0376243,35.4901247 35.0523757,35.5226583 35.0657983,35.5538483 C36.043451,37.8938844 37.9662528,40.5656028 38.8023788,41.6744056 C42.0583597,41.4859222 45.4203177,41.7307535 48.8010583,42.4011951" id="Fill-22" fill="#FFFFFF" fill-rule="nonzero"></path>
                <path d="M33.9858264,51.2531781 L34.3047878,51.1639531 C34.3047878,51.1639531 36.8819361,44.591642 38.5699549,41.8142601 C37.7086708,40.6715799 35.7583819,37.9542486 34.785074,35.5873972 C32.1401708,35.6645285 29.551959,36.2115542 26.6548639,37.305934 C25.0369292,40.1963403 23.7862562,43.2504003 22.9383948,46.3856378 L22.8595764,46.8736431 C23.8486361,49.4283059 25.3354358,51.5375903 27.2233448,53.0092802 L29.9447073,52.297242 L33.9858264,51.2531781 Z" id="Fill-23" fill="#FFFFFF" fill-rule="nonzero"></path>
                <path d="M25.9954708,33.3597285 C21.5562434,38.170234 19.5009628,43.7853622 19.5667021,50.9332014 C20.325025,49.6513385 21.1494156,48.4690924 21.9597118,47.3361469 L22.6720934,46.3353368 L22.6828135,46.2970997 C23.5340493,43.1561587 24.786051,40.0967236 26.405658,37.1999569 C26.3070566,36.6566191 26.2369576,36.0774031 26.1963764,35.4703417 C26.1464038,34.7291292 26.1490913,33.9456483 26.1863132,33.1474309 C26.1212458,33.2171865 26.0602097,33.289301 25.9954708,33.3597285" id="Fill-24" fill="#FFFFFF" fill-rule="nonzero"></path>
                <path d="M41.7836328,63.5576546 C41.3954676,63.7996625 31.4909426,69.9136347 22.8461538,69.1144226 C16.3747882,68.5157521 13.5024927,60.7903542 13.8835056,56.6650417 C14.3372899,51.7579354 17.3423927,48.7357222 17.3423927,48.7357222 C17.3423927,48.7357222 14.4080608,60.3000049 21.5559,60.9610701 C27.4587847,61.5067521 27.6382201,54.5299424 35.959616,55.2993288 C41.0253104,55.7679324 42.1482403,58.2979278 42.2481984,58.5507056 C42.3995632,58.3109529 43.9724022,56.04231 49.02645,56.5094205 C57.3478309,57.2788069 56.2437163,64.1704229 62.1472729,64.7161049 C69.2947986,65.3774986 68.5307722,53.4711122 68.5307722,53.4711122 C68.5307722,53.4711122 70.9308292,56.9927226 70.4770448,61.9005007 C70.0957035,66.0254698 65.8556944,73.0931618 59.3836569,72.4944913 C50.7187423,71.6937413 42.0829564,63.832305 41.7836328,63.5576546 Z" id="Combined-Shape" fill="#555D5B" fill-rule="nonzero"></path>
                <path d="M25.5437429,80.3215541 C25.5437429,80.1659319 25.5585,80.0197029 25.5880146,79.8828627 C25.6175291,79.7460224 25.6618003,79.6185751 25.7208294,79.5005169 C25.7798585,79.3770924 25.8818164,79.2644021 26.026706,79.1624427 C26.1715957,79.0604833 26.3567297,78.9665748 26.5821136,78.8807142 C26.7270033,78.8270514 26.8785985,78.7841218 27.0369039,78.7519241 C27.1952092,78.7197264 27.3575369,78.6955785 27.5238916,78.6794796 C27.6956127,78.6633808 27.8659897,78.6513068 28.0350276,78.6432574 C28.2040655,78.6352079 28.3744425,78.6311833 28.5461635,78.6311833 L29.1176699,78.6311833 C29.1606001,78.6311833 29.2035298,78.6325248 29.24646,78.635208 C29.2893903,78.6378911 29.3323199,78.6392327 29.3752502,78.6392327 L29.8863861,78.6392327 C29.9695635,78.6392327 30.0540812,78.6365496 30.1399418,78.6311833 C30.3116628,78.625817 30.4619165,78.6043522 30.5907073,78.5667882 C30.7194981,78.5292242 30.8268222,78.4755622 30.9126827,78.4058005 C30.9985433,78.3306725 31.0575715,78.2474964 31.0897692,78.1562696 C31.1219669,78.0650428 31.1273331,77.9604018 31.105868,77.8423436 C31.0844028,77.7081865 31.0320824,77.6008624 30.948905,77.5203682 C30.8657276,77.4398739 30.7543789,77.388895 30.6148555,77.3674298 C30.4699658,77.3405984 30.3210537,77.3204752 30.1681146,77.3070595 C30.0151755,77.2936438 29.8582141,77.286936 29.6972256,77.286936 L25.5437429,77.2788866 L25.5437429,76.2807629 L30.0835961,76.2807629 C30.0996949,76.2861292 30.1184766,76.2888123 30.1399418,76.2888123 L30.5907073,76.2888123 C30.6551027,76.2888123 30.7181556,76.2901538 30.7798679,76.2928369 C30.8415801,76.2955201 30.904633,76.2968616 30.9690284,76.2968616 C31.0334238,76.3022279 31.0964767,76.3062526 31.158189,76.3089357 C31.2199012,76.3116189 31.2829541,76.3156435 31.3473495,76.3210098 C31.4761403,76.3317424 31.6009045,76.3505241 31.7216459,76.3773555 C31.8423873,76.4041869 31.9591022,76.4390672 32.0717942,76.4819975 C32.2542478,76.5517592 32.4112092,76.6335938 32.5426832,76.7275037 C32.6741571,76.8214137 32.7828228,76.9300793 32.8686833,77.0535038 C32.9545438,77.1715621 33.0216214,77.2949847 33.0699179,77.4237755 C33.1182145,77.5525663 33.1477286,77.6813552 33.1584611,77.810146 L33.1584611,77.8584423 C33.1799263,78.1535879 33.1383382,78.4125072 33.0336957,78.635208 C32.9290532,78.8579087 32.7667255,79.0470674 32.5467079,79.2026896 C32.321324,79.3583118 32.043623,79.4750268 31.7135965,79.5528379 C31.3835701,79.630649 30.9958619,79.669554 30.5504604,79.669554 L28.9083859,79.6615046 C28.5488449,79.6668709 28.2644361,79.6977265 28.0551511,79.7540725 C27.845866,79.8104185 27.7117109,79.8922531 27.6526818,79.9995787 C27.5936527,80.1069044 27.5520646,80.2343517 27.5279163,80.3819245 C27.5037681,80.5294973 27.4943772,80.6971912 27.4997435,80.8850111 L27.4997435,81.0781963 L33.1262636,81.0701469 L33.1262636,82.0602213 L25.5437429,82.0602213 L25.5437429,80.3215541 Z M39.8475001,80.7481715 C39.9548258,80.6730436 40.0487343,80.5804766 40.1292286,80.4704678 C40.2097228,80.360459 40.2794834,80.2330116 40.3385126,80.088122 C40.3975417,79.9432323 40.4404713,79.7956617 40.4673027,79.6454058 C40.4941341,79.4951499 40.5075497,79.3422131 40.5075497,79.1865909 C40.5075497,79.0309686 40.4941341,78.8793734 40.4673027,78.7318006 C40.4404713,78.5842278 40.3975417,78.4379988 40.3385126,78.2931091 C40.2794834,78.1482195 40.2097228,78.0194306 40.1292286,77.9067386 C40.0487343,77.7940467 39.9548258,77.697455 39.8475001,77.6169608 C39.7455407,77.5418328 39.6274842,77.4760968 39.4933271,77.4197508 C39.3591701,77.3634049 39.2142826,77.3164506 39.0586604,77.2788866 C38.9030381,77.2413226 38.742052,77.2144916 38.5756973,77.1983928 C38.4093425,77.1822939 38.2403071,77.1742446 38.068586,77.1742446 C37.9022312,77.1742446 37.7372205,77.1836355 37.5735488,77.2024175 C37.4098772,77.2211994 37.2502326,77.249372 37.0946104,77.286936 C36.9389882,77.3245 36.7954423,77.3701127 36.6639683,77.4237755 C36.5324944,77.4774384 36.4184626,77.5418328 36.3218695,77.6169608 C36.2145438,77.697455 36.1192937,77.7940467 36.0361163,77.9067386 C35.9529389,78.0194306 35.8818367,78.1482195 35.8228076,78.2931091 C35.7691447,78.4379988 35.7302398,78.5842278 35.7060915,78.7318006 C35.6819432,78.8793734 35.6698693,79.0309686 35.6698693,79.1865909 C35.6698693,79.3422131 35.6819432,79.4951499 35.7060915,79.6454058 C35.7302398,79.7956617 35.7691447,79.9432323 35.8228076,80.088122 C35.8818367,80.2330116 35.9529389,80.360459 36.0361163,80.4704678 C36.1192937,80.5804766 36.2145438,80.6757267 36.3218695,80.7562209 C36.4238288,80.8313489 36.5405438,80.8970849 36.6720177,80.9534309 C36.8034916,81.0097768 36.9470376,81.0567311 37.1026598,81.0942951 C37.258282,81.1318591 37.4192681,81.1586901 37.5856229,81.174789 C37.7519777,81.1908878 37.91833,81.1989371 38.0846848,81.1989371 C38.2564058,81.1989371 38.4227581,81.1895463 38.5837466,81.1707643 C38.7447351,81.1519823 38.9030381,81.1238097 39.0586604,81.0862457 C39.2142826,81.0486817 39.3591701,81.0017275 39.4933271,80.9453815 C39.6274842,80.8890355 39.7455407,80.8259826 39.8475001,80.7562209 L39.8475001,80.7481715 Z M36.5392028,82.0280238 C36.2064933,81.9743609 35.9046444,81.9032587 35.633647,81.8147151 C35.3626497,81.7261714 35.1251952,81.6175058 34.9212765,81.488715 C34.7173577,81.3652904 34.5375899,81.2163783 34.3819677,81.0419741 C34.2263454,80.8675699 34.1002397,80.6703619 34.0036466,80.4503443 C33.9607163,80.3537512 33.9244944,80.2544764 33.8949799,80.1525171 C33.8654653,80.0505577 33.8372927,79.9459167 33.8104613,79.838591 C33.7889962,79.7312654 33.7728976,79.6225998 33.762165,79.5125909 C33.7514325,79.4025821 33.7460663,79.2912334 33.7460663,79.1785415 C33.7460663,79.0712158 33.7514325,78.9625502 33.762165,78.8525414 C33.7728976,78.7425326 33.7889962,78.633867 33.8104613,78.5265413 C33.8372927,78.4192156 33.8654653,78.3145747 33.8949799,78.2126153 C33.9244944,78.1106559 33.9607163,78.0113811 34.0036466,77.914788 C34.1002397,77.7001367 34.2263454,77.5069534 34.3819677,77.3352323 C34.5375899,77.1635112 34.7173577,77.0132576 34.9212765,76.8844667 C35.1251952,76.7556759 35.3626497,76.6443272 35.633647,76.5504173 C35.9046444,76.4565073 36.2064933,76.382722 36.5392028,76.3290592 C36.6626274,76.307594 36.7914162,76.2888123 36.9255733,76.2727135 C37.0597304,76.2566146 37.1965686,76.2458822 37.336092,76.2405159 C37.470249,76.2297834 37.6057457,76.2217341 37.7425859,76.2163678 C37.8794261,76.2110015 38.020289,76.2083184 38.1651786,76.2083184 C38.2456729,76.2083184 38.3275075,76.20966 38.4106849,76.2123431 C38.4938623,76.2150262 38.57838,76.2190509 38.6642405,76.2244172 C38.7071708,76.2297835 38.7487588,76.2324666 38.789006,76.2324666 C38.8292531,76.2324666 38.8708412,76.2351497 38.9137714,76.2405159 C38.9728005,76.2458822 39.0331703,76.25259 39.0948826,76.2606394 C39.1565948,76.2686888 39.2196477,76.2753966 39.2840431,76.2807629 C39.3484385,76.2914954 39.4114914,76.2995447 39.4732037,76.304911 C39.5349159,76.3102773 39.5952857,76.3183266 39.6543148,76.3290592 C39.9816581,76.382722 40.2781409,76.4565073 40.5437719,76.5504173 C40.8094029,76.6443272 41.0468574,76.7556759 41.2561425,76.8844667 C41.4600612,77.0132576 41.639829,77.1635112 41.7954513,77.3352323 C41.9510735,77.5069534 42.0771792,77.7001367 42.1737723,77.914788 C42.2167026,78.0113811 42.254266,78.1106559 42.2864637,78.2126153 C42.3186614,78.3145747 42.3454925,78.4192156 42.3669576,78.5265413 C42.3884227,78.633867 42.4045213,78.7425326 42.4152539,78.8525414 C42.4259865,78.9625502 42.4313527,79.0712158 42.4313527,79.1785415 C42.4313527,79.2912334 42.4259865,79.4025821 42.4152539,79.5125909 C42.4045213,79.6225998 42.3884227,79.7312654 42.3669576,79.838591 C42.3454925,79.9459167 42.3186614,80.0505577 42.2864637,80.1525171 C42.254266,80.2544764 42.2167026,80.3537512 42.1737723,80.4503443 C42.0771792,80.6649956 41.9510735,80.8595205 41.7954513,81.0339247 C41.639829,81.2083289 41.4600612,81.3599242 41.2561425,81.488715 C41.0468574,81.6175058 40.8094029,81.7275129 40.5437719,81.8187398 C40.2781409,81.9099666 39.9816581,81.9824103 39.6543148,82.0360731 C39.5738206,82.0468057 39.491986,82.054855 39.4088086,82.0602213 C39.3256312,82.0655876 39.2411135,82.0736369 39.155253,82.0843695 C39.1123227,82.0843695 39.0707346,82.0870526 39.0304875,82.0924188 C38.9902404,82.0977851 38.9486523,82.1004682 38.905722,82.1004682 C38.7769312,82.1112008 38.6508255,82.1192501 38.5274009,82.1246164 L38.1571292,82.1407152 C38.0122396,82.1407152 37.8700352,82.1380321 37.7305118,82.1326658 C37.5909885,82.1272995 37.4541503,82.1192502 37.3199932,82.1085176 C37.1858361,82.1031513 37.0530226,82.0937605 36.9215486,82.0803448 C36.7900747,82.0669291 36.6626274,82.052172 36.5392028,82.0360731 L36.5392028,82.0280238 Z M49.1767373,80.7481715 C49.284063,80.6730436 49.3779715,80.5804766 49.4584658,80.4704678 C49.53896,80.360459 49.6087207,80.2330116 49.6677498,80.088122 C49.7267789,79.9432323 49.7697085,79.7956617 49.7965399,79.6454058 C49.8233714,79.4951499 49.8367869,79.3422131 49.8367869,79.1865909 C49.8367869,79.0309686 49.8233714,78.8793734 49.7965399,78.7318006 C49.7697085,78.5842278 49.7267789,78.4379988 49.6677498,78.2931091 C49.6087207,78.1482195 49.53896,78.0194306 49.4584658,77.9067386 C49.3779715,77.7940467 49.284063,77.697455 49.1767373,77.6169608 C49.0747779,77.5418328 48.9567214,77.4760968 48.8225644,77.4197508 C48.6884073,77.3634049 48.5435198,77.3164506 48.3878976,77.2788866 C48.2322753,77.2413226 48.0712893,77.2144916 47.9049345,77.1983928 C47.7385797,77.1822939 47.5695443,77.1742446 47.3978232,77.1742446 C47.2314684,77.1742446 47.0664577,77.1836355 46.902786,77.2024175 C46.7391144,77.2211994 46.5794698,77.249372 46.4238476,77.286936 C46.2682254,77.3245 46.1246795,77.3701127 45.9932055,77.4237755 C45.8617316,77.4774384 45.7476998,77.5418328 45.6511067,77.6169608 C45.543781,77.697455 45.4485309,77.7940467 45.3653535,77.9067386 C45.2821761,78.0194306 45.2110739,78.1482195 45.1520448,78.2931091 C45.098382,78.4379988 45.059477,78.5842278 45.0353287,78.7318006 C45.0111804,78.8793734 44.9991065,79.0309686 44.9991065,79.1865909 C44.9991065,79.3422131 45.0111804,79.4951499 45.0353287,79.6454058 C45.059477,79.7956617 45.098382,79.9432323 45.1520448,80.088122 C45.2110739,80.2330116 45.2821761,80.360459 45.3653535,80.4704678 C45.4485309,80.5804766 45.543781,80.6757267 45.6511067,80.7562209 C45.7530661,80.8313489 45.869781,80.8970849 46.0012549,80.9534309 C46.1327289,81.0097768 46.2762748,81.0567311 46.431897,81.0942951 C46.5875192,81.1318591 46.7485053,81.1586901 46.9148601,81.174789 C47.0812149,81.1908878 47.2475672,81.1989371 47.413922,81.1989371 C47.5856431,81.1989371 47.7519953,81.1895463 47.9129839,81.1707643 C48.0739724,81.1519823 48.2322753,81.1238097 48.3878976,81.0862457 C48.5435198,81.0486817 48.6884073,81.0017275 48.8225644,80.9453815 C48.9567214,80.8890355 49.0747779,80.8259826 49.1767373,80.7562209 L49.1767373,80.7481715 Z M45.8684401,82.0280238 C45.5357305,81.9743609 45.2338816,81.9032587 44.9628842,81.8147151 C44.6918869,81.7261714 44.4544324,81.6175058 44.2505137,81.488715 C44.0465949,81.3652904 43.8668271,81.2163783 43.7112049,81.0419741 C43.5555827,80.8675699 43.4294769,80.6703619 43.3328838,80.4503443 C43.2899535,80.3537512 43.2537316,80.2544764 43.2242171,80.1525171 C43.1947025,80.0505577 43.16653,79.9459167 43.1396985,79.838591 C43.1182334,79.7312654 43.1021348,79.6225998 43.0914022,79.5125909 C43.0806697,79.4025821 43.0753035,79.2912334 43.0753035,79.1785415 C43.0753035,79.0712158 43.0806697,78.9625502 43.0914022,78.8525414 C43.1021348,78.7425326 43.1182334,78.633867 43.1396985,78.5265413 C43.16653,78.4192156 43.1947025,78.3145747 43.2242171,78.2126153 C43.2537316,78.1106559 43.2899535,78.0113811 43.3328838,77.914788 C43.4294769,77.7001367 43.5555827,77.5069534 43.7112049,77.3352323 C43.8668271,77.1635112 44.0465949,77.0132576 44.2505137,76.8844667 C44.4544324,76.7556759 44.6918869,76.6443272 44.9628842,76.5504173 C45.2338816,76.4565073 45.5357305,76.382722 45.8684401,76.3290592 C45.9918646,76.307594 46.1206535,76.2888123 46.2548105,76.2727135 C46.3889676,76.2566146 46.5258058,76.2458822 46.6653292,76.2405159 C46.7994863,76.2297834 46.9349829,76.2217341 47.0718231,76.2163678 C47.2086633,76.2110015 47.3495262,76.2083184 47.4944158,76.2083184 C47.5749101,76.2083184 47.6567447,76.20966 47.7399221,76.2123431 C47.8230995,76.2150262 47.9076172,76.2190509 47.9934777,76.2244172 C48.036408,76.2297835 48.077996,76.2324666 48.1182432,76.2324666 C48.1584903,76.2324666 48.2000784,76.2351497 48.2430086,76.2405159 C48.3020378,76.2458822 48.3624075,76.25259 48.4241198,76.2606394 C48.4858321,76.2686888 48.5488849,76.2753966 48.6132803,76.2807629 C48.6776757,76.2914954 48.7407286,76.2995447 48.8024409,76.304911 C48.8641532,76.3102773 48.9245229,76.3183266 48.9835521,76.3290592 C49.3108953,76.382722 49.6073781,76.4565073 49.8730091,76.5504173 C50.1386401,76.6443272 50.3760946,76.7556759 50.5853797,76.8844667 C50.7892984,77.0132576 50.9690662,77.1635112 51.1246885,77.3352323 C51.2803107,77.5069534 51.4064165,77.7001367 51.5030096,77.914788 C51.5459398,78.0113811 51.5835033,78.1106559 51.615701,78.2126153 C51.6478987,78.3145747 51.6747297,78.4192156 51.6961948,78.5265413 C51.7176599,78.633867 51.7337585,78.7425326 51.7444911,78.8525414 C51.7552237,78.9625502 51.7605899,79.0712158 51.7605899,79.1785415 C51.7605899,79.2912334 51.7552237,79.4025821 51.7444911,79.5125909 C51.7337585,79.6225998 51.7176599,79.7312654 51.6961948,79.838591 C51.6747297,79.9459167 51.6478987,80.0505577 51.615701,80.1525171 C51.5835033,80.2544764 51.5459398,80.3537512 51.5030096,80.4503443 C51.4064165,80.6649956 51.2803107,80.8595205 51.1246885,81.0339247 C50.9690662,81.2083289 50.7892984,81.3599242 50.5853797,81.488715 C50.3760946,81.6175058 50.1386401,81.7275129 49.8730091,81.8187398 C49.6073781,81.9099666 49.3108953,81.9824103 48.9835521,82.0360731 C48.9030578,82.0468057 48.8212232,82.054855 48.7380458,82.0602213 C48.6548684,82.0655876 48.5703507,82.0736369 48.4844902,82.0843695 C48.4415599,82.0843695 48.3999718,82.0870526 48.3597247,82.0924188 C48.3194776,82.0977851 48.2778895,82.1004682 48.2349593,82.1004682 C48.1061684,82.1112008 47.9800627,82.1192501 47.8566382,82.1246164 L47.4863664,82.1407152 C47.3414768,82.1407152 47.1992724,82.1380321 47.059749,82.1326658 C46.9202257,82.1272995 46.7833875,82.1192502 46.6492304,82.1085176 C46.5150733,82.1031513 46.3822598,82.0937605 46.2507858,82.0803448 C46.1193119,82.0669291 45.9918646,82.052172 45.8684401,82.0360731 L45.8684401,82.0280238 Z M52.2355036,81.0701469 L55.8094305,81.0701469 C55.9918842,81.0755132 56.1649442,81.0674639 56.3286159,81.0459988 C56.4922875,81.0245337 56.6465659,80.9923364 56.7914555,80.9494062 C56.9363452,80.9064759 57.0450108,80.8367153 57.1174556,80.7401222 C57.1899004,80.6435291 57.2261223,80.5201064 57.2261223,80.3698505 C57.2261223,80.2303271 57.1899004,80.1136122 57.1174556,80.0197022 C57.0450108,79.9257922 56.9363452,79.8546901 56.7914555,79.8063935 C56.6465659,79.758097 56.4922875,79.7218751 56.3286159,79.6977268 C56.1649442,79.6735785 55.9918842,79.6615046 55.8094305,79.6615046 L52.9277507,79.6534552 L52.9277507,78.6633808 L55.7611342,78.6633808 C55.9435879,78.6687471 56.1166479,78.6606978 56.2803196,78.6392327 C56.4439912,78.6177675 56.5982695,78.5855703 56.7431592,78.5426401 C56.8880489,78.4997098 56.9967145,78.4312907 57.0691593,78.3373807 C57.1416041,78.2434708 57.177826,78.1240728 57.177826,77.9791831 C57.177826,77.8342935 57.1416041,77.7135539 57.0691593,77.6169608 C56.9967145,77.5203677 56.8880489,77.450607 56.7431592,77.4076768 C56.5982695,77.3647465 56.4439912,77.3325493 56.2803196,77.3110842 C56.1166479,77.289619 55.9435879,77.2788866 55.7611342,77.2788866 L52.2355036,77.2708372 L52.2355036,76.2807629 L56.405085,76.2807629 C56.7109632,76.2861292 57.0061044,76.3049109 57.2905174,76.3371086 C57.5749304,76.3693063 57.8432406,76.414919 58.0954559,76.4739481 C58.3476712,76.5329772 58.5636609,76.6335935 58.7434314,76.7758 C58.9232019,76.9180066 59.0613816,77.0991159 59.1579747,77.3191335 C59.2492015,77.5284186 59.2921311,77.7202604 59.2867649,77.8946646 C59.2813986,78.0690688 59.2250534,78.2287133 59.1177278,78.373603 C59.0104021,78.5184926 58.8722224,78.6566724 58.7031844,78.7881463 C58.5341465,78.9196202 58.3315724,79.0470676 58.0954559,79.1704921 C58.2188804,79.2241549 58.3382784,79.2791585 58.4536535,79.3355045 C58.5690286,79.3918505 58.6750111,79.4522202 58.7716042,79.5166156 C58.8681973,79.581011 58.9500319,79.6547963 59.0171105,79.7379737 C59.084189,79.8211511 59.1391926,79.9137181 59.1821229,80.0156775 C59.1982217,80.0586078 59.2129788,80.102879 59.2263945,80.1484924 C59.2398102,80.1941058 59.2518841,80.2383769 59.2626167,80.2813072 C59.2733493,80.3242375 59.2787155,80.3685087 59.2787155,80.4141221 L59.2787155,80.5469369 C59.2787155,80.5737683 59.2773739,80.5992578 59.2746908,80.6234061 C59.2720076,80.6475544 59.267983,80.6730438 59.2626167,80.6998752 C59.2626167,80.7106078 59.2612752,80.7226818 59.258592,80.7360975 C59.2559089,80.7495132 59.2545673,80.7615871 59.2545673,80.7723197 C59.249201,80.7937848 59.2438348,80.8139081 59.2384685,80.8326901 C59.2331023,80.8514721 59.2277361,80.8689122 59.2223698,80.8850111 C59.2170035,80.9064762 59.2116373,80.9252579 59.206271,80.9413568 L59.1901722,80.9896531 C59.1150443,81.1882056 58.9943047,81.3585825 58.8279499,81.500789 C58.6615951,81.6429956 58.4523132,81.7516612 58.2000979,81.8267891 C57.9478826,81.9072834 57.6862802,81.9663116 57.4152828,82.0038756 C57.1442855,82.0414396 56.8665845,82.0602213 56.5821715,82.0602213 L52.2355036,82.0602213 L52.2355036,81.0701469 Z" id="2003" fill="#FFFFFF"></path>
                <path d="M13.8238048,13.9704066 L15.6429659,13.9704066 L15.6429659,16.7474444 L19.0639545,13.9704066 L21.2453378,13.9704066 L17.7680035,16.7957407 L21.2855847,19.749865 L18.9512631,19.749865 L15.6429659,16.8762346 L15.6429659,19.749865 L13.8238048,19.749865 L13.8238048,13.9704066 Z M21.8812392,15.5078391 L25.326376,15.5078391 C25.5088296,15.5132054 25.689939,15.5225963 25.8697095,15.536012 C26.04948,15.5494277 26.22254,15.5695509 26.3888948,15.5963824 C26.5606159,15.6178475 26.7242851,15.658094 26.8799073,15.7171231 C27.0355295,15.7761523 27.180417,15.8512791 27.3145741,15.9425059 C27.4326323,16.0176339 27.5305655,16.0994685 27.6083767,16.1880122 C27.6861878,16.2765558 27.7492407,16.3718059 27.7975372,16.4737653 C27.8458338,16.5757247 27.8820556,16.6790241 27.9062039,16.7836666 C27.9303522,16.8883092 27.9424261,16.9942917 27.9424261,17.1016174 L27.9424261,19.749865 L23.4267211,19.749865 C23.0993779,19.749865 22.8109444,19.7203509 22.5614123,19.6613218 C22.3118801,19.6022927 22.1012566,19.5137503 21.9295355,19.3956921 C21.7578145,19.2722676 21.6317087,19.1287216 21.5512144,18.96505 C21.4707202,18.8013783 21.4412061,18.6122197 21.4626712,18.3975683 C21.4895026,18.145353 21.5699957,17.9360711 21.7041528,17.7697163 C21.8383098,17.6033615 22.0261269,17.482622 22.2676097,17.407494 C22.5090925,17.332366 22.773378,17.2760209 23.0604741,17.2384569 C23.3475703,17.2008929 23.6601516,17.1821112 23.9982275,17.1821112 L26.203759,17.1740618 C26.2144915,17.0023407 26.1849774,16.8614779 26.1152157,16.7514691 C26.0454541,16.6414603 25.93813,16.5649919 25.7932403,16.5220616 C25.6483507,16.4791314 25.4833399,16.4469341 25.2982032,16.425469 C25.1130664,16.4040039 24.9078091,16.3932715 24.6824252,16.3932715 L21.8812392,16.3852221 L21.8812392,15.5078391 Z M24.1189683,18.8966302 L26.2198577,18.8966302 L26.2198577,18.0192472 L24.239709,18.0192472 C24.2289765,18.0246135 24.2195856,18.0272966 24.2115362,18.0272966 L24.1431164,18.0272966 C24.0250582,18.0326629 23.915051,18.0420538 23.8130916,18.0554695 C23.7111322,18.0688852 23.6118575,18.0890084 23.5152644,18.1158399 C23.4186713,18.137305 23.3435444,18.1788931 23.2898816,18.2406053 C23.2362188,18.3023176 23.2093878,18.378786 23.2093878,18.4700128 C23.1986552,18.5719722 23.2147538,18.6551483 23.2576841,18.7195437 C23.3006143,18.7839391 23.370375,18.8241857 23.4669681,18.8402845 C23.5635612,18.8617496 23.6668606,18.8778483 23.7768694,18.8885808 C23.8868782,18.8993134 24.00091,18.9046796 24.1189683,18.9046796 L24.1189683,18.8966302 Z M29.4154636,15.5078391 L35.863021,15.5078391 C36.2762248,15.5132054 36.6424682,15.5440611 36.961762,15.6004071 C37.2810559,15.656753 37.5587569,15.7385876 37.7948734,15.8459133 C38.0256236,15.953239 38.2000252,16.1088588 38.3180834,16.3127776 C38.4361416,16.5166964 38.497853,16.7689079 38.5032193,17.0694198 L38.5032193,19.749865 L36.8128484,19.749865 L36.8128484,17.2062594 C36.8128484,17.0077069 36.7806512,16.852087 36.7162558,16.739395 C36.6518604,16.6267031 36.5552687,16.5542593 36.4264779,16.5220616 C36.3030534,16.4898639 36.146092,16.4670576 35.9555889,16.4536419 C35.7650858,16.4402262 35.54373,16.4362015 35.2915146,16.4415678 C35.2700495,16.4415678 35.2485847,16.4429093 35.2271196,16.4455925 C35.2056544,16.4482756 35.1868727,16.4496172 35.1707739,16.4496172 L34.7844034,16.4496172 L34.7844034,19.749865 L33.0698844,19.749865 L33.0698844,16.4415678 L31.1058344,16.4415678 L31.1058344,19.749865 L29.4154636,19.749865 L29.4154636,15.5078391 Z M40.0084542,15.5078391 L43.244307,15.5078391 C43.71654,15.5132054 44.1391285,15.5615012 44.5120852,15.6527281 C44.8850419,15.7439549 45.2029894,15.8781099 45.4659373,16.0551973 C45.7342515,16.2376509 45.9408503,16.4509575 46.0857399,16.6951234 C46.2306296,16.9392893 46.3138057,17.2169903 46.3352709,17.5282348 C46.3460034,17.6731244 46.3406372,17.8139872 46.3191721,17.9508275 C46.297707,18.0876677 46.2628266,18.2258474 46.2145301,18.3653708 C46.1608672,18.4995279 46.0884235,18.6296583 45.9971967,18.755766 C45.9059699,18.8818736 45.7932796,18.9985885 45.6591225,19.1059142 C45.498134,19.2454376 45.3237324,19.3594694 45.1359125,19.4480131 C44.9480926,19.5365568 44.7441769,19.5996096 44.5241592,19.6371736 C44.3095079,19.6747376 44.0854689,19.7029102 43.8520356,19.7216922 C43.6186023,19.7404742 43.3811478,19.749865 43.139665,19.749865 L41.6907757,19.749865 L41.6907757,21.2792482 L40.0084542,21.2792482 L40.0084542,15.5078391 Z M41.6907757,16.425469 L41.6907757,18.8402845 C41.7015083,18.8402845 41.7135822,18.8416261 41.7269979,18.8443092 C41.7404137,18.8469923 41.7551707,18.8483339 41.7712696,18.8483339 L42.0127511,18.8483339 C42.3991235,18.8537002 42.7492683,18.8429678 43.0631959,18.8161364 C43.3771234,18.7893049 43.6548244,18.7490584 43.8963072,18.6953956 C44.13779,18.6363665 44.3162162,18.5102607 44.4315913,18.3170745 C44.5469664,18.1238883 44.5992869,17.8582612 44.5885543,17.5201854 C44.5778217,17.2357723 44.5120858,17.0130749 44.3913444,16.8520864 C44.270603,16.6910979 44.0948599,16.5891401 43.8641097,16.5462098 C43.6333595,16.5032795 43.3798064,16.4724239 43.1034428,16.4536419 C42.8270792,16.4348599 42.5279134,16.425469 42.2059364,16.425469 C42.1737387,16.425469 42.142883,16.4268106 42.1133684,16.4294937 C42.0838539,16.4321768 42.0556813,16.4335184 42.0288499,16.4335184 L41.6907757,16.4335184 L41.6907757,16.425469 Z M50.0862843,16.425469 L49.0640124,16.425469 L49.0640124,18.8402845 C49.1015764,18.8456508 49.1404813,18.8496754 49.1807285,18.8523586 C49.2209756,18.8550417 49.2625637,18.8563833 49.3054939,18.8563833 L49.5550249,18.8563833 C49.8340716,18.8617496 50.1037233,18.8577249 50.363988,18.8443092 C50.6242528,18.8308935 50.8751228,18.805404 51.1166055,18.76784 C51.3580883,18.7356423 51.5459054,18.6497831 51.6800625,18.5102597 C51.8142196,18.3707364 51.9000788,18.1802362 51.9376428,17.9387534 L51.9376428,17.8904571 C51.9376428,17.8743582 51.9403259,17.8582596 51.9456922,17.8421608 L51.9456922,17.7455682 C51.9456922,17.7294693 51.9470338,17.7133707 51.9497169,17.6972718 C51.9524,17.681173 51.9537416,17.6623913 51.9537416,17.6409261 C51.9537416,17.6248273 51.9550831,17.6087287 51.9577663,17.5926298 C51.9604494,17.576531 51.961791,17.5604324 51.961791,17.5443335 C51.9564247,17.5175021 51.9510585,17.4893295 51.9456922,17.459815 C51.9403259,17.4303004 51.9349597,17.3994448 51.9295934,17.3672471 C51.9242271,17.3404156 51.9188609,17.3122431 51.9134947,17.2827285 C51.9081284,17.253214 51.9000791,17.2250414 51.8893465,17.19821 C51.8678814,17.1391809 51.8410504,17.0841773 51.8088527,17.0331976 C51.776655,16.9822179 51.7390915,16.9325805 51.6961613,16.884284 C51.6049344,16.7769583 51.501635,16.691099 51.3862599,16.6267036 C51.2708848,16.5623082 51.1434375,16.5193786 51.0039142,16.4979135 C50.8697571,16.4764483 50.7262111,16.4603497 50.5732721,16.4496172 C50.420333,16.4388846 50.2580053,16.4335184 50.0862843,16.4335184 L50.0862843,16.425469 Z M49.0640124,13.9704066 L49.0640124,15.5078391 L50.5129017,15.5078391 C50.7543844,15.5132054 50.9918389,15.5252794 51.2252722,15.5440614 C51.4587056,15.5628433 51.6827446,15.593699 51.8973959,15.6366293 C52.1174135,15.6741933 52.3213292,15.7372462 52.5091492,15.8257898 C52.6969691,15.9143335 52.8713707,16.0283653 53.0323592,16.1678887 C53.1665163,16.2805806 53.2792065,16.3986371 53.3704333,16.5220616 C53.4616602,16.6454862 53.5341039,16.7769581 53.5877667,16.9164815 C53.6360633,17.0506386 53.6709436,17.1874768 53.6924087,17.3270001 C53.7138739,17.4665235 53.7192401,17.6060448 53.7085075,17.7455682 C53.6870424,18.0568126 53.6038662,18.3358552 53.4589766,18.5827042 C53.3140869,18.8295532 53.1074881,19.0415183 52.8391739,19.2186056 C52.576226,19.395693 52.2582785,19.5285065 51.8853218,19.6170502 C51.5123651,19.7055938 51.0897766,19.749865 50.6175437,19.749865 L47.3816909,19.749865 L47.3816909,13.9704066 L49.0640124,13.9704066 Z M54.8756683,15.5078391 L58.3208051,15.5078391 C58.5032588,15.5132054 58.6843681,15.5225963 58.8641386,15.536012 C59.0439091,15.5494277 59.2169692,15.5695509 59.3833239,15.5963824 C59.555045,15.6178475 59.7187142,15.658094 59.8743364,15.7171231 C60.0299586,15.7761523 60.1748461,15.8512791 60.3090032,15.9425059 C60.4270615,16.0176339 60.5249947,16.0994685 60.6028058,16.1880122 C60.6806169,16.2765558 60.7436698,16.3718059 60.7919663,16.4737653 C60.8402629,16.5757247 60.8764847,16.6790241 60.900633,16.7836666 C60.9247813,16.8883092 60.9368552,16.9942917 60.9368552,17.1016174 L60.9368552,19.749865 L56.4211503,19.749865 C56.093807,19.749865 55.8053736,19.7203509 55.5558414,19.6613218 C55.3063092,19.6022927 55.0956857,19.5137503 54.9239647,19.3956921 C54.7522436,19.2722676 54.6261378,19.1287216 54.5456436,18.96505 C54.4651493,18.8013783 54.4356352,18.6122197 54.4571003,18.3975683 C54.4839317,18.145353 54.5644248,17.9360711 54.6985819,17.7697163 C54.832739,17.6033615 55.0205561,17.482622 55.2620388,17.407494 C55.5035216,17.332366 55.7678071,17.2760209 56.0549032,17.2384569 C56.3419994,17.2008929 56.6545807,17.1821112 56.9926566,17.1821112 L59.1981881,17.1740618 C59.2089207,17.0023407 59.1794065,16.8614779 59.1096449,16.7514691 C59.0398832,16.6414603 58.9325591,16.5649919 58.7876695,16.5220616 C58.6427798,16.4791314 58.4777691,16.4469341 58.2926323,16.425469 C58.1074955,16.4040039 57.9022382,16.3932715 57.6768543,16.3932715 L54.8756683,16.3852221 L54.8756683,15.5078391 Z M57.1133974,18.8966302 L59.2142869,18.8966302 L59.2142869,18.0192472 L57.2341381,18.0192472 C57.2234056,18.0246135 57.2140147,18.0272966 57.2059653,18.0272966 L57.1375455,18.0272966 C57.0194873,18.0326629 56.9094801,18.0420538 56.8075207,18.0554695 C56.7055614,18.0688852 56.6062866,18.0890084 56.5096935,18.1158399 C56.4131004,18.137305 56.3379736,18.1788931 56.2843107,18.2406053 C56.2306479,18.3023176 56.2038169,18.378786 56.2038169,18.4700128 C56.1930843,18.5719722 56.2091829,18.6551483 56.2521132,18.7195437 C56.2950434,18.7839391 56.3648041,18.8241857 56.4613972,18.8402845 C56.5579903,18.8617496 56.6612897,18.8778483 56.7712985,18.8885808 C56.8813073,18.8993134 56.9953391,18.9046796 57.1133974,18.9046796 L57.1133974,18.8966302 Z M62.4098927,15.5078391 L65.2352268,15.5078391 C65.6859947,15.5132054 66.0441887,15.5494273 66.3098197,15.6165058 C66.5754508,15.6835844 66.7431446,15.7868838 66.8129063,15.9264071 C66.8880343,16.0605642 66.9416963,16.2202088 66.973894,16.4053456 C67.0060917,16.5904823 67.0221903,16.7984227 67.0221903,17.0291729 L67.0221903,17.2948026 L65.4123133,17.2867532 L65.4123133,17.1096667 C65.4123133,16.9164805 65.4002394,16.7622022 65.3760911,16.6468271 C65.3519428,16.531452 65.3157209,16.4576667 65.2674244,16.425469 C65.2191278,16.3932713 65.1131453,16.3691234 64.9494737,16.3530245 C64.785802,16.3369257 64.5590799,16.3288764 64.2693006,16.3288764 L64.0841648,16.3288764 L64.0841648,19.749865 L62.4098927,19.749865 L62.4098927,15.5078391 Z M67.4568571,15.5078391 L68.6401167,15.5078391 L68.6401167,13.9704066 L70.3143888,13.9704066 L70.3143888,15.5078391 L72.0933029,15.5078391 L72.0933029,16.3530245 L70.3143888,16.3530245 L70.3143888,18.0675436 C70.3090225,18.2821949 70.3425613,18.4512303 70.4150061,18.5746548 C70.4874509,18.6980793 70.5987996,18.7758893 70.7490556,18.808087 C70.8939452,18.845651 71.0696884,18.872482 71.2762903,18.8885808 C71.4828922,18.9046797 71.7176636,18.912729 71.9806115,18.912729 L72.0933029,18.912729 L72.0933029,19.749865 L70.5558703,19.749865 C70.2392596,19.749865 69.960217,19.7203509 69.7187343,19.6613218 C69.4772515,19.6022927 69.278702,19.5137503 69.1230798,19.3956921 C68.956725,19.2776338 68.8346439,19.1381126 68.7568328,18.9771241 C68.6790217,18.8161356 68.6401167,18.6336847 68.6401167,18.4297659 L68.6401167,16.3530245 L67.4568571,16.3530245 L67.4568571,15.5078391 Z" id="Kampbart" fill="#FFFFFF"></path>
                <path d="M35.0420172,9.03616711 C35.0420172,8.47807363 35.1077532,8.00048156 35.2392272,7.60337658 C35.3707011,7.2062716 35.5679091,6.88698252 35.830857,6.64549977 C36.0991712,6.40401701 36.5231012,6.22290766 37.1026598,6.10216628 C37.6822184,5.9814249 38.4173882,5.92105512 39.3081913,5.92105512 L42.0852291,5.91300573 L42.0852291,6.91917886 L39.1472036,6.91917886 C38.7608312,6.92454514 38.4281266,6.95405926 38.1490799,7.00772209 C37.8700331,7.06138493 37.6392864,7.14187797 37.4568327,7.24920364 C37.2743791,7.35116303 37.1348578,7.49336741 37.0382647,7.67582105 C36.9416716,7.85827468 36.8853265,8.07828901 36.8692276,8.33587062 L42.0852291,8.32782123 L42.0852291,9.32594497 L36.8692276,9.32594497 L36.8692276,11.6924642 L35.0420172,11.6924642 L35.0420172,9.03616711 Z M43.0994516,5.91300573 L44.9186127,5.91300573 L44.9186127,8.69004356 L48.3396013,5.91300573 L50.5209846,5.91300573 L47.0436503,8.73833987 L50.5612315,11.6924642 L48.2269099,11.6924642 L44.9186127,8.81883372 L44.9186127,11.6924642 L43.0994516,11.6924642 L43.0994516,5.91300573 Z" id="FK" fill="#FFFFFF"></path>
                <g id="lue" transform="translate(17.916667, 17.468750)">
                    <path d="M45.0640597,17.219126 C44.3094247,16.925651 44.1417247,15.8356309 44.1417247,15.8356309 L45.6090698,15.7937059 C45.6090698,16.841816 45.0640597,17.219126 45.0640597,17.219126 M45.8606049,7.95395486 C41.9714191,5.87451667 41.8359094,0.533423958 36.0504236,0.156113889 C30.890767,-0.180286458 29.8456878,1.3299691 24.3955872,1.4557441 C19.0621986,1.5788316 17.2685312,4.72580451 16.6815962,6.44468472 C16.0946611,8.16356493 15.9065062,10.0706 10.4563906,11.8314052 L15.7173361,15.7937059 L32.5707382,18.8122312 L43.8955497,19.5749139 L48.1134316,19.9290816 L55.503101,12.3348187 C55.581576,9.46321007 50.0949253,10.2178302 45.8606049,7.95395486" id="Fill-35" fill="#D9222A" fill-rule="nonzero"></path>
                    <path d="M45.0640615,17.2191166 C44.3094318,16.9256495 44.1417361,15.8356287 44.1417361,15.8356287 L45.609072,15.7937047 C45.609072,16.8418018 45.0640615,17.2191166 45.0640615,17.2191166 Z M36.0504273,0.156097465 C30.8907715,-0.18029975 29.8456931,1.32996611 24.3955886,1.45573775 C19.0622003,1.57882627 17.268529,4.72580041 16.6815947,6.4446795 C16.0946604,8.16355859 15.906506,10.070592 10.4564016,11.831395 L15.7173455,15.7937047 L32.5707454,18.8122242 L43.8955592,19.5749034 L48.113437,19.9290764 L55.5031078,12.334817 C55.5815893,9.46319887 50.0949273,10.2178287 45.8606153,7.95393918 C41.9714207,5.87451473 41.8359228,0.533412387 36.0504273,0.156097465 Z" id="Stroke-37" stroke="#1A1918"></path>
                    <path d="M38.3562407,16.757954 L40.3266631,15.1648466 C38.0208498,15.6679331 29.6779976,15.039075 29.6779976,15.039075" id="Stroke-38" stroke="#1A1918"></path>
                    <path d="M24.1021214,9.00203619 C24.1021214,9.00203619 25.6952289,12.0205556 31.1034095,12.0205556" id="Stroke-39" stroke="#1A1918"></path>
                    <path d="M29.0072155,8.37317799 C29.0072155,8.37317799 27.6656513,10.6789914 31.1034095,12.0205556 C31.1034095,12.0205556 41.5005318,17.0514211 47.6633421,15.4163899" id="Stroke-40" stroke="#1A1918"></path>
                    <path d="M40.5782064,6.52852726 L42.7163242,7.99586306" id="Stroke-41" stroke="#1A1918"></path>
                    <path d="M40.3685871,3.468084 C40.3685871,3.468084 41.1651407,6.52852726 44.6867467,8.24740635" id="Stroke-42" stroke="#1A1918"></path>
                    <path d="M49.5505722,18.7890889 C49.4965833,18.7827135 49.4405639,18.7763382 49.3822153,18.7703063 C49.3822153,18.7703063 44.5609747,18.1833712 44.2674997,18.1414462 C43.9740396,18.0995212 43.6805646,17.8060611 43.0936295,18.0156712 C43.0936295,18.0156712 42.5486194,17.219126 41.0812892,18.2672212 C41.0812892,18.2672212 40.3266542,16.841816 38.565849,17.9318361 C38.565849,17.9318361 37.5596788,16.2129559 34.1219184,18.2252962 C34.1219184,18.2252962 33.0318983,17.344901 31.6903431,18.0995212 C31.6903431,18.0995212 30.6003229,16.925651 28.9233677,17.7641361 C28.9233677,17.7641361 29.6779878,14.9133108 24.1021122,16.799891 C24.1021122,16.799891 23.4313271,15.7517958 21.5447618,16.548341 C21.5447618,16.548341 20.6643517,14.5779257 17.7716163,15.6260208 C17.7716163,15.6260208 18.3585514,14.6198507 15.298101,14.9552358 C15.298101,14.9552358 16.9331312,13.6975156 14.1661559,13.8232906 C14.1661559,13.8232906 15.7592611,12.4817205 12.7826757,13.1525056 C12.7826757,13.1525056 14.4596309,10.5951552 9.05144028,12.1882604 C9.05144028,12.1882604 6.829475,10.9305403 5.86522986,11.9367104 C4.90098472,12.9428955 6.913325,13.4459806 6.913325,13.4459806 C6.03292986,13.6136656 4.48174965,13.8652156 5.94907986,14.6617757 C5.06866979,14.7875358 4.35597465,14.7875358 3.85288958,15.2906208 C3.47556458,15.6679458 4.56558472,16.0452559 4.56558472,16.0452559 C3.51748958,16.2129559 2.80479444,16.548341 2.84670451,17.093351 C2.88862951,17.6383611 4.18827465,17.9737611 4.18827465,17.9737611 C3.22402951,18.3510712 1.58899931,18.9799312 2.97247951,19.2733913 C2.00823438,19.7345514 -0.129880903,20.5311115 0.0378190972,21.4953566 C0.205504167,22.4596017 3.18210451,21.7469066 4.27212465,21.6211316 C4.10442465,21.7469066 3.68518958,22.6692267 5.40406979,21.8726816 C5.69752986,22.1661417 6.40923958,22.3888458 7.53279375,21.9793306 C8.27602187,21.7086694 8.52755694,21.9773149 8.87334861,22.15575 C9.21914028,22.3338417 9.93185035,22.0822917 9.93185035,22.0822917 C10.0576253,22.4596017 9.88992535,23.5077118 12.5311257,23.0884618 C12.5311257,23.0884618 13.9984559,23.5077118 14.4596309,23.1303868 C14.543466,23.8430969 14.836941,24.6396569 16.6396712,24.3461819 C16.6396712,24.3461819 16.9331312,26.6100722 19.8678066,25.2685021 C19.8678066,25.2685021 21.0416767,26.7358472 21.7124618,25.142742 C21.7124618,25.142742 23.221717,26.3585222 23.7248021,25.058892 C23.7248021,25.058892 24.6051972,25.6458271 25.4017573,25.100817 C25.4017573,25.100817 24.8986722,26.8196972 27.2044875,26.8196972 C29.1373375,26.8196972 29.1329778,26.0231372 29.1329778,26.0231372 C29.1329778,27.0293073 31.145333,28.4547274 33.4092233,25.8973622 C33.4092233,25.8973622 34.7507785,26.8196972 35.6311885,25.9392872 C35.6311885,25.9392872 35.4634885,27.6162424 37.4339038,26.6939222 C37.4339038,26.6939222 39.068934,28.2031774 40.6201292,26.6100722 C40.6201292,26.6100722 41.2908993,27.3227823 41.7939844,26.6100722 C41.7939844,26.6100722 43.2194045,27.7000924 44.6028847,26.6100722 C44.6028847,26.6100722 49.9272253,27.7000924 49.1725903,25.6458271 C49.1725903,25.6458271 51.1849455,25.5619771 48.6695052,24.0946469 C48.6695052,24.0946469 52.6522757,22.8788517 48.8791302,21.4115066 C48.8791302,21.4115066 50.7237705,20.9503465 49.5079903,19.9441764 C49.5079903,19.9441764 52.4577455,19.1358809 49.5505722,18.7890889" id="Fill-44" fill="#FFFFFF" fill-rule="nonzero"></path>
                    <path d="M49.5505876,18.7890822 C49.4965896,18.7827098 49.4405793,18.7763373 49.3822213,18.7703003 C49.3822213,18.7703003 44.5609751,18.183366 44.2675079,18.141442 C43.9740406,18.0995182 43.6805735,17.8060511 43.0936392,18.0156704 C43.0936392,18.0156704 42.5486287,17.2191166 41.081293,18.2672137 C41.081293,18.2672137 40.3266631,16.8418018 38.5658602,17.9318227 C38.5658602,17.9318227 37.559687,16.2129435 34.1219289,18.2252898 C34.1219289,18.2252898 33.031908,17.3448884 31.6903438,18.0995182 C31.6903438,18.0995182 30.6003229,16.9256495 28.9233677,17.7641272 C28.9233677,17.7641272 29.6779976,14.9133033 24.1021214,16.7998778 C24.1021214,16.7998778 23.4313393,15.7517809 21.5447648,16.5483346 C21.5447648,16.5483346 20.6643634,14.5779123 17.7716156,15.6260093 C17.7716156,15.6260093 18.3585499,14.6198361 15.2981066,14.9552271 C15.2981066,14.9552271 16.933138,13.6975108 14.1661619,13.8232824 C14.1661619,13.8232824 15.7592693,12.4817182 12.7826738,13.1525003 C12.7826738,13.1525003 14.459629,10.5951436 9.05144849,12.1882511 C9.05144849,12.1882511 6.82948284,10.9305347 5.86523359,11.9367078 C4.90098435,12.9428809 6.9133306,13.4459675 6.9133306,13.4459675 C6.03292911,13.613663 4.48174555,13.8652063 5.94908135,14.66176 C5.06867987,14.7875317 4.35597391,14.7875317 3.85288734,15.2906181 C3.47557242,15.6679331 4.56559331,16.045248 4.56559331,16.045248 C3.5174963,16.2129435 2.80479034,16.5483346 2.84671422,17.0933451 C2.8886381,17.6383554 4.18827839,17.9737465 4.18827839,17.9737465 C3.22402914,18.3510615 1.58899781,18.9799198 2.97248586,19.2733868 C2.00823661,19.7345496 -0.129881276,20.5311032 0.0378142448,21.4953524 C0.205509766,22.4596017 3.18210526,21.7468958 4.27212615,21.6211241 C4.10443063,21.7468958 3.68519182,22.6692211 5.40407091,21.8726674 C5.69753807,22.1661345 6.40923787,22.3888342 7.53279786,21.9793217 C8.2760244,21.7086612 8.52756768,21.9773094 8.87335585,22.1557375 C9.21914401,22.33383 9.93184997,22.0822869 9.93184997,22.0822869 C10.0576216,22.4596017 9.88992609,23.5076987 12.5311305,23.0884599 C12.5311305,23.0884599 13.9984664,23.5076987 14.459629,23.1303838 C14.5434768,23.8430897 14.836944,24.6396435 16.6396709,24.3461764 C16.6396709,24.3461764 16.933138,26.6100658 19.8678096,25.2685018 C19.8678096,25.2685018 21.0416782,26.7358375 21.7124603,25.1427301 C21.7124603,25.1427301 23.22172,26.3585225 23.7248066,25.0588823 C23.7248066,25.0588823 24.605208,25.6458166 25.4017618,25.1008063 C25.4017618,25.1008063 24.8986752,26.8196853 27.2044887,26.8196853 C29.1373472,26.8196853 29.1329872,26.0231316 29.1329872,26.0231316 C29.1329872,27.0293046 31.1453333,28.4547165 33.4092228,25.8973599 C33.4092228,25.8973599 34.7507871,26.8196853 35.6311885,25.9392837 C35.6311885,25.9392837 35.463493,27.6162389 37.4339153,26.6939137 C37.4339153,26.6939137 39.0689467,28.2031732 40.6201302,26.6100658 C40.6201302,26.6100658 41.2909123,27.3227718 41.7939989,26.6100658 C41.7939989,26.6100658 43.2194108,27.7000867 44.6028989,26.6100658 C44.6028989,26.6100658 49.9272316,27.7000867 49.1726018,25.6458166 C49.1726018,25.6458166 51.184948,25.5619689 48.6695152,24.0946331 C48.6695152,24.0946331 52.6522839,22.8788405 48.8791347,21.4115047 C48.8791347,21.4115047 50.7237854,20.950342 49.5079928,19.9441689 C49.5079928,19.9441689 52.4577571,19.1358766 49.5505876,18.7890822" id="Stroke-45" stroke="#1A1918"></path>
                    <path d="M50.7375215,17.2322052 L48.7114302,19.314316 C48.7114302,19.314316 43.2271236,24.1550111 48.1134316,28.4128024 L46.82485,28.4128024 C46.82485,28.4128024 41.0393642,24.0993351 43.8955497,19.2733913 L45.225041,17.0581299" id="Fill-46" fill="#D9222A" fill-rule="nonzero"></path>
                    <path d="M50.7375365,17.232197 L48.7114392,19.3143045 C48.7114392,19.3143045 43.2271248,24.1550035 48.113437,28.4127927 L46.8248646,28.4127927 C46.8248646,28.4127927 41.0393692,24.0993285 43.8955592,19.2733868 L45.2250493,17.058129" id="Stroke-47" stroke="#1A1918"></path>
                    <path d="M46.0702299,27.9516424 C46.0702299,27.9516424 42.9876524,27.5810361 42.9259295,27.8677924 C42.8001694,28.4547274 44.2255747,28.6224125 44.2047764,28.7901125 C44.1836497,28.9578125 40.4524292,29.4189726 40.4524292,30.0686309 C40.4524292,30.5928427 44.8755615,30.278241 44.4982514,30.613641 C44.1209413,30.949026 41.479726,32.605183 42.1085861,32.6679063 C42.7374462,32.730958 44.8125097,32.4582812 44.7078615,32.6259813 C44.6028847,32.7936812 42.7931222,34.8355392 43.6071212,35.1310149 C44.7917115,35.5606566 46.7031063,33.9621764 46.7765646,34.1144531 C46.9150753,34.3995222 47.0556017,37.0279868 48.5437302,36.8183618 C50.0322021,36.6087517 49.8433753,35.3510316 50.0110753,35.3929566 C50.1787604,35.4348816 51.7718806,36.8395035 52.3380174,36.3991267 C52.9038257,35.9590934 52.5057024,35.0786983 52.5895524,34.9948483 C52.6734024,34.9109983 54.1826576,35.6864167 54.7695927,35.0575715 C54.7695927,35.0575715 54.0357559,34.3240632 54.2453809,34.3240632 C54.4550059,34.3240632 57.2742979,35.2158653 57.2742979,34.5652066 C57.2742979,33.7686615 55.628876,33.2129163 55.9642611,33.2340431 C56.2996462,33.2548413 59.0716531,33.9427219 58.7104382,33.0032913 C58.1862264,31.6409378 55.2307677,31.3893878 55.5661528,31.2424861 C55.9015378,31.0959278 58.7171569,31.1277896 58.4377764,30.4251427 C58.1443014,29.6876181 54.874241,29.5447476 55.1469177,29.3770476 C55.419251,29.2093476 58.8496358,28.3842851 57.9138931,27.4485573 C56.8969878,26.4319806 53.1972858,27.7839424 53.0507125,27.5743174 C52.9038257,27.3647073 54.5680302,26.2451694 53.5957375,26.0858604 C52.4426507,25.8973622 51.0802972,27.2597306 51.1430205,27.0081806 C51.2060722,26.7566455 52.0234156,25.3104271 51.1849455,25.3104271 C50.8069486,25.3104271 50.6922521,25.2369837 49.4137337,26.2431538 C48.1348868,27.249324 48.477334,27.8013813 47.8273472,27.8221795 C47.1776889,27.8433063 46.5313899,27.8885906 46.0702299,27.9516424" id="Fill-48" fill="#FFFFFF" fill-rule="nonzero"></path>
                    <path d="M46.0702346,27.95163 C46.0702346,27.95163 42.9876557,27.581023 42.9259437,27.8677824 C42.800172,28.4547165 44.2255841,28.6224122 44.2047897,28.7901077 C44.1836601,28.9578031 40.4524347,29.4189659 40.4524347,30.0686184 C40.4524347,30.5928345 44.8755718,30.2782377 44.4982569,30.6136287 C44.1209419,30.9490198 41.4797375,32.6051807 42.1085957,32.6678989 C42.7374539,32.7309525 44.8125182,32.4582795 44.7078762,32.625975 C44.6028989,32.7936705 42.7931288,34.8355312 43.607123,35.1310108 C44.791724,35.5606466 46.7031176,33.962173 46.7765683,34.1144404 C46.9150848,34.3995228 47.0556135,37.0279825 48.5437436,36.818363 C50.0322091,36.6087437 49.843384,35.3510273 50.0110794,35.3929511 C50.1787749,35.434875 51.7718825,36.8394926 52.3380224,36.3991242 C52.9038272,35.9590912 52.505718,35.0786898 52.5895657,34.9948418 C52.6734135,34.9109942 54.1826732,35.6864183 54.7696075,35.05756 C54.7696075,35.05756 54.035772,34.3240598 54.2453914,34.3240598 C54.4550107,34.3240598 57.2743079,35.2158647 57.2743079,34.565206 C57.2743079,33.7686522 55.6288793,33.2129093 55.9642705,33.234039 C56.2996614,33.2548333 59.0716685,33.9427202 58.7104522,33.00329 C58.1862361,31.6409316 55.2307702,31.3893883 55.5661613,31.242487 C55.9015523,31.0959211 58.7171601,31.1277832 58.4377794,30.425139 C58.1443121,29.687614 54.8742495,29.5447376 55.1469225,29.3770419 C55.41926,29.2093464 58.8496396,28.3842845 57.9138986,27.4485436 C56.8969929,26.4319732 53.1972944,27.7839344 53.0507285,27.5743151 C52.9038272,27.3646958 54.5680375,26.2451605 53.5957388,26.0858497 C52.4426646,25.8973599 51.080306,27.2597183 51.1430242,27.008175 C51.2060777,26.7566317 52.0234258,25.3104256 51.184948,25.3104256 C50.8069623,25.3104256 50.6922587,25.236975 49.413748,26.2431481 C48.134902,27.2493213 48.4773363,27.8013748 47.8273484,27.8221691 C47.1776959,27.8432988 46.5313974,27.8885766 46.0702346,27.95163 Z" id="Stroke-49" stroke="#1A1918"></path>
                </g>
            </g>
        </g>
    </g>
</svg>