<svg xmlns="http://www.w3.org/2000/svg" width="265" height="26" viewBox="0 0 265 26"><path fill="#FFF" fill-rule="evenodd" d="M8.795 5.007c-.862-.412-1.274-1.162-1.461-1.911-.075-.3.037-.45.412-.45 3.11.15 7.081-.936 9.18-.936 1.61 0 2.585.749 3.072 1.91.112.3.037.562-.45.562-2.81-.037-5.433.712-7.718 1.05-1.312 2.135-3.073 5.17-4.909 8.542a19 19 0 0 1 2.51-.3c1.874-.112 2.81.675 3.148 1.799.113.337.038.562-.412.562-1.873-.037-4.758.525-6.894 1.05-1.424 2.772-2.81 5.582-3.897 8.092-.15.375-.374.375-.637.15-.712-.6-1.086-1.798-.3-4.121 1.125-3.298 5.059-10.641 8.356-16M19.239 17.22c-1.499 3.672-1.91 6.782-.225 6.932 1.799.15 4.422-2.548 5.883-5.433.262-.487.674-.524.824 0 .187.6.038 1.424-.375 2.323-.524 1.124-3.26 4.234-6.257 4.159-2.585-.075-3.971-1.873-3.11-5.92 1.387-6.52 5.658-13.301 9.48-17.273.562-.6 1.086-.674 1.61-.187 1.087.974 1.312 2.36.863 4.121-1.162 4.61-5.358 9.105-8.693 11.278m.675-1.61c5.133-4.16 7.23-10.155 6.744-10.454s-3.26 3.859-5.845 8.655q-.506.9-.9 1.798m17.862-3.073c.487-.9.937-1.686 1.35-2.286q.505-.73.898-.224c.562.674.862 2.285-.037 4.158-.824 1.687-2.698 4.497-3.597 6.482-.937 2.099-.974 3.71.3 3.635 1.536-.075 3.597-2.623 4.908-5.208.187-.337.45-.375.6-.038.15.338.15 1.274-.338 2.323-.974 2.061-3.334 4.122-5.395 4.01-2.023-.113-3.072-1.312-3.072-3.073-1.2 1.536-2.885 2.923-4.684 2.923-3.484 0-4.196-4.759-1.086-9.293 3.034-4.42 5.994-6.107 7.868-6.107 1.611 0 2.36 1.237 2.285 2.698m-3.26 5.807c2.361-4.121 2.698-6.444 1.612-6.556-1.2-.113-3.934 2.323-5.995 5.657-1.986 3.222-2.473 6.52-1.012 6.557 1.536.038 3.485-2.36 5.396-5.658m14.641-6.631c1.2-1.162 2.36-1.799 3.335-2.136 1.424-.487 2.323.075 3.072 1.648.712 1.462.6 3.035-.787 4.384-1.273 1.237-2.847 2.323-5.208 3.035.15 3.073 1.2 5.208 2.623 5.358 1.536.15 3.597-2.735 4.721-5.058.225-.45.562-.487.75-.038.187.45.112 1.35-.45 2.286-.9 1.574-2.623 3.972-5.583 3.934-2.623-.037-4.833-2.173-4.758-7.231 0-.675.075-.787.787-1.012 4.646-1.536 7.118-4.796 6.556-5.77-.412-.674-2.06-.262-4.046 1.274-2.81 2.136-4.496 5.433-7.381 12.327-.113.3-.412.375-.675.075-.562-.637-.749-1.836-.037-4.122 1.049-3.41 7.269-15.736 10.603-20.27.338-.45.712-.487.937-.037.562 1.124.487 2.623-1.087 5.358-.899 1.536-2.36 4.159-3.372 5.995m9.47 6.856c1.537-2.098 3.223-4.533 4.31-6.444.186-1.462.561-2.173 1.348-2.885.824-.75 1.686-.9 2.023-.562.375.374.188.786-.3 1.648-.15.225-.262.45-.412.712-.262 3.447.45 6.37.338 8.955-.075 1.461-.338 3.035-1.686 3.934 2.51-.937 4.084-3.185 5.02-5.208.188-.412.562-.3.712 0 .15.337.113 1.311-.524 2.473a7.9 7.9 0 0 1-6.632 4.121c-2.173.075-4.272-.487-5.546-2.81-.899-1.686-.786-4.159.488-5.208.45-.374.749-.225.786.375.038.3.038.6.075.9m4.234-4.046c-1.086 1.985-2.473 4.046-3.896 6.07.562 2.173 1.648 3.709 2.885 3.334 1.723-.524 1.161-6.407 1.011-9.404m22.762-.825c.412-1.348.45-2.622-.112-3.56-.225-.374-.525-.411-.787 0-2.36 3.485-5.246 8.693-5.995 11.054-.6 1.873-.375 3.11.375 3.86.337.336.562.187.711-.15 1.612-3.523 3.26-7.12 5.47-9.518 2.399-2.622 4.572-3.671 4.947-3.522.674.3-2.623 4.272-3.86 7.944-1.086 3.26-.337 5.582 2.848 5.582 2.173 0 4.534-1.91 5.545-4.009.525-1.086.6-1.948.337-2.36-.187-.3-.45-.3-.637.037-1.423 2.623-3.26 5.096-4.795 5.17-1.35.076-1.574-1.685-.6-3.858.862-1.949 2.698-4.721 3.485-6.37.936-1.948-.225-3.784-1.462-3.971s-3.784 1.873-5.47 3.671m22.659 2.96c-.262.3-.637.45-1.012.487-.787 3.185-3.147 6.97-5.92 7.906-1.349.45-3.222.3-4.72-1.648-1.65-2.174-1.087-5.433.599-8.43 1.424-2.549 3.71-4.722 5.957-4.872 1.162-.074 1.799.263 2.548 1.274.862 1.162 1.986 1.424 1.761 4.122-.037.3-.037.562-.075.862.225 0 .45-.075.75-.075.262 0 .262.187.112.374m-3.222-1.011c.3-1.162.412-2.099.3-2.773-.188-1.199-.937-.974-1.125.112-.187 1.012.225 2.099.825 2.66m-.263 1.011a2.9 2.9 0 0 1-.712-.45c-.786-.599-1.686-1.91-1.723-3.296a13.1 13.1 0 0 0-2.885 3.522c-1.574 2.847-2.136 6.294-1.162 7.118 1.05.862 3.335-.45 5.17-3.896a20 20 0 0 0 1.312-2.998m20.177-2.585c.562-1.499.674-2.96.037-4.009-.225-.375-.524-.412-.787 0-2.36 3.522-5.095 8.805-5.882 11.165-.637 1.911-.45 3.148.375 3.86.337.3.562.15.712-.188 1.498-3.522 3.297-7.006 5.507-9.404 2.398-2.623 4.234-3.635 4.684-3.447.75.262-3.297 5.433-4.534 8.542-1.086 2.698-.562 4.16.075 4.721.337.375.637.263.862-.187 1.574-3.522 3.41-7.119 6.52-10.229 2.435-2.435 3.709-2.847 4.008-2.735.562.188-2.772 4.384-4.159 7.494-1.386 3.072-.187 5.657 3.073 5.657 2.173 0 4.57-1.873 5.62-4.009.412-.861.525-2.098.337-2.36-.187-.262-.487-.262-.674.075-1.461 2.623-3.147 5.095-4.684 5.133-1.349.037-1.873-1.686-.824-3.822.937-1.873 2.773-4.346 3.447-6.032.75-1.874.45-4.084-.9-4.122-1.236-.037-3.746 1.724-5.544 3.485.487-1.649-.188-3.634-1.462-3.672-1.349-.037-4.159 2.173-5.807 4.084m20.148 4.234c-1.199 3.447-.3 5.807 1.686 5.92 3.11.15 5.845-2.848 7.456-5.32.188-.3.488-.3.637.037.15.3.038 1.349-.637 2.323-1.573 2.285-4.458 4.009-7.343 4.046-4.759.075-6.407-4.608-3.972-9.441s6.257-6.782 8.13-5.696c.937.562 1.612 1.124 2.211 1.949.675.899.375 3.184-1.199 5.095-1.836 2.248-4.346 3.223-6.969 1.087m.337-.824c1.836 1.161 3.373-.45 4.46-1.874 1.198-1.573 2.022-3.522 1.498-3.934-.787-.637-3.897 1.611-5.658 5.17-.112.225-.225.45-.3.638m31.043 1.573c-1.761 3.934-4.084 6.07-6.257 6.07-1.986 0-3.26-1.012-3.935-2.66-.337.787-.749 1.686-1.086 2.473-.15.374-.375.412-.6.112-.562-.75-.936-1.836-.187-4.121 1.012-3.11 8.355-16.973 10.94-20.57.338-.487.638-.487.937.037.562 1.05.562 2.735-.974 5.545-.562 1.05-2.173 3.635-3.334 5.696 1.086-.975 2.248-1.574 3.222-1.574 3.185 0 3.334 4.421 1.274 8.992m-1.836-7.456c-.787-.075-1.611.337-2.735 1.499-1.686 1.76-3.485 4.87-4.871 7.756.075 1.086.562 2.285 1.573 2.51 1.312.3 3.035-.824 5.208-5.17 2.136-4.234 1.687-6.52.825-6.595m12.467 10.529c-1.199 1.536-2.885 2.997-4.72 2.997-3.448 0-4.197-4.758-1.087-9.254 2.997-4.31 5.957-6.033 7.868-6.033 1.461 0 2.21 1.162 2.21 2.473a39 39 0 0 1 1.312-2.06c.3-.45.6-.563.9-.225.599.674.861 2.248.037 4.121-.75 1.686-2.736 4.609-3.56 6.52-.899 2.135-.75 3.521.412 3.409 2.398-.225 5.77-4.833 7.531-10.341-3.034-1.087.525-6.182 2.024-6.295 1.161-.075.787 2.136 0 4.721 1.349-.15 2.735-.787 4.159-1.76.524-.375.786-.45 1.124-.076.712.787 1.61 2.51.524 3.785-1.76 2.023-3.672 4.646-4.271 6.519-.637 2.06-.225 3.522.937 3.597 1.573.112 3.447-2.36 4.646-5.17.15-.3.412-.375.562 0 .187.449.3 1.386-.15 2.435-.974 2.248-3.185 3.896-5.246 3.821-2.847-.112-3.971-2.697-3.072-5.695.75-2.473 3.035-5.245 4.646-7.044-1.649.974-3.26 1.387-4.421 1.387-1.836 5.283-5.208 10.94-9.217 11.24-2.061.15-3.185-1.161-3.148-3.072m2.623-10.379c-1.162-.075-3.897 2.323-5.957 5.62-2.024 3.222-2.436 6.482-.975 6.52 1.5.037 3.447-2.248 5.358-5.62 2.323-4.085 2.66-6.445 1.574-6.52m22.959-1.611c-1.274 0-2.136-.562-2.436-.974-.375-.525-.15-.787.412-.75 1.05.038 2.098-.037 3.11-.15 1.162-2.06 2.21-3.821 2.848-4.646.337-.487.712-.45.899 0 .412 1.05.412 2.286-.487 4.234 1.461-.037 2.023.637 2.323 1.124.262.45.112.712-.45.712-.824-.112-1.986 0-2.922.15-1.462 2.51-3.597 6.145-5.021 9.292-1.236 2.735-.824 5.058.75 5.133 1.685.075 3.821-2.585 5.207-5.395.225-.45.637-.525.787 0 .188.6 0 1.274-.374 2.136-.488 1.086-2.96 4.383-5.958 4.271-2.473-.075-4.459-2.848-2.66-7.156.787-1.874 2.36-5.021 3.972-7.981m16.926 2.398c.487-.9.936-1.686 1.349-2.286q.505-.73.899-.224c.562.674.862 2.285-.038 4.158-.824 1.687-2.697 4.497-3.597 6.482-.936 2.099-.974 3.71.3 3.635 1.536-.075 3.597-2.623 4.908-5.208.188-.337.45-.375.6-.038.15.338.15 1.274-.337 2.323-.974 2.061-3.335 4.122-5.396 4.01-2.023-.113-3.072-1.312-3.072-3.073-1.2 1.536-2.885 2.923-4.684 2.923-3.484 0-4.196-4.759-1.086-9.293 3.035-4.42 5.995-6.107 7.868-6.107 1.611 0 2.36 1.237 2.286 2.698m-3.26 5.807c2.36-4.121 2.698-6.444 1.611-6.556-1.199-.113-3.934 2.323-5.995 5.657-1.986 3.222-2.473 6.52-1.011 6.557 1.536.038 3.484-2.36 5.395-5.658m13.816-4.646c1.686-1.798 4.234-3.859 5.47-3.671 1.237.187 2.399 2.023 1.462 3.971-.787 1.649-2.623 4.421-3.485 6.37-.974 2.173-.749 3.934.6 3.859 1.536-.075 3.372-2.548 4.796-5.17.187-.338.45-.338.637-.038.262.412.187 1.274-.338 2.36-1.011 2.099-3.372 4.01-5.545 4.01-3.185 0-3.934-2.324-2.847-5.583 1.236-3.672 4.533-7.644 3.859-7.944-.375-.15-2.548.9-4.946 3.522-2.21 2.398-3.86 5.995-5.47 9.517-.15.338-.375.487-.712.15-.75-.75-.974-1.986-.375-3.859.75-2.36 3.635-7.569 5.995-11.053.262-.412.562-.375.787 0 .562.937.524 2.21.112 3.56m23.184-12.027c-2.81 4.122-6.557 11.54-8.056 15.55-.824 2.247-.45 3.484.112 4.083.3.3.45.225.637-.15 1.911-4.158 5.059-10.04 7.12-13.75 1.535-2.773 1.61-4.609 1.123-5.658-.224-.524-.637-.524-.936-.075m-8.43 21.095c-.488-1.05-1.574-1.462-2.136-.862-.6.637-.787 1.76-.188 2.735.525.862 1.611 1.087 2.061.525.412-.525.674-1.537.262-2.398"/></svg>