<?xml version="1.0" encoding="UTF-8"?>
<svg width="265px" height="26px" viewBox="0 0 265 26" version="1.1" xmlns="http://www.w3.org/2000/svg" xmlns:xlink="http://www.w3.org/1999/xlink">
    <!-- Generator: Sketch 42 (36781) - http://www.bohemiancoding.com/sketch -->
    <title>Flaks no me bartan!</title>
    <desc>Created with Sketch.</desc>
    <defs></defs>
    <g id="Page-1" stroke="none" stroke-width="1" fill="none" fill-rule="evenodd">
        <path d="M8.79488899,5.00679234 C7.93312487,4.59464428 7.52097681,3.84528418 7.33363678,3.09592407 C7.25870077,2.79618003 7.37110479,2.646308 7.74578484,2.646308 C10.8556293,2.79618003 14.8272379,1.70960787 16.9254462,1.70960787 C18.5365704,1.70960787 19.5107385,2.45896798 19.9978226,3.62047614 C20.1102266,3.92022019 20.0352906,4.18249622 19.5482065,4.18249622 C16.7381061,4.14502822 14.1153458,4.89438832 11.8297974,5.23160037 C10.5184172,7.36727668 8.75742099,10.4021851 6.92148872,13.7743056 C7.89565686,13.5869656 8.75742099,13.5120296 9.43184508,13.4745615 C11.3052453,13.3621575 12.2419455,14.1489856 12.5791575,15.2730258 C12.6915615,15.6102379 12.6166255,15.8350459 12.1670095,15.8350459 C10.2936092,15.7975779 7.40857279,16.359598 5.27289649,16.88415 C3.84911229,19.6567824 2.46279609,22.4668828 1.37622393,24.9772392 C1.22635191,25.3519192 1.00154388,25.3519192 0.739267843,25.1271112 C0.0273757417,24.5276231 -0.347304312,23.328647 0.4395238,21.0056306 C1.56356396,17.7084462 5.49770452,10.3647171 8.79488899,5.00679234 Z M19.2390955,17.2213621 C17.7403752,20.8932266 17.3282272,24.003071 19.0142874,24.1529431 C20.8127517,24.3028151 23.4355121,21.6051187 24.8967643,18.7200823 C25.1590403,18.2329982 25.5711884,18.1955302 25.7210604,18.7200823 C25.9084004,19.3195704 25.7585284,20.1438665 25.3463803,21.0430986 C24.8218283,22.1671388 22.0866639,25.2769832 19.0892234,25.2020472 C16.5039311,25.1271112 15.1176149,23.328647 15.979379,19.2821024 C17.3656952,12.7626694 21.6370478,5.98096048 25.4587843,2.00935191 C26.0208044,1.40986383 26.5453565,1.33492782 27.0699086,1.82201189 C28.1564807,2.79618003 28.3812888,4.18249622 27.9316727,5.94349247 C26.7701645,10.5520571 22.5737479,15.0482178 19.2390955,17.2213621 Z M19.9135196,15.6102379 C25.0466363,11.4512893 27.1448446,5.4564084 26.6577605,5.15666436 C26.1706764,4.85692032 23.3980441,9.01586891 20.8127517,13.8117736 C20.4755396,14.4112617 20.1757956,15.0107498 19.9135196,15.6102379 Z M37.7763911,12.5378614 C38.2634752,11.6386293 38.7130912,10.8518012 39.1252393,10.2523131 C39.4624513,9.76522902 39.7621954,9.69029301 40.0244714,10.0275051 C40.5864915,10.7019292 40.8862355,12.3130534 39.9870034,14.1864536 C39.1627073,15.8725139 37.289307,18.6826143 36.3900749,20.6684186 C35.4533748,22.7666269 35.4159067,24.3777511 36.6898189,24.3028151 C38.2260071,24.2278791 40.2867474,21.6800547 41.5981276,19.0947623 C41.7854677,18.7575503 42.0477437,18.7200823 42.1976157,19.0572943 C42.3474877,19.3945064 42.3474877,20.3312065 41.8604037,21.3803107 C40.8862355,23.441051 38.5257512,25.5017913 36.4650109,25.3893872 C34.4417386,25.2769832 33.3926345,24.0780071 33.3926345,22.3170108 C32.1936583,23.853199 30.507598,25.2395152 28.7091338,25.2395152 C25.2246093,25.2395152 24.5127172,20.4810785 27.6225616,15.9474499 C30.6574701,11.5262253 33.6174425,9.84016503 35.4908428,9.84016503 C37.101967,9.84016503 37.8513271,11.0766092 37.7763911,12.5378614 Z M34.5166746,18.3454022 C36.877159,14.2239217 37.214371,11.9009053 36.1277988,11.7885013 C34.9288227,11.6760973 32.1936583,14.1115176 30.132918,17.4461701 C28.1471137,20.6684186 27.6600296,23.965603 29.1212818,24.003071 C30.6574701,24.0405391 32.6058063,21.6425867 34.5166746,18.3454022 Z M49.1572977,11.7135653 C50.3562739,10.5520571 51.517782,9.91510104 52.4919502,9.57788899 C53.9157344,9.09080492 54.8149665,9.652825 55.5643266,11.2264812 C56.2762187,12.6877334 56.1638147,14.2613897 54.7774985,15.6102379 C53.5035863,16.846682 51.9299301,17.9332542 49.5694457,18.6451463 C49.7193178,21.7175227 50.7684219,23.853199 52.1922061,24.003071 C53.7283943,24.1529431 55.7891346,21.2679067 56.9131748,18.9448903 C57.1379828,18.4952743 57.4751949,18.4578063 57.6625349,18.9074223 C57.8498749,19.3570384 57.7749389,20.2562705 57.2129188,21.1929706 C56.3136867,22.7666269 54.5901585,25.1645792 51.630186,25.1271112 C49.0074257,25.0896432 46.7968134,22.9539669 46.8717494,17.8957862 C46.8717494,17.2213621 46.9466854,17.1089581 47.6585775,16.88415 C52.3046101,15.3479618 54.7774985,12.0882454 54.2154784,11.1140772 C53.8033303,10.4396531 52.1547381,10.8518012 50.1689338,12.3879894 C47.3588334,14.5236657 45.6727732,17.8208502 42.7877368,24.7149632 C42.6753328,25.0147072 42.3755887,25.0896432 42.1133127,24.7898992 C41.5512926,24.1529431 41.3639526,22.9539669 42.0758447,20.6684186 C43.1249488,17.2588301 49.3446377,4.93185633 52.6792902,0.398227684 C53.0165022,-0.0513883803 53.3911823,-0.0888563857 53.6159903,0.360759678 C54.1780104,1.48479984 54.1030744,2.98352005 52.5294182,5.71868444 C51.630186,7.25487266 50.1689338,9.87763304 49.1572977,11.7135653 Z M58.627336,18.5702103 C60.1635242,16.472002 61.8495845,14.0365816 62.9361566,12.1257134 C63.1234967,10.6644611 63.4981767,9.95256905 64.2850048,9.24067694 C65.1093009,8.49131684 65.9710651,8.34144482 66.3082771,8.67865686 C66.6829572,9.05333692 66.4956171,9.46548498 66.0085331,10.3272491 C65.858661,10.5520571 65.746257,10.7768652 65.596385,11.0391412 C65.334109,14.4861977 66.0460011,17.4087021 65.9335971,19.9939945 C65.858661,21.4552467 65.596385,23.0289029 64.2475368,23.928135 C66.7578932,22.9914349 68.3315494,20.7433546 69.2682495,18.7200823 C69.4555896,18.3079342 69.8302696,18.4203383 69.9801416,18.7200823 C70.1300137,19.0572943 70.0925457,20.0314625 69.4555896,21.1929706 C68.0318054,23.778263 65.483981,25.2020472 62.8237526,25.3144512 C60.6506083,25.3893872 58.5524,24.8273672 57.2784878,22.5043508 C56.3792557,20.8182906 56.4916597,18.3454022 57.7655719,17.2962981 C58.215188,16.921618 58.514932,17.0714901 58.5524,17.6709781 C58.589868,17.9707222 58.589868,18.2704662 58.627336,18.5702103 Z M62.8612206,14.5236657 C61.7746485,16.50947 60.3883323,18.5702103 58.9645481,20.5934826 C59.5265681,22.7666269 60.6131403,24.3028151 61.8495845,23.928135 C63.5731127,23.403583 63.0110926,17.5211061 62.8612206,14.5236657 Z M85.6230338,13.6993696 C86.0351819,12.3505214 86.0726499,11.0766092 85.5106298,10.1399091 C85.2858218,9.76522902 84.9860777,9.72776101 84.7238017,10.1399091 C82.3633174,13.6244336 79.4782809,18.8324863 78.7289208,21.1929706 C78.1294328,23.0663709 78.3542408,24.3028151 79.1036009,25.0521752 C79.4408129,25.3893872 79.665621,25.2395152 79.815493,24.9023032 C81.4266172,21.3803107 83.0752095,17.7833822 85.2858218,15.3854298 C87.6837741,12.7626694 89.8569184,11.7135653 90.2315985,11.8634373 C90.9060226,12.1631814 87.6088381,16.1347899 86.3723939,19.8066545 C85.2858218,23.0663709 86.0351819,25.3893872 89.2199623,25.3893872 C91.3931066,25.3893872 93.753591,23.478519 94.7652271,21.3803107 C95.2897792,20.2937385 95.3647152,19.4319744 95.1024392,19.0198263 C94.9150992,18.7200823 94.6528231,18.7200823 94.4654831,19.0572943 C93.0416989,21.6800547 91.2057666,24.1529431 89.6695784,24.2278791 C88.3207302,24.3028151 88.0959222,22.5418188 89.0700903,20.3686745 C89.9318544,18.4203383 91.7677867,15.6477059 92.5546148,13.9991136 C93.4913149,12.0507773 92.3298068,10.2148451 91.0933626,10.0275051 C89.8569184,9.84016503 87.3090941,11.9009053 85.6230338,13.6993696 Z M108.28181,16.659342 C108.019534,16.959086 107.644854,17.1089581 107.270174,17.1464261 C106.483346,20.3312065 104.122861,24.1154751 101.350229,25.0521752 C100.001381,25.5017913 98.1279806,25.3519192 96.6292604,23.403583 C94.9806681,21.2304387 95.5426882,17.9707222 97.2287485,14.9732818 C98.6525327,12.4254574 100.938081,10.2523131 103.186161,10.1024411 C104.347669,10.0275051 104.984626,10.3647171 105.733986,11.3763532 C106.59575,12.5378614 107.71979,12.8001375 107.494982,15.4978338 C107.457514,15.7975779 107.457514,16.0598539 107.420046,16.359598 C107.644854,16.359598 107.869662,16.2846619 108.169406,16.2846619 C108.431682,16.2846619 108.431682,16.472002 108.28181,16.659342 Z M105.059562,15.6477059 C105.359306,14.4861977 105.47171,13.5494976 105.359306,12.8750735 C105.171966,11.6760973 104.422605,11.9009053 104.235265,12.9874775 C104.047925,13.9991136 104.460073,15.0856858 105.059562,15.6477059 Z M104.797286,16.659342 C104.53501,16.546938 104.310201,16.397066 104.085393,16.2097259 C103.298565,15.6102379 102.399333,14.2988577 102.361865,12.9125415 C101.350229,13.7743056 100.263657,15.0107498 99.4768288,16.434534 C97.9031726,19.2821024 97.3411525,22.7291589 98.3153206,23.553455 C99.3644248,24.4152191 101.649973,23.1038389 103.485905,19.6567824 C104.047925,18.6076783 104.497541,17.5585741 104.797286,16.659342 Z M124.973806,14.0740496 C125.535826,12.5753294 125.64823,11.1140772 125.011274,10.0649731 C124.786466,9.69029301 124.486722,9.652825 124.224446,10.0649731 C121.863962,13.5869656 119.128798,18.8699543 118.341969,21.2304387 C117.705013,23.1413069 117.892353,24.3777511 118.716649,25.0896432 C119.053862,25.3893872 119.27867,25.2395152 119.428542,24.9023032 C120.927262,21.3803107 122.725726,17.8957862 124.936338,15.4978338 C127.334291,12.8750735 129.170223,11.8634373 129.619839,12.0507773 C130.369199,12.3130534 126.322655,17.4836381 125.08621,20.5934826 C123.999638,23.2911789 124.52419,24.7524312 125.161146,25.3144512 C125.498358,25.6891313 125.798102,25.5767273 126.022911,25.1271112 C127.596567,21.6051187 129.432499,18.0081902 132.542343,14.8983458 C134.977764,12.4629254 136.251676,12.0507773 136.55142,12.1631814 C137.11344,12.3505214 133.778788,16.546938 132.392471,19.6567824 C131.006155,22.7291589 132.205131,25.3144512 135.464848,25.3144512 C137.637992,25.3144512 140.035945,23.441051 141.085049,21.3053747 C141.497197,20.4436105 141.609601,19.2071664 141.422261,18.9448903 C141.234921,18.6826143 140.935177,18.6826143 140.747837,19.0198263 C139.286584,21.6425867 137.600524,24.1154751 136.064336,24.1529431 C134.715488,24.1904111 134.190936,22.4668828 135.24004,20.3312065 C136.17674,18.4578063 138.012672,15.9849179 138.687096,14.2988577 C139.436456,12.4254574 139.136712,10.2148451 137.787864,10.1773771 C136.55142,10.1399091 134.041064,11.9009053 132.242599,13.6619016 C132.729683,12.0133093 132.055259,10.0275051 130.781347,9.99003705 C129.432499,9.95256905 126.622399,12.1631814 124.973806,14.0740496 Z M145.122226,18.3079342 C143.92325,21.7549907 144.822482,24.1154751 146.808286,24.2278791 C149.918131,24.3777511 152.653295,21.3803107 154.26442,18.9074223 C154.45176,18.6076783 154.751504,18.6076783 154.901376,18.9448903 C155.051248,19.2446344 154.938844,20.2937385 154.26442,21.2679067 C152.690763,23.553455 149.805727,25.2769832 146.92069,25.3144512 C142.162254,25.3893872 140.513662,20.7058866 142.949082,15.8725139 C145.384502,11.0391412 149.206239,9.09080492 151.079639,10.1773771 C152.016339,10.7393972 152.690763,11.3014172 153.290251,12.1257134 C153.964675,13.0249455 153.664931,15.3104938 152.091275,17.2213621 C150.255343,19.4694424 147.744987,20.4436105 145.122226,18.3079342 Z M145.459438,17.4836381 C147.295371,18.6451463 148.831559,17.0340221 149.918131,15.6102379 C151.117107,14.0365816 151.941403,12.0882454 151.416851,11.6760973 C150.630023,11.0391412 147.520179,13.2872215 145.759182,16.846682 C145.646778,17.0714901 145.534374,17.2962981 145.459438,17.4836381 Z M176.501681,19.0572943 C174.740684,22.9914349 172.417668,25.1271112 170.244524,25.1271112 C168.258719,25.1271112 166.984807,24.1154751 166.310383,22.4668828 C165.973171,23.2537109 165.561023,24.1529431 165.223811,24.9397712 C165.073939,25.3144512 164.849131,25.3519192 164.624323,25.0521752 C164.062303,24.3028151 163.687623,23.2162429 164.436983,20.9306946 C165.448619,17.8208502 172.792348,3.95768819 175.377641,0.360759678 C175.714853,-0.126324391 176.014597,-0.126324391 176.314341,0.398227684 C176.876361,1.44733183 176.876361,3.13339207 175.340172,5.94349247 C174.778152,6.99259662 173.167028,9.57788899 172.00552,11.6386293 C173.092092,10.6644611 174.2536,10.0649731 175.227768,10.0649731 C178.412549,10.0649731 178.562421,14.4861977 176.501681,19.0572943 Z M174.665748,11.6011613 C173.87892,11.5262253 173.054624,11.9383733 171.930584,13.0998815 C170.244524,14.8608777 168.44606,17.9707222 167.059743,20.8557586 C167.134679,21.9423308 167.621763,23.1413069 168.6334,23.366115 C169.94478,23.665859 171.668308,22.5418188 173.841452,18.1955302 C175.977129,13.9616456 175.527513,11.6760973 174.665748,11.6011613 Z M187.133227,22.1296708 C185.934251,23.665859 184.248191,25.1271112 182.412258,25.1271112 C178.965202,25.1271112 178.215842,20.3686745 181.325686,15.8725139 C184.323127,11.5636933 187.283099,9.84016503 189.193967,9.84016503 C190.65522,9.84016503 191.40458,11.0016732 191.40458,12.3130534 C191.9666,11.3763532 192.453684,10.6269931 192.71596,10.2523131 C193.015704,9.80269702 193.315448,9.69029301 193.615192,10.0275051 C194.21468,10.7019292 194.476956,12.2755854 193.65266,14.1489856 C192.9033,15.8350459 190.917496,18.7575503 190.0932,20.6684186 C189.193967,22.8040949 189.343839,24.1904111 190.505348,24.0780071 C192.9033,23.853199 196.27542,19.2446344 198.036417,13.7368376 C195.001508,12.6502654 198.560969,7.5546167 200.059689,7.44221269 C201.221197,7.36727668 200.846517,9.57788899 200.059689,12.1631814 C201.408537,12.0133093 202.794853,11.3763532 204.218638,10.4021851 C204.74319,10.0275051 205.005466,9.95256905 205.342678,10.3272491 C206.05457,11.1140772 206.953802,12.8376055 205.86723,14.1115176 C204.106234,16.1347899 202.195365,18.7575503 201.595877,20.6309506 C200.958921,22.6916909 201.371069,24.1529431 202.532577,24.2278791 C204.106234,24.3402831 205.979634,21.8673947 207.17861,19.0572943 C207.328482,18.7575503 207.590758,18.6826143 207.74063,19.0572943 C207.92797,19.5069104 208.040374,20.4436105 207.590758,21.4927147 C206.61659,23.740795 204.405978,25.3893872 202.345237,25.3144512 C199.497669,25.2020472 198.373629,22.6167549 199.272861,19.6193144 C200.022221,17.1464261 202.307769,14.3737937 203.918894,12.5753294 C202.270301,13.5494976 200.659177,13.9616456 199.497669,13.9616456 C197.661737,19.2446344 194.289616,24.9023032 190.28054,25.2020472 C188.219799,25.3519192 187.095759,24.0405391 187.133227,22.1296708 Z M189.755988,11.7510333 C188.594479,11.6760973 185.859315,14.0740496 183.798575,17.3712341 C181.775302,20.5934826 181.363154,23.853199 182.824407,23.890667 C184.323127,23.928135 186.271463,21.6425867 188.182331,18.2704662 C190.505348,14.1864536 190.84256,11.8259693 189.755988,11.7510333 Z M212.714508,10.1399091 C211.440596,10.1399091 210.578831,9.57788899 210.279087,9.16574093 C209.904407,8.64118886 210.129215,8.37891282 210.691235,8.41638083 C211.74034,8.45384883 212.789444,8.37891282 213.80108,8.26650881 C214.962588,6.20576851 216.011692,4.44477226 216.648648,3.62047614 C216.98586,3.13339207 217.36054,3.17086008 217.54788,3.62047614 C217.960029,4.66958029 217.960029,5.90602447 217.060796,7.85436075 C218.522049,7.81689274 219.084069,8.49131684 219.383813,8.97840091 C219.646089,9.42801697 219.496217,9.69029301 218.934197,9.69029301 C218.109901,9.57788899 216.948392,9.69029301 216.011692,9.84016503 C214.55044,12.3505214 212.414764,15.9849179 210.99098,19.1322304 C209.754535,21.8673947 210.166683,24.1904111 211.74034,24.2653471 C213.4264,24.3402831 215.562076,21.6800547 216.948392,18.8699543 C217.1732,18.4203383 217.585348,18.3454022 217.735221,18.8699543 C217.922561,19.4694424 217.735221,20.1438665 217.36054,21.0056306 C216.873456,22.0922028 214.400568,25.3893872 211.403128,25.2769832 C208.930239,25.2020472 206.944435,22.4294148 208.742899,18.1205942 C209.529727,16.2471939 211.103384,13.0998815 212.714508,10.1399091 Z M229.640679,12.5378614 C230.127763,11.6386293 230.577379,10.8518012 230.989527,10.2523131 C231.326739,9.76522902 231.626483,9.69029301 231.88876,10.0275051 C232.45078,10.7019292 232.750524,12.3130534 231.851291,14.1864536 C231.026995,15.8725139 229.153595,18.6826143 228.254363,20.6684186 C227.317663,22.7666269 227.280195,24.3777511 228.554107,24.3028151 C230.090295,24.2278791 232.151036,21.6800547 233.462416,19.0947623 C233.649756,18.7575503 233.912032,18.7200823 234.061904,19.0572943 C234.211776,19.3945064 234.211776,20.3312065 233.724692,21.3803107 C232.750524,23.441051 230.390039,25.5017913 228.329299,25.3893872 C226.306027,25.2769832 225.256923,24.0780071 225.256923,22.3170108 C224.057946,23.853199 222.371886,25.2395152 220.573422,25.2395152 C217.088897,25.2395152 216.377005,20.4810785 219.48685,15.9474499 C222.521758,11.5262253 225.481731,9.84016503 227.355131,9.84016503 C228.966255,9.84016503 229.715615,11.0766092 229.640679,12.5378614 Z M226.380963,18.3454022 C228.741447,14.2239217 229.078659,11.9009053 227.992087,11.7885013 C226.793111,11.6760973 224.057946,14.1115176 221.997206,17.4461701 C220.011402,20.6684186 219.524318,23.965603 220.98557,24.003071 C222.521758,24.0405391 224.470094,21.6425867 226.380963,18.3454022 Z M240.19729,13.6993696 C241.88335,11.9009053 244.431174,9.84016503 245.667618,10.0275051 C246.904063,10.2148451 248.065571,12.0507773 247.128871,13.9991136 C246.342043,15.6477059 244.50611,18.4203383 243.644346,20.3686745 C242.670178,22.5418188 242.894986,24.3028151 244.243834,24.2278791 C245.780022,24.1529431 247.615955,21.6800547 249.039739,19.0572943 C249.227079,18.7200823 249.489355,18.7200823 249.676695,19.0198263 C249.938971,19.4319744 249.864035,20.2937385 249.339483,21.3803107 C248.327847,23.478519 245.967362,25.3893872 243.794218,25.3893872 C240.609438,25.3893872 239.860078,23.0663709 240.94665,19.8066545 C242.183094,16.1347899 245.480278,12.1631814 244.805854,11.8634373 C244.431174,11.7135653 242.25803,12.7626694 239.860078,15.3854298 C237.649465,17.7833822 236.000873,21.3803107 234.389749,24.9023032 C234.239877,25.2395152 234.015069,25.3893872 233.677857,25.0521752 C232.928497,24.3028151 232.703689,23.0663709 233.303177,21.1929706 C234.052537,18.8324863 236.937573,13.6244336 239.298058,10.1399091 C239.560334,9.72776101 239.860078,9.76522902 240.084886,10.1399091 C240.646906,11.0766092 240.609438,12.3505214 240.19729,13.6993696 Z M263.380618,1.67213987 C260.570518,5.79362045 256.823717,13.2122855 255.324997,17.2213621 C254.500701,19.4694424 254.875381,20.7058866 255.437401,21.3053747 C255.737145,21.6051187 255.887017,21.5301827 256.074357,21.1555026 C257.985225,16.9965541 261.132538,11.1140772 263.193278,7.40474468 C264.729466,4.63211229 264.804402,2.79618003 264.317318,1.74707588 C264.09251,1.2225238 263.680362,1.2225238 263.380618,1.67213987 Z M254.950317,22.7666269 C254.463233,21.7175227 253.376661,21.3053747 252.81464,21.9048627 C252.215152,22.5418188 252.027812,23.665859 252.6273,24.6400271 C253.151852,25.5017913 254.238425,25.7265993 254.688041,25.1645792 C255.100189,24.6400271 255.362465,23.628391 254.950317,22.7666269 Z" id="Flaks-no-me-bartan!" fill="#FFFFFF"></path>
    </g>
</svg>