<?xml version="1.0" encoding="UTF-8"?>
<svg width="86px" height="102px" viewBox="0 0 86 102" version="1.1" xmlns="http://www.w3.org/2000/svg" xmlns:xlink="http://www.w3.org/1999/xlink">
    <!-- Generator: Sketch 42 (36781) - http://www.bohemiancoding.com/sketch -->
    <title>Logo</title>
    <desc>Created with Sketch.</desc>
    <defs></defs>
    <g id="Symbols" stroke="none" stroke-width="1" fill="none" fill-rule="evenodd">
        <g id="Logo">
            <g id="Page-1">
                <g>
                    <g id="FK_Kampbart-logo-jul2">
                        <g id="Group-5">
                            <path d="M42.9646444,101.888656 C49.8401503,101.888656 65.9389323,86.9971108 72.8144382,77.520678 C79.689959,68.0442452 85.8946948,55.183371 85.8946948,37.9227261 C85.8946948,37.2458349 85.1400597,15.1623527 80.8638292,10.8471953 C76.5875837,6.53203781 62.0393399,0.0169799114 42.9646444,0.0169799114 C23.889949,0.0169799114 9.34169476,6.53203781 5.06545823,10.8471953 C0.789223194,15.1623527 0.0345940972,37.2458349 0.0345940972,37.9227261 C0.0345940972,55.183371 6.23932688,68.0442452 13.1148432,77.520678 C19.9903566,86.9971108 36.0891236,101.888656 42.9646444,101.888656" id="Fill-1" fill="#1A1918"></path>
                            <path d="M42.9646444,100.873323 C49.6791691,100.873323 65.400626,86.2786059 72.1148222,76.9913477 C78.8293469,67.7034266 84.8885247,55.0991043 84.8885247,38.1826529 C84.8885247,37.5189598 84.1516569,15.8757953 79.9757149,11.646592 C75.7994146,7.41740384 61.5922594,1.03230931 42.9646444,1.03230931 C24.3370295,1.03230931 10.1298624,7.41740384 5.95357396,11.646592 C1.77762149,15.8757953 1.04076722,37.5189598 1.04076722,38.1826529 C1.04076722,55.0991043 7.09994052,67.7034266 13.8144667,76.9913477 C20.5286628,86.2786059 36.2501198,100.873323 42.9646444,100.873323" id="Fill-3" fill="#D9222A"></path>
                            <path d="M42.9646444,99.857991 C49.5178444,99.857991 64.8619913,85.560086 71.4151913,76.461686 C77.9683913,67.362623 83.8823396,55.0148225 83.8823396,38.4422331 C83.8823396,37.7920848 83.1629257,16.5892378 79.0872573,12.4463353 C75.0115889,8.30276987 61.1451788,2.04765377 42.9646444,2.04765377 C24.7840951,2.04765377 10.917697,8.30276987 6.84202562,12.4463353 C2.76635424,16.5892378 2.04694035,37.7920848 2.04694035,38.4422331 C2.04694035,55.0148225 7.9608901,67.362623 14.5140976,76.461686 C21.0672976,85.560086 36.4114444,99.857991 42.9646444,99.857991" id="Fill-4" fill="#1A1918"></path>
                        </g>
                        <g id="Group-10" transform="translate(17.767361, 3.013294)" fill="#D9222A">
                            <path d="M10.1030142,86.6426419 C6.44020556,83.3634549 2.85487153,79.6436189 0.0429552083,76.258831 L0.0422833333,4.46740414 C2.94275278,3.3532387 6.32683785,2.33790931 10.104358,1.56219705 L10.1030142,86.6426419 L10.1030142,86.6426419 Z" id="Fill-6"></path>
                            <path d="M30.228149,0.214169867 C28.5944625,0.107228065 26.9158201,0.0496892171 25.1972833,0.0496892171 L25.1972833,95.8293616 C26.5458858,95.8293616 28.2768448,95.2056097 30.228149,94.1381654 L30.228149,0.214169867 L30.228149,0.214169867 Z M20.1664177,0.214169867 C21.8001042,0.107228065 23.4787316,0.0496892171 25.1972833,0.0496892171 L25.1972833,95.8293616 C23.848009,95.8293616 22.1163781,95.2052783 20.1640736,94.1371409 L20.1664177,0.214169867 L20.1664177,0.214169867 Z" id="Fill-8"></path>
                            <path d="M40.2902087,86.6439979 C43.9536892,83.3644644 47.5396951,79.6439504 50.3519399,76.258831 L50.3512681,4.46740414 C47.4514854,3.3532387 44.0677139,2.33790931 40.2902087,1.56219705 L40.2902087,86.6439979" id="Fill-9"></path>
                        </g>
                        <g id="Group-25" transform="translate(19.111111, 26.516987)">
                            <path d="M47.7561733,21.6115099 C48.6194729,34.575951 38.1572892,45.8207654 24.8013399,46.7260945 C11.4464059,47.6317702 0.925873611,37.8554845 0.0622305556,24.8910434 C-0.800725694,11.9262558 8.32023125,1.02057253 21.6751653,0.114896898 C35.0307712,-0.79077873 46.8925451,8.64673737 47.7561733,21.6115099" id="Fill-11" fill="#1A1918"></path>
                            <path d="M33.8317431,3.48716455 C32.3587094,3.43233767 30.9225691,3.56364195 29.5649038,3.932213 L29.5209632,3.92409217 C27.1343288,3.45534417 24.8811736,3.01401713 22.1816097,3.21673648 C22.1692024,3.2204579 22.1567951,3.22621329 22.1450448,3.23095923 C20.418117,2.43662482 18.748209,1.82878316 17.2560493,1.43313767 C22.9506528,0.0059211226 29.0608184,0.759636337 33.8317431,3.48716455" id="Fill-13" fill="#FFFFFF"></path>
                            <path d="M2.85503576,34.0158248 C4.09464514,35.0612871 5.33122361,35.6055031 6.5902875,36.0982821 C8.32493437,38.4873572 10.8225774,40.5027838 14.2217722,42.2579672 C14.5199354,43.1443427 14.9790799,44.1522292 15.4580222,44.9942792 C10.4637215,43.3866718 5.12328576,37.804379 2.85503576,34.0158248" id="Fill-14" fill="#FFFFFF"></path>
                            <path d="M21.5711889,39.4505716 L22.1027913,39.2170414 C22.9124306,36.4428071 23.3668719,34.1796425 23.1408233,31.5597492 C20.4315396,29.8360396 17.6229677,27.9306133 15.4939153,25.3608009 C15.3490142,25.3987081 11.0516569,26.5186139 11.0516569,26.5186139 C11.0516569,26.5186139 8.47418021,27.1988951 8.33498264,27.2361244 C8.30849583,27.3170012 8.28266597,27.399249 8.25650764,27.4811504 L8.22330208,27.5850487 C7.43077326,30.0915669 6.68452917,32.997452 6.80963229,35.9368449 C8.52012153,38.2920656 10.9886052,40.2821202 14.3529073,42.0176721 C16.7224462,41.5993516 18.700924,40.7204038 20.6136476,39.8702331 L21.5711889,39.4505716 L21.5711889,39.4505716 Z" id="Fill-15" fill="#FFFFFF"></path>
                            <path d="M28.1462024,45.5757244 C29.267084,44.7668508 30.0790524,43.9843586 30.7921059,42.9988157 C33.6747931,42.1709734 35.9648417,40.6215829 38.2062465,37.9840919 L38.6918927,37.95194 C39.666216,37.8916892 40.7461729,37.8118219 41.7171219,37.4550931 C38.3360528,41.4659982 33.7757385,44.1935264 28.1462024,45.5757244" id="Fill-16" fill="#FFFFFF"></path>
                            <path d="M46.904624,27.5952035 C46.269717,25.6877433 45.6891573,24.197564 44.7014413,23.0559926 C44.4029347,19.3598411 43.584591,16.7088204 41.887166,13.9301867 C42.0438024,13.0813719 42.090759,12.1574207 42.0310517,11.2635873 C41.981751,10.5213829 41.8415531,9.82317253 41.6510542,9.18554446 C44.3935434,11.6927406 46.7671135,16.5957767 47.1481115,22.3147976 C47.2614792,24.0188756 47.1866771,25.7940071 46.904624,27.5952035" id="Fill-17" fill="#FFFFFF"></path>
                            <path d="M19.475342,16.7389383 C19.4749986,16.7433377 19.475342,16.7528145 19.4756705,16.7568674 C19.4807021,16.8296384 19.5377219,16.8871773 19.6094931,16.8908987 C19.6104934,16.8908987 28.0771038,17.3342597 28.8438177,17.3745323 C28.8703045,17.5227713 30.3296021,25.8204035 30.3296021,25.8204035 C30.344025,25.897574 30.4161247,25.9503669 30.4946146,25.9371687 C30.571074,25.9219365 30.6227337,25.847478 30.609983,25.7710006 L29.1047441,17.2120857 C29.0926802,17.1454015 29.0373326,17.0966765 28.9722653,17.0932866 L19.6252597,16.603566 C19.5474417,16.6001761 19.4803736,16.6604118 19.475342,16.7389383" id="Fill-18" fill="#FFFFFF"></path>
                            <path d="M16.5876233,1.65075775 C16.5812479,1.66430251 16.5755444,1.70118523 16.5765597,1.71676396 C16.5802476,1.77124431 16.6141101,1.8182969 16.6637542,1.83994742 C16.6637542,1.83994742 19.327425,2.96832053 19.5514729,3.06308863 C19.3878042,3.25396573 16.3920927,6.71794298 16.3920927,6.71794298 C16.3702941,6.741974 16.3494958,6.7731164 16.3515115,6.80222482 C16.3518399,6.80932112 16.3535122,6.81575451 16.3572,6.82251935 L16.4058438,6.92100886 C16.4165639,6.94436189 16.4246264,6.95790665 16.4477688,6.96635894 C16.4715681,6.9741483 16.485991,6.96738346 16.5088049,6.95655066 L16.6067344,6.90645465 L19.8955774,3.10235185 C19.9167042,3.07865229 19.9351583,3.00454032 19.9274392,2.97442245 C19.9167042,2.92940384 19.8855142,2.89250606 19.8439326,2.87490842 L16.7744344,1.57393383 C16.7023198,1.54414742 16.6184698,1.57833323 16.5876233,1.65075775" id="Fill-19" fill="#FFFFFF"></path>
                            <path d="M37.8614701,37.9681817 C37.9151306,37.90659 37.9667903,37.8480266 38.0197788,37.7854254 C38.7848056,35.2213684 39.1436764,32.2440833 39.036684,29.3825388 C36.7764816,28.6992142 34.4887771,27.7532659 31.8552958,26.4133595 C29.0812733,28.5777182 26.1660524,30.3487968 23.4118278,31.5465359 C23.4202038,31.6487468 23.4289233,31.7506263 23.4356271,31.8508032 C23.6033271,34.3708662 23.1488708,36.5842812 22.3690927,39.2634009 C22.4606469,39.3365185 22.552216,39.4058996 22.6434417,39.4762901 C25.2685469,41.5113483 27.8386479,42.5554547 30.6951767,42.7436349 C33.4748878,41.9499784 35.6958528,40.4706319 37.8614701,37.9681817" id="Fill-20" fill="#FFFFFF"></path>
                            <path d="M39.0319809,28.9896053 C39.1829139,29.0379988 39.3325031,29.0857143 39.4827493,29.1320889 C42.0260201,27.50146 43.3266656,25.2521566 44.4331243,23.0827356 C44.1373052,19.4238133 43.3286812,16.8032419 41.6480382,14.0581161 C39.1751948,12.3953504 37.1293205,11.9533303 34.0309764,11.7025489 C32.7819757,13.5145781 31.4860184,15.1204981 30.1743094,16.4790115 C30.2259542,16.6387613 30.2762701,16.8086508 30.3265712,16.9738245 C31.0942854,19.4498783 31.4028403,22.4572812 31.9505378,26.1571542 C34.4186781,27.4141347 36.9146639,28.3201569 39.0319809,28.9896053" id="Fill-21" fill="#FFFFFF"></path>
                            <path d="M29.8392528,16.2701903 C29.8841937,16.2796671 29.93015,16.2871099 29.9754194,16.2965867 C31.2794243,14.9468721 32.5686628,13.349088 33.8116316,11.5461891 C32.4942042,8.72559527 31.2438747,6.06711669 29.4944764,4.1948517 C29.4840698,4.19314919 29.4699903,4.19010576 29.4699903,4.19010576 C27.1014517,3.72610369 24.8654069,3.28747356 22.2379576,3.47937518 C19.8147583,4.37253058 17.7943556,6.26679261 16.0627396,9.26372437 C16.0758187,9.29620768 16.0905701,9.32903752 16.1039927,9.36051137 C17.0816455,11.721849 19.0044472,14.4178883 19.8405733,15.5367846 C23.0965542,15.3465855 26.4585122,15.5936455 29.8392528,16.2701903" id="Fill-22" fill="#FFFFFF"></path>
                            <path d="M15.0240208,25.2027536 L15.3429823,25.1127164 C15.3429823,25.1127164 17.9201306,18.480577 19.6081493,15.6779123 C18.7468653,14.5248301 16.7965764,11.7827628 15.8232684,9.39436573 C13.1783653,9.47219911 10.5901535,10.0242044 7.69305833,11.1285465 C6.07512361,14.0452644 4.82445069,17.1271258 3.97658924,20.2909037 L3.89777083,20.7833513 C4.88683056,23.3612694 6.37363021,25.4897548 8.26153924,26.9748417 L10.9829017,26.2563217 L15.0240208,25.2027536 L15.0240208,25.2027536 Z" id="Fill-23" fill="#FFFFFF"></path>
                            <path d="M7.03366528,7.14641832 C2.59443785,12.0007143 0.539157292,17.6669575 0.604896528,24.8798641 C1.36321944,23.5863323 2.18761007,22.3933241 2.99790625,21.2500653 L3.71028785,20.2401448 L3.72100799,20.2015595 C4.57224375,17.0320263 5.82424549,13.9447409 7.44385243,11.0216047 C7.34525104,10.4733208 7.27515208,9.8888322 7.23457083,9.27624461 C7.18459826,8.52828479 7.18728576,7.73767179 7.22450764,6.93218818 C7.15944028,7.00257873 7.09840417,7.07534978 7.03366528,7.14641832" id="Fill-24" fill="#FFFFFF"></path>
                        </g>
                        <g id="Group-29" transform="translate(13.885417, 49.116691)" fill="#555D5B">
                            <path d="M28.0593066,15.0120948 C28.0593066,15.0120948 17.9291486,21.4496357 9.11004271,20.626886 C2.63867708,20.0227657 -0.233618403,12.2270428 0.147394444,8.06417725 C0.601178819,3.11240118 3.6062816,0.062676514 3.6062816,0.062676514 C3.6062816,0.062676514 0.671949653,11.7322298 7.81978889,12.3993129 C13.7226736,12.9499622 13.902109,5.90964195 22.2235049,6.6860322 C27.5568785,7.18388863 28.5197948,9.98754771 28.5197948,9.98754771 L28.0593066,15.0120948 L28.0593066,15.0120948 Z" id="Fill-26"></path>
                            <path d="M28.0395087,15.0120948 C28.0395087,15.0120948 36.8284399,23.2153055 45.6475458,24.0377238 C52.1195833,24.641844 56.3595924,17.5098142 56.7409337,13.3472951 C57.1947181,8.39484106 54.7946611,4.84117312 54.7946611,4.84117312 C54.7946611,4.84117312 55.5586875,16.8559445 48.4111618,16.18853 C42.5076052,15.6378806 43.6117198,8.68352969 35.2903389,7.90713944 C29.9559351,7.40962954 28.4996684,9.98754771 28.4996684,9.98754771 L28.0395087,15.0120948 L28.0395087,15.0120948 Z" id="Fill-28"></path>
                        </g>
                        <g id="Group-34" transform="translate(14.034722, 5.423929)" fill="#FFFFFF">
                            <g id="Kampbart" transform="translate(0.000000, 8.135894)">
                                <path d="M0.011882231,0.0580361504 L1.98067979,0.0580361504 L1.98067979,3.09086046 L5.68306457,0.0580361504 L8.04387934,0.0580361504 L4.2805141,3.14360523 L8.0874368,6.36982703 L5.56110366,6.36982703 L1.98067979,3.23151318 L1.98067979,6.36982703 L0.011882231,6.36982703 L0.011882231,0.0580361504 L0.011882231,0.0580361504 Z M8.73208733,1.73707801 L12.4606066,1.73707801 C12.6580681,1.74293857 12.8540748,1.7531944 13.0486324,1.7678458 C13.2431901,1.7824972 13.4304853,1.80447396 13.6105238,1.83377676 C13.7963699,1.857219 13.9735018,1.90117253 14.1419249,1.96563869 C14.3103479,2.03010484 14.4671532,2.11215144 14.6123455,2.21178095 C14.7401147,2.29382878 14.8461035,2.38320097 14.930315,2.4799002 C15.0145266,2.57659943 15.0827659,2.6806228 15.1350351,2.79197343 C15.1873044,2.90332405 15.2265057,3.01613813 15.2526403,3.13041904 C15.2787749,3.24469995 15.291842,3.36044426 15.291842,3.47765544 L15.291842,6.36982703 L10.4046941,6.36982703 C10.0504249,6.36982703 9.73826619,6.33759444 9.46820854,6.27312829 C9.19815089,6.20866213 8.97020242,6.11196435 8.78435629,5.98303205 C8.59851017,5.84823918 8.46203147,5.69147157 8.37491609,5.51272451 C8.28780072,5.33397745 8.2558589,5.12739583 8.27908966,4.89297346 C8.30812812,4.61752717 8.39524219,4.38896878 8.54043447,4.20729144 C8.68562676,4.0256141 8.88889291,3.89375349 9.15023902,3.81170566 C9.41158514,3.72965783 9.69760965,3.66812288 10.0083211,3.62709896 C10.3190326,3.58607505 10.6573256,3.5655634 11.0232101,3.5655634 L13.4101594,3.5567726 C13.4217748,3.3692347 13.389833,3.21539732 13.314333,3.09525586 C13.238833,2.97511439 13.1226809,2.89160267 12.9658732,2.8447182 C12.8090656,2.79783372 12.6304817,2.76267089 12.4301164,2.73922866 C12.229751,2.71578642 12.0076101,2.70406548 11.7636871,2.70406548 L8.73208733,2.69527468 L8.73208733,1.73707801 L8.73208733,1.73707801 Z M11.1538826,5.43800275 L13.4275824,5.43800275 L13.4275824,4.47980609 L11.284555,4.47980609 C11.2729396,4.48566665 11.2627763,4.48859688 11.2540647,4.48859688 L11.232286,4.48859688 L11.2017958,4.48859688 L11.180017,4.48859688 C11.0522478,4.49445744 10.9331919,4.50471327 10.8228458,4.51936466 C10.7124997,4.53401606 10.605059,4.55599283 10.5005205,4.58529563 C10.3959821,4.60873787 10.3146756,4.65415652 10.2565987,4.72155295 C10.1985218,4.78894938 10.1694838,4.8724611 10.1694838,4.97209061 C10.1578684,5.08344124 10.1752912,5.17427855 10.2217527,5.24460526 C10.2682143,5.31493197 10.3437131,5.35888551 10.4482516,5.37646719 C10.55279,5.39990942 10.6645864,5.41749084 10.7836441,5.42921196 C10.9027018,5.44093308 11.0261133,5.44679355 11.1538826,5.44679355 L11.1538826,5.43800275 Z M16.8860453,1.73707801 L23.8639517,1.73707801 C24.311144,1.74293857 24.707513,1.77663628 25.0530706,1.83817216 C25.3986282,1.89970803 25.6991718,1.98908022 25.9547102,2.10629141 C26.2044409,2.2235026 26.3931881,2.39345627 26.5209573,2.61615752 C26.6487265,2.83885878 26.7155139,3.11430094 26.7213216,3.44249226 L26.7213216,6.36982703 L24.891908,6.36982703 L24.891908,3.59193578 C24.891908,3.37509508 24.8570623,3.20514141 24.78737,3.08206967 C24.7176778,2.95899792 24.6131409,2.87988155 24.4737563,2.8447182 C24.3401794,2.80955484 24.1703069,2.78464784 23.9641339,2.76999644 C23.7579609,2.75534504 23.5183972,2.75094969 23.2454357,2.75681025 C23.2222049,2.75681025 23.1989745,2.75827536 23.1757437,2.76120564 C23.152513,2.76413592 23.1321864,2.76560104 23.1147633,2.76560104 L23.0450713,2.76560104 L22.9753794,2.76560104 L22.9056874,2.76560104 L22.8359955,2.76560104 L22.7663035,2.76560104 L22.6966116,2.76560104 L22.6966116,6.36982703 L20.8410634,6.36982703 L20.8410634,2.75681025 L18.715459,2.75681025 L18.715459,6.36982703 L16.8860453,6.36982703 L16.8860453,1.73707801 L16.8860453,1.73707801 Z M28.3503709,1.73707801 L31.8523914,1.73707801 C32.3634682,1.74293857 32.8208171,1.79568282 33.2244516,1.89531233 C33.6280862,1.99494184 33.9721867,2.14145362 34.2567636,2.33485208 C34.5471482,2.5341111 34.7707409,2.76706484 34.9275486,3.03372029 C35.0843563,3.30037574 35.1743741,3.60365514 35.1976049,3.94356759 C35.2092203,4.10180269 35.2034127,4.25564006 35.1801819,4.40508433 C35.1569512,4.55452859 35.1192017,4.70543573 35.0669325,4.85781028 C35.0088556,5.00432426 34.9304529,5.14644069 34.8317222,5.28416384 C34.7329914,5.42188698 34.6110317,5.54935224 34.4658394,5.66656342 C34.2916087,5.81893797 34.1028616,5.94347299 33.8995924,6.04017222 C33.6963232,6.13687145 33.4756342,6.20573199 33.2375188,6.2467559 C33.0052112,6.28777982 32.7627437,6.31854729 32.5101091,6.33905925 C32.2574746,6.35957121 32.0004881,6.36982703 31.7391419,6.36982703 L30.1710731,6.36982703 L30.1710731,8.0400781 L28.3503709,8.0400781 L28.3503709,1.73707801 L28.3503709,1.73707801 Z M30.1710731,2.73922866 L30.1710731,5.37646719 C30.1826885,5.37646719 30.1957556,5.3779323 30.2102748,5.38086258 C30.224794,5.38379286 30.240765,5.38525798 30.258188,5.38525798 L30.2973898,5.38525798 L30.3365915,5.38525798 L30.3932162,5.38525798 L30.4585524,5.38525798 L30.4890426,5.38525798 L30.5195328,5.38525798 C30.9376866,5.39111854 31.3166328,5.3793976 31.6563828,5.3500948 C31.9961327,5.320792 32.2966762,5.27683847 32.5580223,5.21823287 C32.8193685,5.15376672 33.0124713,5.01604564 33.1373367,4.80506551 C33.262202,4.59408537 33.3188262,4.30399203 33.3072108,3.93477679 C33.2955954,3.62416714 33.2244523,3.38095758 33.0937792,3.2051408 C32.9631061,3.02932402 32.7729071,2.91797506 32.5231764,2.87109058 C32.2734456,2.82420611 31.9990363,2.7905084 31.6999402,2.76999644 C31.4008441,2.74948448 31.0770702,2.73922866 30.7286087,2.73922866 C30.6937625,2.73922866 30.6603688,2.74069377 30.6284265,2.74362405 C30.5964842,2.74655433 30.5659943,2.74801945 30.5369558,2.74801945 L30.4890426,2.74801945 L30.4411294,2.74801945 L30.3714375,2.74801945 L30.310457,2.74801945 L30.240765,2.74801945 L30.1710731,2.74801945 L30.1710731,2.73922866 Z M39.2571609,2.73922866 L38.1508012,2.73922866 L38.1508012,5.37646719 C38.1914551,5.38232775 38.2335602,5.3867231 38.2771179,5.38965338 C38.3206756,5.39258366 38.3656845,5.39404878 38.412146,5.39404878 L38.481838,5.39404878 L38.5515299,5.39404878 L38.6125104,5.39404878 L38.6822024,5.39404878 C38.9842023,5.39990934 39.2760344,5.39551398 39.5577075,5.38086258 C39.8393805,5.36621119 40.110886,5.33837395 40.3722321,5.29735003 C40.6335782,5.26218667 40.8368444,5.16841913 40.9820367,5.01604459 C41.1272289,4.86367004 41.2201506,4.65562331 41.2608045,4.39189814 L41.2608045,4.33915336 C41.2608045,4.32157169 41.2637083,4.30399027 41.269516,4.28640859 L41.269516,4.23366382 L41.269516,4.18091905 C41.269516,4.16333737 41.2709679,4.14575596 41.2738717,4.12817428 C41.2767755,4.1105926 41.2782274,4.09008095 41.2782274,4.06663872 C41.2782274,4.04905704 41.2796793,4.03147562 41.2825832,4.01389395 C41.285487,3.99631227 41.2869389,3.97873085 41.2869389,3.96114918 C41.2811312,3.93184638 41.2753236,3.9010789 41.269516,3.86884583 C41.2637083,3.83661275 41.2579007,3.80291504 41.252093,3.76775168 C41.2462853,3.73844889 41.2404777,3.70768141 41.23467,3.67544833 C41.2288623,3.64321526 41.2201509,3.61244778 41.2085355,3.58314499 C41.1853047,3.51867883 41.1562667,3.458609 41.1214206,3.40293369 C41.0865744,3.34725837 41.0459212,3.29304901 40.9994597,3.24030398 C40.9007289,3.12309279 40.7889325,3.02932525 40.6640671,2.95899853 C40.5392018,2.88867182 40.4012712,2.84178805 40.2502712,2.81834581 C40.1050789,2.79490357 39.9497255,2.77732216 39.7842063,2.76560104 C39.6186871,2.75387992 39.4430071,2.74801945 39.2571609,2.74801945 L39.2571609,2.73922866 Z M38.1508012,0.0580361504 L38.1508012,1.73707801 L39.7188701,1.73707801 C39.9802162,1.74293857 40.2372027,1.75612463 40.4898373,1.77663659 C40.7424719,1.79714855 40.9849393,1.83084626 41.217247,1.87773074 C41.4553623,1.91875465 41.6760513,1.98761519 41.8793205,2.08431442 C42.0825897,2.18101365 42.2713368,2.30554867 42.4455676,2.45792321 C42.5907599,2.58099496 42.7127196,2.70992533 42.8114503,2.8447182 C42.9101811,2.97951106 42.9885837,3.12309261 43.0466606,3.27546716 C43.0989299,3.42198114 43.1366793,3.57142316 43.1599101,3.72379771 C43.1831408,3.87617225 43.1889484,4.02854451 43.1773331,4.18091905 C43.1541023,4.5208315 43.0640844,4.82557601 42.9072768,5.09516174 C42.7504691,5.36474747 42.5268763,5.5962361 42.2364917,5.78963456 C41.9519149,5.98303302 41.6078143,6.12807968 41.2041798,6.22477891 C40.8005452,6.32147814 40.3431964,6.36982703 39.8321195,6.36982703 L36.3300991,6.36982703 L36.3300991,0.0580361504 L38.1508012,0.0580361504 L38.1508012,0.0580361504 Z M44.4404996,1.73707801 L48.1690189,1.73707801 C48.3664804,1.74293857 48.562487,1.7531944 48.7570447,1.7678458 C48.9516024,1.7824972 49.1388976,1.80447396 49.318936,1.83377676 C49.5047822,1.857219 49.6819141,1.90117253 49.8503372,1.96563869 C50.0187602,2.03010484 50.1755655,2.11215144 50.3207578,2.21178095 C50.448527,2.29382878 50.5545158,2.38320097 50.6387273,2.4799002 C50.7229389,2.57659943 50.7911782,2.6806228 50.8434474,2.79197343 C50.8957166,2.90332405 50.934918,3.01613813 50.9610526,3.13041904 C50.9871872,3.24469995 51.0002543,3.36044426 51.0002543,3.47765544 L51.0002543,6.36982703 L46.1131064,6.36982703 C45.7588372,6.36982703 45.4466785,6.33759444 45.1766208,6.27312829 C44.9065632,6.20866213 44.6786147,6.11196435 44.4927686,5.98303205 C44.3069225,5.84823918 44.1704438,5.69147157 44.0833284,5.51272451 C43.996213,5.33397745 43.9642712,5.12739583 43.987502,4.89297346 C44.0165404,4.61752717 44.1036545,4.38896878 44.2488468,4.20729144 C44.3940391,4.0256141 44.5973052,3.89375349 44.8586513,3.81170566 C45.1199974,3.72965783 45.4060219,3.66812288 45.7167334,3.62709896 C46.0274449,3.58607505 46.3657379,3.5655634 46.7316224,3.5655634 L49.1185717,3.5567726 C49.1301871,3.3692347 49.0982453,3.21539732 49.0227453,3.09525586 C48.9472453,2.97511439 48.8310932,2.89160267 48.6742855,2.8447182 C48.5174778,2.79783372 48.338894,2.76267089 48.1385287,2.73922866 C47.9381633,2.71578642 47.7160224,2.70406548 47.4720994,2.70406548 L44.4404996,2.69527468 L44.4404996,1.73707801 L44.4404996,1.73707801 Z M46.8622948,5.43800275 L49.1359947,5.43800275 L49.1359947,4.47980609 L46.9929673,4.47980609 C46.9813519,4.48566665 46.9711886,4.48859688 46.962477,4.48859688 L46.9406983,4.48859688 L46.9102081,4.48859688 L46.8884293,4.48859688 C46.7606601,4.49445744 46.6416042,4.50471327 46.5312581,4.51936466 C46.420912,4.53401606 46.3134713,4.55599283 46.2089328,4.58529563 C46.1043944,4.60873787 46.0230879,4.65415652 45.965011,4.72155295 C45.9069341,4.78894938 45.8778961,4.8724611 45.8778961,4.97209061 C45.8662807,5.08344124 45.8837035,5.17427855 45.930165,5.24460526 C45.9766266,5.31493197 46.0521254,5.35888551 46.1566639,5.37646719 C46.2612023,5.39990942 46.3729987,5.41749084 46.4920564,5.42921196 C46.611114,5.44093308 46.7345256,5.44679355 46.8622948,5.44679355 L46.8622948,5.43800275 Z M52.5944576,1.73707801 L55.6521919,1.73707801 C56.140038,1.74293857 56.5276956,1.78249676 56.8151763,1.85575375 C57.102657,1.92901074 57.2841447,2.04182482 57.3596446,2.19419936 C57.4409523,2.34071334 57.4990284,2.51506237 57.5338745,2.71725167 C57.5687207,2.91944097 57.5861435,3.14653424 57.5861435,3.39853829 L57.5861435,3.46886465 L57.5861435,3.53919101 L57.5861435,3.57435419 L57.5861435,3.60951737 L57.5861435,3.65347135 L57.5861435,3.68863453 L55.8438448,3.67984373 L55.8438448,3.63588976 L55.8438448,3.58314499 L55.8438448,3.5567726 L55.8438448,3.53040022 L55.8438448,3.50842323 L55.8438448,3.48644624 C55.8438448,3.2754661 55.8307776,3.10697755 55.804643,2.98097552 C55.7785084,2.8549735 55.7393071,2.77439201 55.6870379,2.73922866 C55.6347686,2.7040653 55.5200685,2.67769318 55.3429339,2.6601115 C55.1657993,2.64252982 54.920428,2.63373912 54.6068127,2.63373912 L54.5458322,2.63373912 L54.5022747,2.63373912 L54.480496,2.63373912 L54.4587173,2.63373912 L54.428227,2.63373912 L54.4064483,2.63373912 L54.4064483,6.36982703 L52.5944576,6.36982703 L52.5944576,1.73707801 L52.5944576,1.73707801 Z M58.0565641,1.73707801 L59.3371537,1.73707801 L59.3371537,0.0580361504 L61.1491444,0.0580361504 L61.1491444,1.73707801 L63.0743845,1.73707801 L63.0743845,2.6601115 L61.1491444,2.6601115 L61.1491444,4.53255086 C61.1433367,4.76697323 61.1796342,4.95157808 61.258038,5.08637095 C61.3364419,5.22116381 61.4569497,5.30614065 61.619565,5.34130401 C61.7763727,5.38232792 61.9665717,5.41163028 62.1901678,5.42921196 C62.413764,5.44679364 62.6678467,5.45558434 62.9524235,5.45558434 L62.961135,5.45558434 L62.9698465,5.45558434 L62.9872695,5.45558434 L63.0046925,5.45558434 L63.0221155,5.45558434 L63.0395385,5.45558434 L63.0569615,5.45558434 L63.0743845,5.45558434 L63.0743845,6.36982703 L61.4104892,6.36982703 C61.0678354,6.36982703 60.76584,6.33759444 60.5044938,6.27312829 C60.2431477,6.20866213 60.0282664,6.11196435 59.8598433,5.98303205 C59.6798049,5.85409974 59.5476819,5.70172748 59.4634704,5.5259107 C59.3792588,5.35009392 59.3371537,5.15083789 59.3371537,4.92813664 L59.3371537,2.6601115 L58.0565641,2.6601115 L58.0565641,1.73707801 L58.0565641,1.73707801 Z"></path>
                            </g>
                            <g id="2003" transform="translate(11.645833, 70.963072)">
                                <path d="M0.0403014978,4.52140951 C0.0403014978,4.35145329 0.0562724097,4.19175544 0.0882147126,4.04231118 C0.120157016,3.89286692 0.168069751,3.75368072 0.231954357,3.62474841 C0.295838963,3.48995555 0.406183445,3.36688565 0.562991114,3.25553502 C0.719798783,3.14418439 0.920161132,3.04162614 1.16408417,2.94785719 C1.32089184,2.8892516 1.48495666,2.84236783 1.65628356,2.80720447 C1.82761046,2.77204111 2.00329049,2.74566899 2.18332893,2.72808731 C2.36917505,2.71050563 2.55356649,2.69731957 2.73650877,2.68852874 C2.91945105,2.6797379 3.10384249,2.67534254 3.28968861,2.67534254 L3.36809206,2.67534254 L3.4464955,2.67534254 L3.52054319,2.67534254 L3.59459089,2.67534254 L3.75139777,2.67534254 L3.90820466,2.67534254 C3.95466619,2.67534254 4.00112703,2.67680766 4.04758856,2.67973794 C4.09405009,2.68266822 4.14051092,2.68413334 4.18697245,2.68413334 L4.32635635,2.68413334 L4.46574025,2.68413334 L4.7401523,2.68413334 C4.83017152,2.68413334 4.92164128,2.6812031 5.01456435,2.67534254 C5.20041047,2.66948198 5.36302339,2.6460401 5.50240799,2.60501618 C5.64179258,2.56399227 5.75794467,2.50538755 5.85086773,2.42920028 C5.9437908,2.34715245 6.00767444,2.25631514 6.04252059,2.15668563 C6.07736674,2.05705612 6.08317435,1.94277693 6.05994358,1.81384462 C6.03671281,1.66733064 5.98008867,1.55012121 5.89006945,1.46221282 C5.80005024,1.37430443 5.67954245,1.31862995 5.52854247,1.29518771 C5.3717348,1.26588491 5.21057378,1.24390815 5.04505457,1.22925675 C4.87953537,1.21460535 4.70966294,1.20727976 4.5354322,1.20727976 L0.0403014978,1.19848897 L0.0403014978,0.108430373 L4.95358389,0.108430373 C4.97100697,0.114290932 4.99133358,0.117221168 5.01456435,0.117221168 L5.0842563,0.117221168 L5.16701549,0.117221168 L5.24106318,0.117221168 L5.30204364,0.117221168 L5.37173559,0.117221168 L5.43271604,0.117221168 L5.50240799,0.117221168 C5.57210029,0.117221168 5.64033964,0.118686286 5.70712809,0.121616565 C5.77391654,0.124546845 5.84215589,0.126011963 5.91184819,0.126011963 C5.98154049,0.131872522 6.04977984,0.136267876 6.11656829,0.139198156 C6.18335674,0.142128435 6.25159609,0.146523789 6.32128839,0.152384348 C6.46067298,0.164105467 6.59569978,0.184617117 6.72637284,0.213919914 C6.8570459,0.243222711 6.98336129,0.281315775 7.10532281,0.32820025 C7.30278432,0.404387522 7.47265675,0.493759712 7.61494519,0.596319501 C7.75723363,0.69887929 7.87483762,0.817553837 7.96776068,0.952346703 C8.06068374,1.08127901 8.1332788,1.21606985 8.18554802,1.35672328 C8.23781724,1.4973767 8.26975907,1.63802802 8.28137445,1.77868144 L8.28137445,1.79626303 L8.28137445,1.81384462 L8.28137445,1.82703082 L8.28137445,1.83142621 C8.30460522,2.15375698 8.25959628,2.43652473 8.1463463,2.67973794 C8.03309632,2.92295115 7.85741628,3.12953277 7.61930094,3.29948899 C7.3753779,3.46944522 7.07483437,3.59691047 6.71766135,3.68188858 C6.36048832,3.76686669 5.94088891,3.80935511 5.45885052,3.80935511 L3.68170583,3.80056432 C3.2925905,3.80642487 2.98478747,3.84012259 2.7582875,3.90165846 C2.53178754,3.96319433 2.38659743,4.05256652 2.32271282,4.16977771 C2.25882822,4.2869889 2.21381928,4.42617509 2.18768467,4.58734048 C2.16155006,4.74850586 2.15138675,4.93164559 2.15719444,5.13676517 L2.15719444,5.18950994 L2.15719444,5.24225471 L2.15719444,5.29499948 L2.15719444,5.34774425 L8.24652848,5.33895346 L8.24652848,6.42022126 L0.0403014978,6.42022126 L0.0403014978,4.52140951 L0.0403014978,4.52140951 Z M15.5206256,4.98732165 C15.6367795,4.90527382 15.7384125,4.80418069 15.8255279,4.68403922 C15.9126433,4.56389776 15.9881421,4.42471156 16.0520267,4.26647646 C16.1159114,4.10824135 16.1623722,3.94707839 16.1914106,3.78298273 C16.2204491,3.61888706 16.2349681,3.45186363 16.2349681,3.2819074 C16.2349681,3.11195118 16.2204491,2.94639286 16.1914106,2.78522748 C16.1623722,2.6240621 16.1159114,2.46436425 16.0520267,2.30612915 C15.9881421,2.14789405 15.9126433,2.00724273 15.8255279,1.88417098 C15.7384125,1.76109924 15.6367795,1.65561075 15.5206256,1.56770236 C15.4102795,1.48565453 15.2825122,1.41386375 15.1373199,1.35232788 C14.9921276,1.29079201 14.8353223,1.23951288 14.6668993,1.19848897 C14.4984762,1.15746505 14.3242481,1.12816269 14.1442096,1.11058101 C13.9641712,1.09299934 13.7812317,1.08420863 13.5953855,1.08420863 C13.4153471,1.08420863 13.2367633,1.09446445 13.0596287,1.11497641 C12.8824941,1.13548837 12.7097179,1.16625584 12.5412948,1.20727976 C12.3728718,1.24830368 12.2175184,1.29811768 12.0752299,1.35672328 C11.9329415,1.41532887 11.8095299,1.48565453 11.7049914,1.56770236 C11.5888376,1.65561075 11.4857526,1.76109924 11.3957334,1.88417098 C11.3057142,2.00724273 11.2287634,2.14789405 11.1648788,2.30612915 C11.1068019,2.46436425 11.0646968,2.6240621 11.0385622,2.78522748 C11.0124276,2.94639286 10.9993605,3.11195118 10.9993605,3.2819074 C10.9993605,3.45186363 11.0124276,3.61888706 11.0385622,3.78298273 C11.0646968,3.94707839 11.1068019,4.10824135 11.1648788,4.26647646 C11.2287634,4.42471156 11.3057142,4.56389776 11.3957334,4.68403922 C11.4857526,4.80418069 11.5888376,4.90820406 11.7049914,4.99611245 C11.8153376,5.07816028 11.941653,5.14995106 12.0839414,5.21148693 C12.2262298,5.2730228 12.3815833,5.32430193 12.5500063,5.36532584 C12.7184294,5.40634976 12.8926575,5.43565212 13.0726959,5.45323379 C13.2527344,5.47081547 13.4327701,5.47960618 13.6128085,5.47960618 C13.7986547,5.47960618 13.9786904,5.46935035 14.1529211,5.4488384 C14.3271519,5.42832644 14.4984762,5.39755896 14.6668993,5.35653505 C14.8353223,5.31551113 14.9921276,5.26423201 15.1373199,5.20269613 C15.2825122,5.14116026 15.4102795,5.07229972 15.5206256,4.99611245 L15.5206256,4.98732165 Z M11.9402018,6.38505808 C11.5801249,6.32645248 11.2534472,6.24880123 10.9601587,6.152102 C10.6668703,6.05540278 10.4098838,5.93672823 10.1891915,5.7960748 C9.96849927,5.66128194 9.77394453,5.49865385 9.60552148,5.30818568 C9.43709843,5.1177175 9.30061972,4.90234517 9.19608128,4.66206224 C9.14961975,4.55657217 9.11041842,4.44815344 9.07847611,4.33680282 C9.04653381,4.22545219 9.01604389,4.11117299 8.98700543,3.99396181 C8.96377467,3.87675062 8.94635185,3.75807607 8.93473647,3.63793461 C8.92312109,3.51779314 8.91731348,3.39618836 8.91731348,3.27311661 C8.91731348,3.15590542 8.92312109,3.03723087 8.93473647,2.91708941 C8.94635185,2.79694794 8.96377467,2.67827339 8.98700543,2.56106221 C9.01604389,2.44385102 9.04653381,2.32957183 9.07847611,2.2182212 C9.11041842,2.10687057 9.14961975,1.99845185 9.19608128,1.89296178 C9.30061972,1.6585394 9.43709843,1.44756243 9.60552148,1.26002453 C9.77394453,1.07248663 9.96849927,0.90839343 10.1891915,0.767740005 C10.4098838,0.627086581 10.6668703,0.505481798 10.9601587,0.402922009 C11.2534472,0.30036222 11.5801249,0.219780737 11.9402018,0.161175143 C12.0737787,0.137732906 12.2131612,0.117221256 12.3583535,0.0996395777 C12.5035457,0.0820578996 12.6516397,0.0703369567 12.8026396,0.0644763973 C12.9478319,0.0527552786 13.0944739,0.0439645714 13.2425701,0.038104012 C13.3906662,0.0322434526 13.5431158,0.0293132169 13.6999235,0.0293132169 C13.7870388,0.0293132169 13.8756048,0.0307783348 13.965624,0.0337086145 C14.0556432,0.0366388941 14.147113,0.0410342477 14.2400361,0.0468948071 C14.2864976,0.0527553665 14.3315065,0.0556856022 14.3750642,0.0556856022 C14.4186219,0.0556856022 14.4636308,0.0586158379 14.5100924,0.0644763973 C14.573977,0.0703369567 14.6393125,0.077662546 14.706101,0.0864533851 C14.7728894,0.0952442241 14.8411288,0.102569813 14.9108211,0.108430373 C14.9805134,0.120151492 15.0487527,0.128942199 15.1155412,0.134802758 C15.1823296,0.140663317 15.2476652,0.149454025 15.3115498,0.161175143 C15.665819,0.219780737 15.9866891,0.30036222 16.2741698,0.402922009 C16.5616506,0.505481798 16.8186371,0.627086581 17.045137,0.767740005 C17.2658293,0.90839343 17.460384,1.07248663 17.6288071,1.26002453 C17.7972301,1.44756243 17.9337088,1.6585394 18.0382473,1.89296178 C18.0847088,1.99845185 18.1253621,2.10687057 18.1602082,2.2182212 C18.1950543,2.32957183 18.2240924,2.44385102 18.2473231,2.56106221 C18.2705539,2.67827339 18.2879767,2.79694794 18.2995921,2.91708941 C18.3112075,3.03723087 18.3170151,3.15590542 18.3170151,3.27311661 C18.3170151,3.39618836 18.3112075,3.51779314 18.2995921,3.63793461 C18.2879767,3.75807607 18.2705539,3.87675062 18.2473231,3.99396181 C18.2240924,4.11117299 18.1950543,4.22545219 18.1602082,4.33680282 C18.1253621,4.44815344 18.0847088,4.55657217 18.0382473,4.66206224 C17.9337088,4.89648461 17.7972301,5.1089267 17.6288071,5.29939488 C17.460384,5.48986306 17.2658293,5.65542138 17.045137,5.7960748 C16.8186371,5.93672823 16.5616506,6.05686789 16.2741698,6.1564974 C15.9866891,6.25612691 15.665819,6.33524328 15.3115498,6.39384887 C15.2244344,6.40556999 15.1358685,6.4143607 15.0458492,6.42022126 C14.95583,6.42608181 14.8643602,6.43487252 14.7714372,6.44659364 C14.7249757,6.44659364 14.6799667,6.44952388 14.636409,6.45538444 C14.5928514,6.461245 14.5478424,6.46417523 14.5013809,6.46417523 C14.3619963,6.47589635 14.2255176,6.48468706 14.0919407,6.49054762 C13.9583638,6.49640818 13.8247889,6.50226865 13.691212,6.50812921 C13.5344043,6.50812921 13.3805028,6.50519897 13.2295028,6.49933841 C13.0785028,6.49347785 12.9304089,6.48468714 12.7852166,6.47296603 C12.6400244,6.46710547 12.4962862,6.45684964 12.3539977,6.44219824 C12.2117093,6.42754684 12.0737787,6.41143055 11.9402018,6.39384887 L11.9402018,6.38505808 Z M25.6172467,4.98732165 C25.7334006,4.90527382 25.8350336,4.80418069 25.922149,4.68403922 C26.0092644,4.56389776 26.0847632,4.42471156 26.1486478,4.26647646 C26.2125324,4.10824135 26.2589933,3.94707839 26.2880317,3.78298273 C26.3170702,3.61888706 26.3315892,3.45186363 26.3315892,3.2819074 C26.3315892,3.11195118 26.3170702,2.94639286 26.2880317,2.78522748 C26.2589933,2.6240621 26.2125324,2.46436425 26.1486478,2.30612915 C26.0847632,2.14789405 26.0092644,2.00724273 25.922149,1.88417098 C25.8350336,1.76109924 25.7334006,1.65561075 25.6172467,1.56770236 C25.5069006,1.48565453 25.3791333,1.41386375 25.233941,1.35232788 C25.0887487,1.29079201 24.9319434,1.23951288 24.7635204,1.19848897 C24.5950973,1.15746505 24.4208692,1.12816269 24.2408307,1.11058101 C24.0607923,1.09299934 23.8778528,1.08420863 23.6920066,1.08420863 C23.5119682,1.08420863 23.3333844,1.09446445 23.1562498,1.11497641 C22.9791152,1.13548837 22.806339,1.16625584 22.6379159,1.20727976 C22.4694929,1.24830368 22.3141394,1.29811768 22.171851,1.35672328 C22.0295626,1.41532887 21.906151,1.48565453 21.8016125,1.56770236 C21.6854587,1.65561075 21.5823737,1.76109924 21.4923545,1.88417098 C21.4023353,2.00724273 21.3253845,2.14789405 21.2614999,2.30612915 C21.203423,2.46436425 21.1613179,2.6240621 21.1351833,2.78522748 C21.1090487,2.94639286 21.0959815,3.11195118 21.0959815,3.2819074 C21.0959815,3.45186363 21.1090487,3.61888706 21.1351833,3.78298273 C21.1613179,3.94707839 21.203423,4.10824135 21.2614999,4.26647646 C21.3253845,4.42471156 21.4023353,4.56389776 21.4923545,4.68403922 C21.5823737,4.80418069 21.6854587,4.90820406 21.8016125,4.99611245 C21.9119587,5.07816028 22.0382741,5.14995106 22.1805625,5.21148693 C22.3228509,5.2730228 22.4782044,5.32430193 22.6466274,5.36532584 C22.8150505,5.40634976 22.9892786,5.43565212 23.169317,5.45323379 C23.3493555,5.47081547 23.5293912,5.47960618 23.7094296,5.47960618 C23.8952758,5.47960618 24.0753115,5.46935035 24.2495422,5.4488384 C24.423773,5.42832644 24.5950973,5.39755896 24.7635204,5.35653505 C24.9319434,5.31551113 25.0887487,5.26423201 25.233941,5.20269613 C25.3791333,5.14116026 25.5069006,5.07229972 25.6172467,4.99611245 L25.6172467,4.98732165 Z M22.0368229,6.38505808 C21.676746,6.32645248 21.3500682,6.24880123 21.0567798,6.152102 C20.7634914,6.05540278 20.5065049,5.93672823 20.2858126,5.7960748 C20.0651204,5.66128194 19.8705656,5.49865385 19.7021426,5.30818568 C19.5337195,5.1177175 19.3972408,4.90234517 19.2927024,4.66206224 C19.2462408,4.55657217 19.2070395,4.44815344 19.1750972,4.33680282 C19.1431549,4.22545219 19.112665,4.11117299 19.0836265,3.99396181 C19.0603958,3.87675062 19.0429729,3.75807607 19.0313576,3.63793461 C19.0197422,3.51779314 19.0139346,3.39618836 19.0139346,3.27311661 C19.0139346,3.15590542 19.0197422,3.03723087 19.0313576,2.91708941 C19.0429729,2.79694794 19.0603958,2.67827339 19.0836265,2.56106221 C19.112665,2.44385102 19.1431549,2.32957183 19.1750972,2.2182212 C19.2070395,2.10687057 19.2462408,1.99845185 19.2927024,1.89296178 C19.3972408,1.6585394 19.5337195,1.44756243 19.7021426,1.26002453 C19.8705656,1.07248663 20.0651204,0.90839343 20.2858126,0.767740005 C20.5065049,0.627086581 20.7634914,0.505481798 21.0567798,0.402922009 C21.3500682,0.30036222 21.676746,0.219780737 22.0368229,0.161175143 C22.1703998,0.137732906 22.3097823,0.117221256 22.4549745,0.0996395777 C22.6001668,0.0820578996 22.7482607,0.0703369567 22.8992607,0.0644763973 C23.044453,0.0527552786 23.191095,0.0439645714 23.3391911,0.038104012 C23.4872873,0.0322434526 23.6397369,0.0293132169 23.7965446,0.0293132169 C23.8836599,0.0293132169 23.9722259,0.0307783348 24.0622451,0.0337086145 C24.1522643,0.0366388941 24.2437341,0.0410342477 24.3366572,0.0468948071 C24.3831187,0.0527553665 24.4281276,0.0556856022 24.4716853,0.0556856022 C24.515243,0.0556856022 24.5602519,0.0586158379 24.6067135,0.0644763973 C24.6705981,0.0703369567 24.7359336,0.077662546 24.8027221,0.0864533851 C24.8695105,0.0952442241 24.9377499,0.102569813 25.0074422,0.108430373 C25.0771345,0.120151492 25.1453738,0.128942199 25.2121623,0.134802758 C25.2789507,0.140663317 25.3442863,0.149454025 25.4081709,0.161175143 C25.7624401,0.219780737 26.0833102,0.30036222 26.3707909,0.402922009 C26.6582717,0.505481798 26.9152581,0.627086581 27.1417581,0.767740005 C27.3624504,0.90839343 27.5570051,1.07248663 27.7254282,1.26002453 C27.8938512,1.44756243 28.0303299,1.6585394 28.1348684,1.89296178 C28.1813299,1.99845185 28.2219831,2.10687057 28.2568293,2.2182212 C28.2916754,2.32957183 28.3207135,2.44385102 28.3439442,2.56106221 C28.367175,2.67827339 28.3845978,2.79694794 28.3962132,2.91708941 C28.4078286,3.03723087 28.4136362,3.15590542 28.4136362,3.27311661 C28.4136362,3.39618836 28.4078286,3.51779314 28.3962132,3.63793461 C28.3845978,3.75807607 28.367175,3.87675062 28.3439442,3.99396181 C28.3207135,4.11117299 28.2916754,4.22545219 28.2568293,4.33680282 C28.2219831,4.44815344 28.1813299,4.55657217 28.1348684,4.66206224 C28.0303299,4.89648461 27.8938512,5.1089267 27.7254282,5.29939488 C27.5570051,5.48986306 27.3624504,5.65542138 27.1417581,5.7960748 C26.9152581,5.93672823 26.6582717,6.05686789 26.3707909,6.1564974 C26.0833102,6.25612691 25.7624401,6.33524328 25.4081709,6.39384887 C25.3210555,6.40556999 25.2324895,6.4143607 25.1424703,6.42022126 C25.0524511,6.42608181 24.9609813,6.43487252 24.8680583,6.44659364 C24.8215967,6.44659364 24.7765878,6.44952388 24.7330301,6.45538444 C24.6894724,6.461245 24.6444635,6.46417523 24.598002,6.46417523 C24.4586174,6.47589635 24.3221387,6.48468706 24.1885618,6.49054762 C24.0549849,6.49640818 23.92141,6.50226865 23.7878331,6.50812921 C23.6310254,6.50812921 23.4771239,6.50519897 23.3261239,6.49933841 C23.1751239,6.49347785 23.02703,6.48468714 22.8818377,6.47296603 C22.7366454,6.46710547 22.5929072,6.45684964 22.4506188,6.44219824 C22.3083304,6.42754684 22.1703998,6.41143055 22.0368229,6.39384887 L22.0368229,6.38505808 Z M28.9276143,5.33895346 L32.7955175,5.33895346 C32.992979,5.34481402 33.1802742,5.33602331 33.3574088,5.31258107 C33.5345434,5.28913884 33.701512,5.25397601 33.8583197,5.20709153 C34.0151273,5.16020706 34.1327313,5.08402093 34.2111352,4.97853086 C34.289539,4.87304079 34.3287403,4.73824995 34.3287403,4.57415428 C34.3287403,4.42177974 34.289539,4.29431449 34.2111352,4.1917547 C34.1327313,4.08919491 34.0151273,4.01154366 33.8583197,3.95879863 C33.701512,3.90605359 33.5345434,3.86649541 33.3574088,3.84012289 C33.1802742,3.81375038 32.992979,3.80056432 32.7955175,3.80056432 L29.6768027,3.79177352 L29.6768027,2.71050572 L32.7432485,2.71050572 C32.94071,2.71636628 33.1280052,2.70757557 33.3051398,2.68413334 C33.4822744,2.6606911 33.649243,2.62552827 33.8060507,2.5786438 C33.9628584,2.53175932 34.0804624,2.45703831 34.1588662,2.35447852 C34.23727,2.25191873 34.2764714,2.12152324 34.2764714,1.96328814 C34.2764714,1.80505304 34.23727,1.67319243 34.1588662,1.56770236 C34.0804624,1.46221229 33.9628584,1.38602616 33.8060507,1.33914169 C33.649243,1.29225721 33.4822744,1.25709438 33.3051398,1.23365215 C33.1280052,1.21020991 32.94071,1.19848897 32.7432485,1.19848897 L28.9276143,1.18969817 L28.9276143,0.108430373 L33.440168,0.108430373 C33.7712064,0.114290932 34.0906246,0.134802582 34.3984323,0.169965939 C34.7062399,0.205129295 34.9966201,0.254943302 35.2695816,0.319409455 C35.5425431,0.383875608 35.7762992,0.493759448 35.9708569,0.649064272 C36.1654145,0.804369095 36.3149604,1.00216001 36.4194988,1.24244294 C36.5182296,1.47100476 36.5646904,1.68051661 36.5588827,1.87098479 C36.553075,2.06145297 36.4920952,2.235802 36.3759413,2.3940371 C36.2597875,2.5522722 36.1102417,2.70317934 35.9272994,2.84676305 C35.7443571,2.99034675 35.5251201,3.12953295 35.2695816,3.26432581 C35.4031585,3.32293141 35.5323777,3.38300124 35.6572431,3.44453711 C35.7821085,3.50607299 35.8968087,3.57200329 36.0013471,3.64233 C36.1058856,3.71265672 36.1944515,3.7932382 36.2670477,3.88407687 C36.3396438,3.97491554 36.3991717,4.07600867 36.4456333,4.1873593 C36.4630564,4.23424377 36.4790273,4.28259266 36.4935465,4.33240742 C36.5080657,4.38222217 36.5211328,4.43057106 36.5327482,4.47745554 C36.5443636,4.52434001 36.5501712,4.5726889 36.5501712,4.62250366 L36.5501712,4.76755178 C36.5501712,4.79685457 36.5487193,4.82469181 36.5458155,4.85106433 C36.5429116,4.87743685 36.5385559,4.90527409 36.5327482,4.93457688 C36.5327482,4.946298 36.5312963,4.95948406 36.5283925,4.97413546 C36.5254886,4.98878686 36.5240367,5.00197292 36.5240367,5.01369404 C36.518229,5.03713628 36.5124214,5.05911304 36.5066137,5.079625 C36.500806,5.10013696 36.4949984,5.11918349 36.4891907,5.13676517 C36.4833831,5.16020741 36.4775755,5.18071906 36.4717678,5.19830074 C36.4659601,5.21588241 36.4601525,5.23346383 36.4543448,5.25104551 C36.3730371,5.4678862 36.242366,5.65395617 36.0623276,5.809261 C35.8822891,5.96456582 35.6557926,6.08324037 35.3828311,6.1652882 C35.1098696,6.25319659 34.8267489,6.31766177 34.5334604,6.35868569 C34.240172,6.39970961 33.9396285,6.42022126 33.6318208,6.42022126 L28.9276143,6.42022126 L28.9276143,5.33895346 L28.9276143,5.33895346 Z"></path>
                            </g>
                            <g id="F" transform="translate(21.201389, 0.000000)">
                                <path d="M0.0234088762,3.47401021 C0.0234088762,2.86451204 0.0945520292,2.34293008 0.23684047,1.90924868 C0.37912891,1.47556729 0.592558369,1.12686924 0.87713525,0.863144066 C1.16751982,0.599418894 1.62632056,0.401627982 2.25355124,0.269765396 C2.88078192,0.13790281 3.67642371,0.0719725065 4.64050049,0.0719725065 L7.64596578,0.0631817114 L7.64596578,1.1620311 L4.46627062,1.1620311 C4.04811683,1.16789166 3.68804536,1.20012425 3.38604541,1.25872985 C3.08404545,1.31733544 2.83431847,1.40524251 2.63685696,1.5224537 C2.43939545,1.63380433 2.28839774,1.78910682 2.18385929,1.98836584 C2.07932084,2.18762486 2.018341,2.42790419 2.00091792,2.70921104 L7.64596578,2.70042024 L7.64596578,3.79047883 L2.00091792,3.79047883 L2.00091792,6.37497259 L0.0234088762,6.37497259 L0.0234088762,3.47401021 L0.0234088762,3.47401021 Z"></path>
                            </g>
                            <g id="K" transform="translate(29.263889, 0.000000)">
                                <polygon points="0.023640148 0.0631817114 1.9924377 0.0631817114 1.9924377 3.09600602 5.69482249 0.0631817114 8.05563725 0.0631817114 4.29227202 3.14875079 8.09919472 6.37497259 5.57286158 6.37497259 1.9924377 3.23665874 1.9924377 6.37497259 0.023640148 6.37497259"></polygon>
                            </g>
                        </g>
                    </g>
                </g>
            </g>
        </g>
    </g>
</svg>